<?xml version="1.0" encoding="utf-8"?>
<!-- Generator: Adobe Illustrator 16.0.0, SVG Export Plug-In . SVG Version: 6.00 Build 0)  -->
<!DOCTYPE svg PUBLIC "-//W3C//DTD SVG 1.1//EN" "http://www.w3.org/Graphics/SVG/1.1/DTD/svg11.dtd">
<svg version="1.1" id="Layer_1" xmlns="http://www.w3.org/2000/svg" xmlns:xlink="http://www.w3.org/1999/xlink" x="0px" y="0px"
	 width="270px" height="78.007px" viewBox="0 0 270 78.007" enable-background="new 0 0 270 78.007" xml:space="preserve">
<g>
	<path fill="#FFFFFF" d="M0,66.052h1.11v2.692c0.271-0.213,0.686-0.378,1.148-0.378c1.294,0,2.067,0.931,2.067,2.218
		c0,1.434-0.956,2.354-2.481,2.354c-0.715,0-1.449-0.231-1.844-0.484V66.052z M1.11,69.829v1.85
		c0.241,0.155,0.482,0.223,0.792,0.223c0.694,0,1.236-0.455,1.236-1.24c0-0.832-0.512-1.249-1.139-1.249
		C1.613,69.412,1.293,69.616,1.11,69.829z"/>
	<path fill="#FFFFFF" d="M7.596,72.83c-0.637,1.561-1.042,1.938-1.68,1.938c-0.396,0-0.686-0.155-0.936-0.339l0.357-0.843
		c0.116,0.067,0.28,0.153,0.454,0.153c0.28,0,0.483-0.221,0.667-0.678l0.097-0.232l-2.009-4.357h1.333l1.014,2.384
		c0.086,0.212,0.144,0.415,0.211,0.629c0.039-0.204,0.078-0.417,0.155-0.64l0.782-2.373h1.266L7.596,72.83z"/>
	<path fill="#FFFFFF" d="M12.334,66.052h0.125c0.405,0,1.371-0.03,1.864-0.03c2.703,0,3.795,1.561,3.795,3.352
		c0,1.908-1.294,3.478-3.873,3.478c-0.406,0-1.159-0.021-1.777-0.021h-0.134V66.052z M13.522,67.166v4.552
		c0.329,0.019,0.598,0.019,0.762,0.019c1.632,0,2.579-0.929,2.579-2.363c0-1.365-0.947-2.236-2.558-2.236
		C14.024,67.137,13.792,67.146,13.522,67.166z"/>
	<path fill="#FFFFFF" d="M22.497,65.946c2.009,0,3.525,1.384,3.525,3.495c0,2.033-1.516,3.497-3.525,3.497
		c-2.007,0-3.514-1.386-3.514-3.497C18.983,67.475,20.421,65.946,22.497,65.946z M22.497,71.823c1.421,0,2.27-1.045,2.27-2.382
		c0-1.405-0.995-2.383-2.27-2.383c-1.294,0-2.259,0.978-2.259,2.383C20.238,70.797,21.233,71.823,22.497,71.823z"/>
	<path fill="#FFFFFF" d="M27.39,66.052h1.197l2.308,3.168l2.201-3.168h1.121v6.778h-1.179v-4.898l-2.134,3.012H30.73l-2.153-2.984
		v4.871H27.39V66.052z"/>
	<path fill="#FFFFFF" d="M38.074,66.032h1.043l2.858,6.798H40.71l-0.706-1.733h-2.887l-0.705,1.733h-1.198L38.074,66.032z
		 M37.572,69.983h1.979l-0.984-2.411L37.572,69.983z"/>
	<path fill="#FFFFFF" d="M43.13,66.052h1.188v6.778H43.13V66.052z"/>
	<path fill="#FFFFFF" d="M51.164,72.83l-3.719-4.696v4.696h-1.11v-6.778h0.947L51,70.769v-4.717h1.109v6.778H51.164z"/>
	<path fill="#FFFFFF" d="M56.025,66.052h1.197l2.308,3.168l2.202-3.168h1.12v6.778h-1.178v-4.898l-2.134,3.012h-0.174l-2.153-2.984
		v4.871h-1.187V66.052z"/>
	<path fill="#FFFFFF" d="M64.72,66.052h3.91v1.114h-2.723v1.685h2.433v1.114h-2.433v1.753h2.82v1.112H64.72V66.052z"/>
	<path fill="#FFFFFF" d="M75.098,72.83l-3.719-4.696v4.696H70.27v-6.778h0.946l3.718,4.717v-4.717h1.109v6.778H75.098z"/>
	<path fill="#FFFFFF" d="M79.902,66.032h1.043l2.858,6.798h-1.266l-0.706-1.733h-2.887l-0.704,1.733h-1.198L79.902,66.032z
		 M79.4,69.983h1.979l-0.984-2.411L79.4,69.983z"/>
	<path fill="#FFFFFF" d="M84.814,66.052h0.125c0.405,0,1.371-0.03,1.864-0.03c2.704,0,3.795,1.561,3.795,3.352
		c0,1.908-1.294,3.478-3.873,3.478c-0.406,0-1.159-0.021-1.777-0.021h-0.135V66.052z M86.001,67.166v4.552
		c0.329,0.019,0.598,0.019,0.762,0.019c1.632,0,2.578-0.929,2.578-2.363c0-1.365-0.946-2.236-2.558-2.236
		C86.504,67.137,86.272,67.146,86.001,67.166z"/>
	<path fill="#FFFFFF" d="M93.723,66.032h1.043l2.858,6.798h-1.266l-0.705-1.733h-2.887l-0.705,1.733h-1.198L93.723,66.032z
		 M93.221,69.983H95.2l-0.984-2.411L93.221,69.983z"/>
	<path fill-rule="evenodd" clip-rule="evenodd" fill="#FFFFFF" d="M28.112,5.208c0.175-0.557,0.175-0.557,1.393,0.33
		c-0.047-0.257-0.092-0.494-0.133-0.73c-0.004-0.021,0.023-0.048,0.071-0.142c0.213,0.069,0.439,0.142,0.69,0.223
		c0.706-0.316,0.797-0.343,1.033,0.478c0.461,1.609,0.93,3.233,1.183,4.885c0.952,6.219,1.837,12.45,2.707,18.683
		c0.322,2.312,0.556,4.638,0.777,6.962c0.06,0.627,0.251,0.916,0.901,0.945c1.205,0.056,2.438,0.056,3.513,1.016
		c-0.27,0.68,0.05,1.593-0.941,2.197c-0.561,0.342-0.773,1.216-1.544,1.461c-0.051,0.016-0.007,0.335-0.007,0.514
		c-1.257,0.273-1.271,0.274-1.158,1.566c0.341,3.89,0.761,7.775,1.015,11.67c0.126,1.948-0.047,3.916-0.088,6.071
		c-0.567-0.476-0.934-0.532-1.136,0.281c-0.167-0.429-0.257-0.662-0.348-0.897c-0.055,0.002-0.108,0.004-0.162,0.006
		c-0.039,0.734-0.078,1.468-0.116,2.203c-0.045,0.004-0.09,0.008-0.135,0.012c-0.133-0.343-0.265-0.686-0.433-1.121
		c-0.331,0.234-0.596,0.421-0.691,0.488c-0.52-0.11-0.903-0.16-1.262-0.279c-0.354-0.117-0.686-0.305-1.223-0.554
		c-0.212,0.501-0.506,1.191-0.879,2.069c-0.176-0.428-0.361-0.705-0.401-0.999c-0.605-4.489-1.208-8.978-1.775-13.471
		c-0.268-2.12-0.443-4.252-0.71-6.371c-0.026-0.212-0.404-0.549-0.613-0.545c-3.325,0.062-6.649,0.155-9.972,0.292
		c-0.261,0.011-0.633,0.347-0.74,0.617c-1.376,3.45-2.721,6.912-4.058,10.379c-0.694,1.801-1.344,3.617-2.051,5.412
		c-0.081,0.203-0.389,0.422-0.612,0.446c-1.299,0.139-2.607,0.187-3.905,0.336c-1.126,0.132-2.237-0.201-2.928-0.892
		c-1.042-1.042-2.293-2.014-2.419-3.777c-0.172-2.404,0.11-4.732,0.802-7.005c0.777-2.552,1.682-5.063,2.527-7.593
		c0.053-0.161,0.145-0.362,0.093-0.494c-0.417-1.071,0.269-1.732,0.78-2.534c0.524-0.821,0.81-1.796,1.195-2.705
		c2.229-5.275,4.388-10.581,6.711-15.814c1.561-3.517,3.273-6.971,5.07-10.373c0.997-1.887,2.346-3.586,4.317-4.594
		c0.616-0.315,1.332-0.474,2.021-0.593c0.646-0.112,1.337-0.147,1.497,0.8c0.027,0.161,0.311,0.31,0.504,0.404
		C26.987,4.725,27.521,4.945,28.112,5.208z M19.272,36.257c0.343,0.033,0.533,0.067,0.723,0.067
		c1.988,0.002,3.975-0.009,5.962,0.001c1.767,0.01,1.765,0.02,1.595-1.771c-0.468-4.926-0.935-9.851-1.401-14.776
		c-0.023-0.235-0.037-0.47-0.075-0.951C23.761,24.758,21.542,30.441,19.272,36.257z"/>
	<path fill-rule="evenodd" clip-rule="evenodd" fill="#FFFFFF" d="M108.988,38.197c1.463-0.854,2.724-1.606,4-2.331
		c1.406-0.797,2.816-1.586,4.244-2.343c0.52-0.274,0.799-0.59,0.85-1.223c0.268-3.324,0.581-6.643,0.896-9.962
		c0.183-1.925,0.398-3.846,0.602-5.797c-1.142-0.168-2.279-0.228-3.35-0.53c-0.756-0.212-1.506-0.653-2.103-1.172
		c-0.654-0.569-0.425-1.147,0.435-1.236c1.496-0.153,2.999-0.299,4.5-0.321c0.799-0.012,1.137-0.322,1.246-1.045
		c0.35-2.308,0.683-4.619,1.067-6.921c0.182-1.092,0.387-2.189,0.719-3.243c0.402-1.285,1.457-1.83,2.719-1.998
		c1.578-0.21,3.119,0.026,4.602,0.559c0.999,0.359,1.199,0.84,1.146,1.902c-0.037,0.766,0.098,1.541,0.043,2.304
		c-0.17,2.442-0.379,4.883-0.603,7.322c-0.114,1.247-0.14,1.209,1.067,1.284c1.754,0.109,3.527,0.141,5.176,0.883
		c0.279,0.125,0.545,0.277,0.948,0.485c-0.741,0.6-1.21,1.291-2.241,1.297c-1.59,0.009-3.176,0.211-4.765,0.271
		c-0.637,0.023-0.754,0.394-0.806,0.873c-0.121,1.105-0.216,2.213-0.343,3.317c-0.521,4.5-1.011,9.003-1.586,13.496
		c-0.585,4.578-1.262,9.145-1.89,13.716c-0.383,2.793-0.746,5.591-1.133,8.384c-0.055,0.386-0.194,0.76-0.318,1.23
		c-0.209-0.119-0.332-0.189-0.512-0.294c-0.074,0.185-0.157,0.389-0.309,0.761c-0.389-0.573-0.697-1.027-1.16-1.706
		c0.037,0.515,0.057,0.815,0.077,1.108c-0.309,0.08-0.65,0.17-1.079,0.28c-0.172-0.296-0.368-0.631-0.595-1.022
		c-0.119,0.15-0.237,0.303-0.416,0.529c-0.082-0.459-0.147-0.826-0.213-1.193c-0.044-0.003-0.089-0.005-0.134-0.007
		c-0.078,0.28-0.154,0.56-0.293,1.066c-0.236-0.622-0.406-1.07-0.599-1.583c-0.127,0.112-0.262,0.23-0.46,0.404
		c-0.086-0.324-0.153-0.578-0.274-1.037c-0.186,0.382-0.286,0.586-0.388,0.797c-0.036-0.013-0.11-0.02-0.119-0.047
		c-0.102-0.319-0.237-0.637-0.281-0.967c-0.618-4.609-0.333-9.218,0.091-13.822c0.063-0.676,0.107-1.353,0.175-2.218
		c-0.438,0.246-0.721,0.397-0.997,0.563c-2.288,1.367-4.588,2.716-6.847,4.13c-0.343,0.215-0.62,0.713-0.709,1.128
		c-0.938,4.343-2.938,8.013-6.791,10.387c-1.771,1.091-3.881,1.138-5.849,0.753c-2.181-0.427-3.784-2.821-2.219-5.658
		c1.683-3.053,4.247-5.237,6.969-7.266c0.627-0.467,0.963-0.942,0.973-1.749c0.027-2.135,0.134-4.269,0.197-6.404
		c0.011-0.385-0.042-0.771-0.271-1.234c-0.279,0.362-0.567,0.719-0.836,1.089c-2.757,3.789-5.448,7.629-8.289,11.353
		c-1.752,2.297-3.875,4.226-6.622,5.353c-3.531,1.449-8.691-0.876-9.545-4.951c-0.522-2.496-0.357-4.934,0.133-7.371
		c0.561-2.788,1.308-5.531,2.683-8.051c0.31-0.57,0.686-1.109,1.078-1.627c0.601-0.792,1.41-1.064,2.403-0.966
		c1.076,0.107,2.144,0.147,3.085,0.797c1.164,0.804,1.496,1.873,1.124,3.246c-0.662,2.439-1.273,4.894-1.842,7.357
		c-0.448,1.938-0.819,3.896-1.188,5.853c-0.105,0.553-0.123,1.134-0.106,1.701c0.034,1.17,0.699,1.508,1.683,0.839
		c0.585-0.396,1.161-0.833,1.651-1.34c3.728-3.856,6.909-8.137,9.777-12.665c1.747-2.759,3.544-5.486,5.353-8.203
		c0.698-1.048,1.554-1.933,2.754-2.469c1.413-0.63,3.713,0.946,3.991,1.999c0.097,0.365,0.006,0.878-0.195,1.204
		c-0.354,0.576-0.373,1.136-0.353,1.779c0.088,2.993,0.119,5.986,0.168,8.979C108.993,37.334,108.988,37.665,108.988,38.197z
		 M101.626,48.35c-1.764,0.915-2.931,2.383-3.854,4.064c-0.249,0.45-0.046,0.805,0.517,0.746c0.324-0.034,0.677-0.126,0.946-0.302
		C100.838,51.81,101.264,50.104,101.626,48.35z"/>
	<path fill-rule="evenodd" clip-rule="evenodd" fill="#FFFFFF" d="M158.745,64.578c-0.654-0.13-0.476-0.641-0.412-1.023
		c0.364-2.191,0.771-4.376,1.148-6.563c0.556-3.224,1.105-6.447,1.653-9.673c0.064-0.385,0.103-0.773,0.181-1.377
		c-0.384,0.406-0.638,0.658-0.872,0.929c-1.421,1.636-2.904,3.184-4.844,4.243c-1.138,0.623-2.238,0.735-3.413,0.238
		c-1.89-0.798-3.48-1.945-4.247-3.938c-0.229-0.594-0.26-1.262-0.326-1.609c-0.678,0.589-1.517,1.293-2.323,2.03
		c-1.65,1.508-3.392,2.826-5.635,3.367c-2.728,0.66-7.493-1.119-8.411-5.119c-0.637-2.773-0.334-5.473,0.259-8.198
		c0.558-2.564,1.283-5.063,2.526-7.385c0.305-0.572,0.684-1.111,1.08-1.625c0.606-0.783,1.418-1.056,2.41-0.947
		c1.044,0.115,2.084,0.138,3.008,0.763c1.209,0.816,1.556,1.872,1.172,3.294c-0.657,2.44-1.266,4.895-1.834,7.357
		c-0.443,1.911-0.814,3.839-1.174,5.768c-0.113,0.61-0.137,1.249-0.111,1.87c0.043,1.028,0.73,1.43,1.545,0.824
		c0.998-0.739,2.004-1.533,2.793-2.482c2.289-2.752,4.52-5.557,6.677-8.415c1.379-1.826,2.485-3.862,3.892-5.666
		c2.169-2.785,4.918-4.988,7.854-6.892c3.378-2.191,8.311,0.017,9.155,3.953c0.155,0.727-0.275,1.139-0.797,1.458
		c-0.94,0.576-1.925,1.083-2.87,1.654c-2.307,1.394-3.978,3.476-5.705,5.47c-2.161,2.495-4.11,5.152-5.337,8.262
		c-0.287,0.731-0.504,1.49-0.613,2.322c0.226-0.203,0.473-0.385,0.671-0.611c2.88-3.265,5.757-6.53,8.624-9.806
		c0.68-0.775,0.996-1.865,2.078-2.292c0.861-0.34,1.712-0.611,2.635-0.283c0.67,0.239,1.189,0.545,1.237,1.415
		c0.037,0.708,0.433,1.397,0.464,2.104c0.042,0.95-0.058,1.918-0.197,2.864c-0.639,4.276-1.273,8.554-1.983,12.819
		c-0.677,4.07-1.522,8.113-2.144,12.192c-0.436,2.865-0.592,5.774-0.932,8.655c-0.06,0.501-0.41,0.969-0.615,1.431
		c-0.963,0.036-1.92-0.122-2.729,0.679c-0.542,0.538-1.244,0.92-1.902,1.327c-0.146,0.089-0.438,0.04-0.614-0.044
		c-0.912-0.434-1.494-1.211-1.64-2.16c-0.251-1.625-0.338-3.273-0.509-5.059c0.313,0.141,0.459,0.207,0.6,0.271
		c0.313-0.507-0.3-1.377,0.801-1.55c-0.173,0.744-0.334,1.442-0.545,2.345c0.343-0.17,0.533-0.207,0.551-0.283
		c0.273-1.178,0.602-2.353,0.073-3.557c-0.067-0.152,0.056-0.398,0.116-0.592c0.052-0.175,0.137-0.34,0.208-0.508
		c-0.071-0.039-0.143-0.079-0.214-0.117c-0.396,0.582-0.793,1.167-1.189,1.751c-0.066-0.024-0.135-0.048-0.2-0.071
		c0.117-1.077,0.234-2.154,0.356-3.283c0.116,0.106,0.207,0.19,0.407,0.373c0.058-0.359,0.104-0.642,0.15-0.925
		c0.114,0.663,0.23,1.323,0.373,2.146c0.356-0.507,0.567-0.804,0.776-1.101c-0.156-0.469-0.139-0.936-0.161-1.401
		c-0.021-0.431-0.083-0.861-0.128-1.292c-0.105,0.014-0.213,0.027-0.318,0.041c0,0.373,0,0.746,0,1.361
		c-0.207-0.407-0.299-0.59-0.475-0.936C158.775,63.906,158.76,64.243,158.745,64.578z M160.707,64.216
		c-0.081,0.021-0.163,0.042-0.244,0.063c-0.028,0.533-0.032,1.067-0.089,1.598c-0.112,1.076-0.249,2.149-0.384,3.225
		c-0.04,0.328-0.049,0.674-0.164,0.978c-0.439,1.166-0.804,2.304,0.462,3.33c0.061-0.246,0.135-0.449,0.156-0.658
		c0.128-1.187,0.21-2.338,0.065-3.566c-0.17-1.469,0.266-3.006,0.414-4.516C160.938,64.526,160.783,64.367,160.707,64.216z
		 M158.916,72.266c-0.067,0.009-0.136,0.017-0.203,0.024c0,1.001,0,2.001,0,3.001c0.067-0.001,0.136-0.004,0.203-0.007
		C158.916,74.278,158.916,73.272,158.916,72.266z"/>
	<path fill-rule="evenodd" clip-rule="evenodd" fill="#FFFFFF" d="M236.143,38.634c-0.066-0.281-0.112-0.474-0.179-0.753
		c-1.384,1.872-2.712,3.665-4.068,5.502c0.107,0.182,0.228,0.388,0.28,0.474c-0.41,0.458-0.777,0.854-1.126,1.266
		c-2.613,3.091-5.549,5.799-9.276,7.475c-1.082,0.484-2.232,0.846-3.521,0.565c-0.797-0.173-1.676,0.066-2.518,0.048
		c-0.488-0.013-0.973-0.172-1.492-0.271c-0.508,0.85-1.227,0.137-1.784,0.008c-1.503-0.341-2.29-1.641-3.017-2.829
		c-0.67-1.093-1.041-2.371-1.549-3.565c-0.063-0.147-0.15-0.284-0.59-0.725c-0.089,0.248-0.113,0.555-0.277,0.734
		c-1.623,1.772-3.345,3.49-5.658,4.264c-3.023,1.012-5.977,0.761-8.432-1.498c-1.496-1.377-1.881-3.324-2.084-5.271
		c-0.074-0.699-0.012-1.412-0.012-2.118c-0.072-0.024-0.146-0.049-0.22-0.074c-0.164,0.233-0.325,0.468-0.491,0.699
		c-1.59,2.207-3.115,4.465-4.804,6.594c-0.649,0.818-1.609,1.445-2.53,1.979c-2.481,1.438-4.219,1.188-6.348-0.715
		c-1.587-1.417-2.431-3.158-2.584-5.289c-0.195-2.726,0.101-5.41,0.62-8.065c0.542-2.763,1.286-5.475,2.673-7.963
		c1.221-2.19,3.037-3.399,5.563-3.467c0.217-0.006,0.464,0.021,0.646,0.122c0.72,0.395,1.416,0.832,2.125,1.243
		c0.493,0.287,0.78,0.683,0.631,1.267c-0.28,1.096-0.621,2.176-0.884,3.276c-0.961,4.03-1.912,8.064-2.837,12.104
		c-0.105,0.463-0.086,0.973-0.021,1.446c0.037,0.268,0.281,0.507,0.434,0.76c0.224-0.146,0.519-0.238,0.658-0.44
		c1.547-2.24,3.116-4.469,4.592-6.758c1.938-3.003,3.764-6.081,5.701-9.084c1.465-2.274,3.13-2.712,6.186-1.902
		c1.072,0.284,1.336,1.027,1.122,2.135c-0.671,3.462-1.408,6.917-1.915,10.404c-0.342,2.353-0.672,4.748-0.158,7.146
		c0.242,1.129,0.75,1.424,1.607,0.618c1.61-1.513,3.093-3.162,4.602-4.778c0.482-0.518,0.84-1.154,1.33-1.663
		c1.631-1.697,2.059-4.021,3.155-5.992c1.878-3.374,4.305-6.214,7.837-7.929c0.832-0.405,1.748-0.816,2.645-0.862
		c1.301-0.065,2.594-0.28,3.876,0.769c0.868,0.709,1.249,1.262,1.175,2.273c-0.006,0.101,0.034,0.234,0.102,0.307
		c1.589,1.715,1.061,3.639,0.354,5.436c-1.142,2.905-3.482,4.438-6.496,4.822c-1.45,0.187-2.949,0.06-4.42-0.02
		c-0.614-0.033-0.849,0.117-0.996,0.712c-0.32,1.284-0.367,2.542,0.174,3.761c0.889,2,3.191,2.965,5.766,2.622
		c2.855-0.382,5.148-1.842,7.039-3.837c2.559-2.699,4.905-5.6,7.332-8.424c0.722-0.842,1.393-1.726,2.108-2.574
		c0.249-0.296,0.558-0.544,0.828-0.803c0.636,0.474,0.735,1.948,0.284,2.589c-0.469,0.669-0.887,1.373-1.326,2.062
		c0.088,0.059,0.178,0.118,0.266,0.177c0.563-0.83,1.123-1.661,1.746-2.583C237.802,35.781,237.188,37.237,236.143,38.634z
		 M215.311,36.576c2.73-1.672,5.746-3.02,7.101-6.31C219.841,29.507,216.865,32.333,215.311,36.576z M233.49,39.187
		c-0.527,0.938-0.992,1.769-1.457,2.596c0.066,0.054,0.134,0.108,0.201,0.162c0.25-0.262,0.518-0.512,0.748-0.792
		c0.193-0.238,0.286-0.627,0.524-0.75C234.307,39.996,233.895,39.661,233.49,39.187z M221.17,27.535
		c-0.714-0.41-1.46-0.206-1.926,0.422C219.854,27.824,220.442,27.694,221.17,27.535z M235.652,36.101
		c-0.078-0.049-0.155-0.098-0.232-0.147c-0.342,0.573-0.682,1.146-1.023,1.717c0.109,0.062,0.219,0.124,0.328,0.185
		C235.032,37.271,235.342,36.686,235.652,36.101z"/>
	<path fill-rule="evenodd" clip-rule="evenodd" fill="#FFFFFF" d="M69.668,57.423c-0.217-0.143-0.343-0.227-0.473-0.312
		c-0.082,0.2-0.163,0.398-0.309,0.758c-0.391-0.568-0.702-1.022-1.176-1.714c0.06,0.56,0.095,0.884,0.125,1.156
		c-0.307,0.056-0.653,0.117-1.123,0.203c-0.155-0.256-0.369-0.607-0.619-1.02c-0.112,0.201-0.211,0.382-0.376,0.679
		c-0.084-0.51-0.151-0.909-0.217-1.308c-0.044-0.008-0.089-0.016-0.133-0.025c-0.085,0.293-0.168,0.586-0.317,1.104
		c-0.237-0.654-0.406-1.115-0.666-1.83c-0.087,0.306-0.141,0.493-0.195,0.682c-0.064-0.039-0.128-0.078-0.192-0.117
		c-0.075-0.255-0.149-0.511-0.275-0.939c-0.176,0.367-0.282,0.589-0.507,1.059c-0.143-0.771-0.271-1.306-0.338-1.848
		c-0.56-4.529-0.206-9.045,0.185-13.563c0.343-3.975,0.573-7.959,0.925-11.933c0.338-3.83,0.768-7.653,1.157-11.479
		c0.013-0.136,0.018-0.274,0.028-0.432c-1.153-0.17-2.291-0.231-3.362-0.533c-0.756-0.212-1.506-0.653-2.102-1.173
		c-0.653-0.569-0.421-1.146,0.44-1.234c1.496-0.153,2.998-0.298,4.499-0.32c0.799-0.012,1.133-0.324,1.243-1.046
		c0.351-2.307,0.686-4.616,1.069-6.917c0.183-1.092,0.389-2.189,0.717-3.243c0.388-1.245,1.4-1.81,2.633-1.987
		c1.635-0.235,3.231-0.002,4.762,0.576c0.807,0.305,1.228,0.871,1.097,1.866c-0.121,0.921,0.082,1.88,0.016,2.813
		c-0.165,2.328-0.396,4.651-0.612,6.976c-0.101,1.085-0.106,1.057,0.981,1.122c1.782,0.107,3.582,0.136,5.26,0.881
		c0.181,0.079,0.36,0.165,0.531,0.263c0.115,0.067,0.213,0.162,0.361,0.276c-0.713,0.683-1.326,1.28-2.414,1.263
		c-1.5-0.024-3.002,0.203-4.506,0.255c-0.695,0.023-0.771,0.458-0.827,0.95c-0.122,1.075-0.215,2.154-0.336,3.229
		c-0.396,3.51-0.758,7.022-1.206,10.525c-0.606,4.745-1.279,9.48-1.922,14.221c-0.494,3.639-0.981,7.277-1.486,10.916
		C69.956,56.604,69.798,56.973,69.668,57.423z"/>
	<path fill-rule="evenodd" clip-rule="evenodd" fill="#FFFFFF" d="M63.796,24.604c-1.861,1.583-3.693,2.797-5.076,4.401
		c-1.973,2.286-3.764,4.764-5.361,7.331c-1.951,3.137-2.68,6.732-3.132,10.369c-0.271,2.177-0.529,4.355-0.804,6.53
		c-0.118,0.938-1.584,1.659-2.442,1.149c-0.946,0.617-1.938,1.224-2.882,1.897c-0.543,0.387-1.036,0.237-1.361-0.147
		c-0.59-0.701-1.19-1.391-1.103-2.477c0.359-4.487,0.613-8.984,0.968-13.472c0.313-3.953,0.939-7.86,2.131-11.647
		c0.466-1.478,1.025-2.964,1.798-4.297c1.097-1.889,2.798-3.035,5.074-3.079c1.479-0.028,2.386,0.725,2.29,2.216
		c-0.109,1.69-0.497,3.364-0.803,5.038c-0.175,0.961-0.427,1.909-0.645,2.862c0.157,0.11,0.314,0.221,0.471,0.331
		c0.092-0.235,0.129-0.518,0.286-0.696c1.959-2.231,4.031-4.351,6.715-5.709c0.792-0.401,1.707-0.584,2.584-0.781
		C62.842,24.348,63.233,24.516,63.796,24.604z"/>
	<path fill-rule="evenodd" clip-rule="evenodd" fill="#FFFFFF" d="M241.992,48.053c-0.078,0.487-0.081,1.109-0.284,1.658
		c-0.94,2.53-4.274,3.245-6.376,1.361c-0.553-0.497-1.184-1.056-1.432-1.719c-0.566-1.508,0.804-3.842,2.387-4.13
		c1.247-0.229,2.53-0.296,3.8-0.349c0.851-0.036,1.547,0.729,1.753,1.793C241.922,47.087,241.936,47.517,241.992,48.053z"/>
	<path fill-rule="evenodd" clip-rule="evenodd" fill="#FFFFFF" d="M145.674,20.243c-0.047,2.094-1.33,3.738-3.262,4.142
		c-0.977,0.205-1.851-0.061-2.47-0.772c-0.772-0.888-1.462-1.866-2.068-2.877c-0.478-0.798-0.103-1.557,0.532-2.13
		c1.371-1.236,3.001-1.906,4.84-2.01c0.983-0.055,1.827,0.588,2.066,1.558C145.484,18.837,145.557,19.546,145.674,20.243z"/>
	<path fill-rule="evenodd" clip-rule="evenodd" fill="#FFFFFF" d="M91.255,20.208c-0.033,2.135-1.332,3.794-3.307,4.186
		c-0.942,0.187-1.8-0.07-2.394-0.755c-0.789-0.911-1.496-1.912-2.112-2.949c-0.453-0.762-0.082-1.506,0.524-2.061
		c1.387-1.269,3.046-1.94,4.913-2.034c0.977-0.048,1.798,0.623,2.032,1.605C91.069,18.858,91.144,19.538,91.255,20.208z"/>
</g>
</svg>
