<?xml version="1.0" encoding="utf-8"?>
<!-- Generator: Adobe Illustrator 16.0.0, SVG Export Plug-In . SVG Version: 6.00 Build 0)  -->
<!DOCTYPE svg PUBLIC "-//W3C//DTD SVG 1.1//EN" "http://www.w3.org/Graphics/SVG/1.1/DTD/svg11.dtd">
<svg version="1.1" id="Layer_1" xmlns="http://www.w3.org/2000/svg" xmlns:xlink="http://www.w3.org/1999/xlink" x="0px" y="0px"
	 width="100.02px" height="32.02px" viewBox="0 0 100.02 32.02" enable-background="new 0 0 100.02 32.02" xml:space="preserve">
<g>
	<path fill="#020202" d="M0,27.114h0.459v1.105c0.112-0.088,0.283-0.156,0.475-0.156c0.535,0,0.854,0.382,0.854,0.91
		c0,0.589-0.396,0.967-1.025,0.967c-0.296,0-0.599-0.096-0.763-0.199V27.114z M0.459,28.663v0.761
		c0.1,0.063,0.199,0.091,0.327,0.091c0.287,0,0.511-0.187,0.511-0.509c0-0.343-0.211-0.513-0.471-0.513
		C0.667,28.493,0.535,28.577,0.459,28.663z"/>
	<path fill="#020202" d="M3.14,29.896c-0.263,0.64-0.431,0.795-0.694,0.795c-0.164,0-0.283-0.063-0.387-0.139l0.147-0.347
		c0.048,0.029,0.115,0.064,0.188,0.064c0.116,0,0.2-0.092,0.275-0.279l0.04-0.095l-0.83-1.788H2.43l0.419,0.978
		c0.036,0.087,0.06,0.171,0.088,0.259C2.952,29.26,2.969,29.172,3,29.081l0.323-0.973h0.523L3.14,29.896z"/>
	<path fill="#020202" d="M5.099,27.114H5.15c0.167,0,0.566-0.013,0.77-0.013c1.117,0,1.569,0.64,1.569,1.376
		c0,0.783-0.535,1.428-1.601,1.428c-0.168,0-0.479-0.009-0.734-0.009H5.099V27.114z M5.589,27.571v1.868
		c0.136,0.008,0.247,0.008,0.315,0.008c0.674,0,1.065-0.382,1.065-0.97c0-0.561-0.392-0.918-1.058-0.918
		C5.797,27.559,5.701,27.562,5.589,27.571z"/>
	<path fill="#020202" d="M9.299,27.07c0.83,0,1.457,0.567,1.457,1.435c0,0.835-0.627,1.436-1.457,1.436s-1.453-0.568-1.453-1.436
		C7.846,27.698,8.44,27.07,9.299,27.07z M9.299,29.482c0.587,0,0.938-0.429,0.938-0.978c0-0.576-0.412-0.979-0.938-0.979
		c-0.535,0-0.934,0.402-0.934,0.979C8.365,29.061,8.776,29.482,9.299,29.482z"/>
	<path fill="#020202" d="M11.321,27.114h0.494l0.954,1.3l0.91-1.3h0.463v2.782h-0.487v-2.011l-0.882,1.235h-0.072l-0.89-1.225v2
		h-0.49V27.114z"/>
	<path fill="#020202" d="M15.736,27.106h0.432l1.182,2.79h-0.523l-0.291-0.712h-1.193l-0.291,0.712h-0.495L15.736,27.106z
		 M15.529,28.727h0.818l-0.407-0.99L15.529,28.727z"/>
	<path fill="#020202" d="M17.826,27.114h0.491v2.782h-0.491V27.114z"/>
	<path fill="#020202" d="M21.147,29.896l-1.537-1.929v1.929h-0.459v-2.782h0.392l1.536,1.936v-1.936h0.458v2.782H21.147z"/>
	<path fill="#020202" d="M23.156,27.114h0.494l0.954,1.3l0.91-1.3h0.463v2.782H25.49v-2.011l-0.882,1.235h-0.071l-0.891-1.225v2
		h-0.49V27.114z"/>
	<path fill="#020202" d="M26.75,27.114h1.616v0.457H27.24v0.691h1.006v0.457H27.24v0.72h1.166v0.457H26.75V27.114z"/>
	<path fill="#020202" d="M31.039,29.896l-1.537-1.929v1.929h-0.458v-2.782h0.392l1.536,1.936v-1.936h0.458v2.782H31.039z"/>
	<path fill="#020202" d="M33.025,27.106h0.431l1.182,2.79h-0.523l-0.291-0.712H32.63l-0.291,0.712h-0.495L33.025,27.106z
		 M32.817,28.727h0.818l-0.407-0.99L32.817,28.727z"/>
	<path fill="#020202" d="M35.055,27.114h0.052c0.168,0,0.567-0.013,0.771-0.013c1.117,0,1.568,0.64,1.568,1.376
		c0,0.783-0.534,1.428-1.6,1.428c-0.169,0-0.479-0.009-0.735-0.009h-0.056V27.114z M35.546,27.571v1.868
		c0.136,0.008,0.247,0.008,0.315,0.008c0.674,0,1.065-0.382,1.065-0.97c0-0.561-0.392-0.918-1.058-0.918
		C35.754,27.559,35.658,27.562,35.546,27.571z"/>
	<path fill="#020202" d="M38.737,27.106h0.432l1.181,2.79h-0.522l-0.292-0.712h-1.193l-0.291,0.712h-0.495L38.737,27.106z
		 M38.529,28.727h0.818l-0.406-0.99L38.529,28.727z"/>
	<path fill-rule="evenodd" clip-rule="evenodd" fill="#020202" d="M11.619,2.138c0.072-0.229,0.072-0.229,0.576,0.136
		c-0.02-0.105-0.038-0.203-0.055-0.3c-0.002-0.008,0.009-0.02,0.029-0.058c0.088,0.029,0.182,0.058,0.285,0.092
		c0.292-0.13,0.329-0.141,0.427,0.196c0.19,0.661,0.385,1.328,0.489,2.005c0.394,2.553,0.759,5.111,1.118,7.669
		c0.134,0.949,0.229,1.904,0.321,2.858c0.024,0.257,0.104,0.375,0.373,0.388c0.498,0.022,1.007,0.023,1.451,0.416
		c-0.111,0.279,0.021,0.654-0.389,0.902c-0.232,0.14-0.319,0.499-0.638,0.599c-0.021,0.007-0.003,0.138-0.003,0.211
		c-0.52,0.112-0.526,0.113-0.479,0.643c0.141,1.598,0.314,3.192,0.419,4.791c0.052,0.8-0.02,1.607-0.036,2.492
		c-0.234-0.195-0.386-0.219-0.47,0.115c-0.069-0.176-0.106-0.271-0.145-0.368c-0.022,0-0.044,0.001-0.066,0.002
		c-0.016,0.302-0.032,0.603-0.048,0.904c-0.019,0.001-0.037,0.003-0.056,0.005c-0.055-0.141-0.11-0.281-0.179-0.46
		c-0.138,0.097-0.247,0.173-0.286,0.2c-0.215-0.045-0.373-0.066-0.521-0.114c-0.146-0.048-0.284-0.125-0.506-0.228
		c-0.088,0.206-0.209,0.489-0.363,0.85c-0.073-0.176-0.149-0.289-0.166-0.41c-0.25-1.844-0.499-3.686-0.733-5.529
		c-0.111-0.87-0.184-1.745-0.294-2.615c-0.011-0.087-0.167-0.226-0.253-0.224c-1.375,0.025-2.749,0.063-4.122,0.119
		c-0.107,0.005-0.262,0.144-0.306,0.254c-0.569,1.416-1.125,2.837-1.678,4.261c-0.286,0.738-0.555,1.484-0.847,2.221
		c-0.034,0.084-0.161,0.174-0.253,0.184c-0.537,0.057-1.078,0.076-1.614,0.138c-0.466,0.054-0.925-0.083-1.21-0.366
		c-0.431-0.428-0.948-0.826-1-1.551c-0.071-0.986,0.045-1.941,0.331-2.875c0.321-1.047,0.695-2.078,1.045-3.116
		c0.021-0.066,0.06-0.149,0.038-0.203c-0.172-0.439,0.111-0.711,0.322-1.04c0.217-0.337,0.335-0.737,0.494-1.111
		c0.922-2.165,1.813-4.343,2.773-6.491c0.646-1.444,1.354-2.861,2.096-4.258c0.412-0.775,0.97-1.473,1.785-1.886
		c0.254-0.13,0.55-0.195,0.835-0.244c0.267-0.045,0.552-0.06,0.618,0.328c0.012,0.066,0.129,0.127,0.209,0.166
		C11.154,1.939,11.375,2.03,11.619,2.138z M7.966,14.883c0.142,0.014,0.221,0.027,0.299,0.027c0.821,0.001,1.643-0.004,2.464,0.001
		c0.73,0.004,0.729,0.008,0.659-0.727c-0.193-2.022-0.386-4.043-0.579-6.066c-0.009-0.096-0.015-0.192-0.03-0.39
		C9.821,10.163,8.904,12.496,7.966,14.883z"/>
	<path fill-rule="evenodd" clip-rule="evenodd" fill="#020202" d="M45.047,15.679c0.604-0.351,1.126-0.659,1.653-0.957
		c0.581-0.328,1.164-0.651,1.754-0.961c0.215-0.113,0.33-0.242,0.351-0.502c0.111-1.364,0.24-2.727,0.371-4.089
		c0.075-0.79,0.165-1.579,0.249-2.38c-0.472-0.069-0.942-0.093-1.385-0.217c-0.313-0.087-0.622-0.269-0.869-0.481
		c-0.271-0.233-0.176-0.471,0.18-0.507c0.619-0.063,1.24-0.124,1.86-0.132c0.33-0.005,0.47-0.132,0.516-0.429
		c0.144-0.948,0.281-1.896,0.44-2.841c0.075-0.448,0.16-0.899,0.297-1.331c0.167-0.528,0.603-0.751,1.124-0.82
		c0.652-0.087,1.289,0.01,1.901,0.229c0.413,0.147,0.496,0.345,0.475,0.781c-0.016,0.314,0.04,0.632,0.018,0.945
		c-0.07,1.002-0.157,2.004-0.249,3.005c-0.047,0.512-0.058,0.497,0.441,0.527c0.725,0.045,1.458,0.058,2.139,0.363
		c0.115,0.051,0.226,0.114,0.392,0.199c-0.306,0.246-0.499,0.53-0.926,0.532c-0.657,0.003-1.313,0.086-1.97,0.111
		c-0.263,0.01-0.312,0.161-0.333,0.358c-0.05,0.454-0.089,0.909-0.142,1.362c-0.215,1.847-0.418,3.695-0.655,5.54
		c-0.242,1.879-0.521,3.754-0.78,5.63c-0.159,1.146-0.31,2.294-0.469,3.441c-0.022,0.157-0.08,0.312-0.132,0.505
		c-0.086-0.049-0.137-0.078-0.211-0.121c-0.03,0.076-0.065,0.16-0.128,0.313c-0.16-0.234-0.288-0.421-0.479-0.699
		c0.015,0.211,0.023,0.334,0.032,0.455c-0.128,0.032-0.27,0.068-0.446,0.114c-0.071-0.121-0.151-0.259-0.246-0.419
		c-0.049,0.061-0.098,0.123-0.171,0.217c-0.034-0.188-0.062-0.34-0.089-0.49c-0.019-0.001-0.036-0.002-0.056-0.002
		c-0.031,0.114-0.063,0.229-0.121,0.437c-0.098-0.255-0.168-0.438-0.247-0.649c-0.053,0.047-0.108,0.094-0.19,0.166
		c-0.035-0.133-0.063-0.238-0.113-0.426c-0.077,0.156-0.118,0.24-0.16,0.327c-0.016-0.005-0.046-0.008-0.05-0.019
		c-0.042-0.132-0.098-0.262-0.116-0.396c-0.255-1.894-0.137-3.784,0.038-5.675c0.025-0.277,0.044-0.555,0.072-0.911
		c-0.181,0.102-0.298,0.164-0.412,0.231c-0.946,0.561-1.896,1.115-2.83,1.695c-0.142,0.089-0.256,0.294-0.293,0.463
		c-0.388,1.782-1.214,3.289-2.807,4.264c-0.732,0.448-1.604,0.467-2.418,0.31c-0.901-0.176-1.563-1.158-0.917-2.322
		c0.695-1.254,1.755-2.15,2.881-2.983c0.259-0.191,0.397-0.387,0.401-0.718c0.012-0.876,0.056-1.752,0.082-2.628
		c0.004-0.158-0.018-0.317-0.112-0.507c-0.115,0.149-0.234,0.295-0.346,0.446c-1.14,1.556-2.252,3.132-3.426,4.661
		c-0.725,0.942-1.602,1.734-2.737,2.197c-1.459,0.595-3.592-0.359-3.945-2.032c-0.216-1.025-0.147-2.025,0.056-3.026
		c0.231-1.145,0.54-2.271,1.108-3.305c0.128-0.234,0.284-0.455,0.446-0.668c0.248-0.325,0.582-0.437,0.993-0.396
		c0.444,0.044,0.886,0.06,1.274,0.327c0.481,0.33,0.619,0.769,0.465,1.333c-0.273,1.001-0.525,2.009-0.762,3.02
		c-0.185,0.795-0.338,1.599-0.49,2.402c-0.043,0.228-0.051,0.466-0.044,0.698c0.014,0.48,0.289,0.619,0.695,0.345
		c0.242-0.163,0.479-0.342,0.683-0.55c1.541-1.583,2.855-3.34,4.041-5.199c0.722-1.132,1.465-2.252,2.212-3.367
		c0.289-0.43,0.643-0.793,1.139-1.014c0.584-0.258,1.534,0.389,1.649,0.821c0.04,0.149,0.002,0.36-0.08,0.494
		c-0.146,0.236-0.154,0.466-0.146,0.73c0.037,1.228,0.049,2.458,0.069,3.686C45.049,15.325,45.047,15.461,45.047,15.679z
		 M42.004,19.846c-0.729,0.376-1.212,0.979-1.593,1.668c-0.103,0.186-0.02,0.332,0.213,0.308c0.134-0.015,0.28-0.052,0.392-0.124
		C41.678,21.267,41.854,20.567,42.004,19.846z"/>
	<path fill-rule="evenodd" clip-rule="evenodd" fill="#020202" d="M65.611,26.508c-0.27-0.053-0.196-0.264-0.17-0.42
		c0.15-0.899,0.318-1.797,0.475-2.694c0.23-1.323,0.457-2.646,0.684-3.97c0.026-0.158,0.042-0.318,0.074-0.565
		c-0.158,0.166-0.264,0.271-0.36,0.381c-0.587,0.671-1.2,1.307-2.002,1.742c-0.47,0.255-0.925,0.302-1.41,0.098
		c-0.781-0.328-1.438-0.8-1.755-1.618c-0.096-0.242-0.107-0.517-0.136-0.659c-0.28,0.241-0.627,0.53-0.96,0.833
		c-0.683,0.619-1.402,1.16-2.329,1.383c-1.127,0.27-3.097-0.46-3.477-2.102c-0.263-1.139-0.138-2.247,0.107-3.366
		c0.23-1.053,0.53-2.078,1.044-3.032c0.126-0.234,0.282-0.456,0.446-0.667c0.251-0.321,0.586-0.434,0.996-0.389
		c0.432,0.047,0.861,0.057,1.243,0.313c0.5,0.335,0.643,0.769,0.484,1.353c-0.271,1.002-0.522,2.01-0.758,3.02
		c-0.184,0.784-0.337,1.576-0.485,2.367c-0.047,0.251-0.057,0.514-0.046,0.768c0.018,0.423,0.302,0.588,0.639,0.339
		c0.412-0.304,0.828-0.63,1.154-1.019c0.946-1.13,1.868-2.281,2.76-3.455c0.569-0.75,1.027-1.584,1.608-2.326
		c0.896-1.143,2.032-2.047,3.246-2.829c1.396-0.899,3.435,0.007,3.784,1.623c0.064,0.298-0.114,0.468-0.329,0.598
		c-0.389,0.237-0.796,0.445-1.187,0.68C68,13.466,67.31,14.321,66.596,15.14c-0.894,1.024-1.699,2.115-2.206,3.392
		c-0.119,0.299-0.208,0.611-0.254,0.952c0.093-0.083,0.195-0.157,0.277-0.25c1.19-1.341,2.379-2.681,3.564-4.025
		c0.281-0.318,0.412-0.766,0.858-0.941c0.356-0.14,0.708-0.25,1.089-0.116c0.277,0.099,0.492,0.224,0.512,0.581
		c0.016,0.291,0.18,0.574,0.192,0.863c0.017,0.391-0.024,0.788-0.082,1.176c-0.264,1.755-0.526,3.511-0.819,5.263
		c-0.28,1.67-0.63,3.33-0.887,5.004c-0.18,1.177-0.244,2.371-0.385,3.553c-0.024,0.207-0.169,0.398-0.254,0.588
		c-0.398,0.015-0.794-0.051-1.128,0.279c-0.225,0.22-0.515,0.377-0.787,0.543c-0.06,0.037-0.181,0.018-0.254-0.018
		c-0.376-0.178-0.617-0.496-0.678-0.887c-0.104-0.666-0.14-1.344-0.21-2.076c0.129,0.059,0.189,0.085,0.248,0.111
		c0.129-0.208-0.124-0.565,0.331-0.636c-0.071,0.306-0.139,0.592-0.226,0.962c0.142-0.07,0.221-0.084,0.228-0.116
		c0.113-0.483,0.249-0.966,0.03-1.46c-0.027-0.063,0.023-0.163,0.048-0.242c0.021-0.072,0.057-0.14,0.087-0.209
		c-0.03-0.016-0.06-0.032-0.089-0.048c-0.164,0.239-0.328,0.479-0.491,0.718c-0.028-0.01-0.056-0.019-0.083-0.029
		c0.049-0.441,0.097-0.883,0.147-1.348c0.048,0.045,0.086,0.078,0.168,0.153c0.024-0.146,0.043-0.263,0.063-0.379
		c0.047,0.271,0.095,0.543,0.154,0.882c0.147-0.209,0.234-0.33,0.321-0.452c-0.065-0.192-0.058-0.384-0.067-0.575
		c-0.008-0.178-0.034-0.354-0.053-0.53c-0.044,0.005-0.088,0.011-0.132,0.017c0,0.152,0,0.307,0,0.559
		c-0.085-0.167-0.124-0.242-0.196-0.385C65.624,26.233,65.618,26.372,65.611,26.508z M66.423,26.36
		c-0.033,0.009-0.067,0.018-0.101,0.025c-0.012,0.219-0.014,0.438-0.037,0.656c-0.047,0.441-0.103,0.883-0.158,1.323
		c-0.018,0.135-0.021,0.276-0.068,0.401c-0.182,0.479-0.332,0.945,0.191,1.367c0.024-0.102,0.055-0.186,0.064-0.271
		c0.053-0.486,0.087-0.959,0.027-1.463c-0.071-0.604,0.109-1.234,0.17-1.854C66.519,26.487,66.454,26.421,66.423,26.36z
		 M65.683,29.664c-0.028,0.004-0.057,0.007-0.084,0.011c0,0.41,0,0.82,0,1.231c0.027-0.001,0.056-0.001,0.084-0.003
		C65.683,30.49,65.683,30.077,65.683,29.664z"/>
	<path fill-rule="evenodd" clip-rule="evenodd" fill="#020202" d="M97.602,15.859c-0.027-0.115-0.047-0.194-0.074-0.31
		c-0.572,0.769-1.12,1.505-1.682,2.259c0.045,0.075,0.094,0.159,0.116,0.194c-0.169,0.188-0.321,0.351-0.466,0.52
		c-1.08,1.27-2.293,2.381-3.834,3.068c-0.447,0.199-0.923,0.347-1.455,0.232c-0.33-0.071-0.693,0.027-1.041,0.02
		c-0.201-0.006-0.401-0.07-0.616-0.111c-0.21,0.35-0.507,0.056-0.737,0.004c-0.621-0.141-0.947-0.675-1.247-1.162
		c-0.276-0.449-0.431-0.973-0.641-1.464c-0.025-0.06-0.062-0.116-0.243-0.297c-0.037,0.102-0.047,0.228-0.115,0.302
		c-0.67,0.727-1.382,1.432-2.338,1.75c-1.25,0.415-2.471,0.313-3.485-0.615c-0.618-0.564-0.777-1.364-0.861-2.164
		c-0.03-0.287-0.005-0.579-0.005-0.869c-0.03-0.01-0.061-0.02-0.091-0.03c-0.067,0.096-0.135,0.192-0.203,0.287
		c-0.657,0.905-1.287,1.833-1.985,2.707c-0.269,0.335-0.665,0.593-1.046,0.812c-1.025,0.591-1.743,0.488-2.624-0.293
		c-0.655-0.582-1.004-1.297-1.067-2.172c-0.081-1.118,0.042-2.22,0.257-3.31c0.224-1.134,0.531-2.247,1.104-3.269
		c0.505-0.899,1.255-1.395,2.299-1.423c0.09-0.002,0.191,0.009,0.268,0.05c0.297,0.163,0.585,0.342,0.878,0.51
		c0.204,0.118,0.322,0.281,0.261,0.521c-0.116,0.45-0.257,0.893-0.365,1.344c-0.397,1.655-0.79,3.31-1.173,4.968
		c-0.044,0.189-0.035,0.4-0.009,0.595c0.016,0.109,0.116,0.208,0.18,0.312c0.092-0.061,0.214-0.098,0.271-0.182
		c0.64-0.919,1.288-1.833,1.897-2.773c0.801-1.233,1.556-2.496,2.356-3.729c0.605-0.934,1.294-1.113,2.558-0.781
		c0.442,0.117,0.552,0.422,0.463,0.876c-0.276,1.421-0.582,2.839-0.791,4.271c-0.142,0.966-0.278,1.949-0.065,2.933
		c0.101,0.463,0.31,0.584,0.664,0.254c0.666-0.621,1.278-1.298,1.901-1.961c0.2-0.213,0.348-0.475,0.551-0.683
		c0.674-0.696,0.851-1.65,1.304-2.46c0.776-1.385,1.779-2.551,3.239-3.255c0.344-0.166,0.723-0.335,1.093-0.354
		c0.538-0.027,1.072-0.115,1.603,0.315c0.358,0.292,0.516,0.518,0.485,0.933c-0.003,0.042,0.014,0.096,0.042,0.126
		c0.656,0.704,0.438,1.494,0.146,2.231c-0.473,1.193-1.439,1.822-2.686,1.979c-0.6,0.077-1.219,0.024-1.827-0.008
		c-0.253-0.013-0.351,0.048-0.411,0.293c-0.132,0.526-0.151,1.043,0.072,1.544c0.367,0.82,1.318,1.217,2.383,1.076
		c1.18-0.156,2.127-0.757,2.909-1.575c1.058-1.108,2.027-2.299,3.03-3.458c0.298-0.345,0.576-0.708,0.871-1.057
		c0.104-0.121,0.23-0.224,0.343-0.33c0.263,0.195,0.304,0.8,0.117,1.063c-0.193,0.275-0.366,0.564-0.548,0.847
		c0.036,0.024,0.073,0.048,0.109,0.073c0.232-0.341,0.465-0.682,0.722-1.061C98.287,14.688,98.033,15.285,97.602,15.859z
		 M88.991,15.014c1.128-0.686,2.375-1.24,2.935-2.589C90.863,12.112,89.634,13.272,88.991,15.014z M96.506,16.085
		c-0.219,0.385-0.41,0.726-0.604,1.066c0.028,0.021,0.056,0.044,0.084,0.066c0.104-0.108,0.214-0.21,0.309-0.325
		c0.08-0.098,0.119-0.257,0.217-0.308C96.843,16.417,96.672,16.28,96.506,16.085z M91.413,11.303
		c-0.295-0.169-0.604-0.085-0.796,0.173C90.869,11.421,91.112,11.369,91.413,11.303z M97.398,14.819
		c-0.032-0.021-0.064-0.041-0.096-0.061c-0.142,0.235-0.282,0.47-0.423,0.705c0.045,0.026,0.09,0.051,0.136,0.076
		C97.143,15.299,97.271,15.059,97.398,14.819z"/>
	<path fill-rule="evenodd" clip-rule="evenodd" fill="#020202" d="M28.795,23.571c-0.09-0.059-0.142-0.092-0.195-0.127
		c-0.034,0.082-0.067,0.163-0.128,0.311c-0.161-0.233-0.29-0.42-0.486-0.703c0.025,0.229,0.04,0.362,0.052,0.475
		c-0.126,0.021-0.27,0.048-0.464,0.083c-0.063-0.104-0.152-0.249-0.255-0.419c-0.047,0.083-0.088,0.156-0.156,0.279
		c-0.034-0.209-0.063-0.374-0.09-0.537c-0.018-0.003-0.036-0.006-0.055-0.01c-0.035,0.119-0.069,0.24-0.131,0.453
		c-0.099-0.27-0.168-0.459-0.275-0.752c-0.035,0.126-0.058,0.203-0.08,0.28c-0.026-0.017-0.053-0.032-0.08-0.048
		c-0.03-0.104-0.062-0.209-0.113-0.386c-0.072,0.15-0.116,0.241-0.21,0.435c-0.059-0.316-0.111-0.537-0.14-0.759
		c-0.231-1.858-0.085-3.713,0.076-5.568c0.143-1.631,0.237-3.266,0.383-4.897c0.14-1.572,0.317-3.141,0.478-4.712
		c0.006-0.056,0.008-0.112,0.012-0.177c-0.476-0.07-0.946-0.095-1.39-0.219c-0.313-0.087-0.622-0.268-0.868-0.481
		c-0.27-0.233-0.174-0.471,0.182-0.507c0.618-0.063,1.239-0.123,1.859-0.132c0.331-0.005,0.469-0.133,0.514-0.429
		c0.146-0.947,0.284-1.895,0.442-2.84c0.075-0.448,0.16-0.899,0.296-1.331c0.16-0.511,0.579-0.743,1.089-0.815
		c0.676-0.097,1.336-0.001,1.968,0.236c0.333,0.125,0.508,0.358,0.453,0.767c-0.05,0.377,0.034,0.772,0.007,1.155
		c-0.068,0.955-0.163,1.909-0.253,2.863c-0.041,0.445-0.044,0.434,0.406,0.461c0.736,0.043,1.48,0.056,2.174,0.361
		c0.074,0.033,0.148,0.068,0.22,0.108c0.047,0.027,0.088,0.066,0.148,0.113c-0.295,0.28-0.548,0.526-0.998,0.519
		c-0.619-0.01-1.24,0.083-1.862,0.104c-0.287,0.01-0.318,0.188-0.342,0.391c-0.05,0.441-0.089,0.884-0.139,1.326
		c-0.163,1.44-0.313,2.882-0.498,4.32c-0.251,1.947-0.528,3.892-0.795,5.838c-0.204,1.493-0.405,2.987-0.614,4.48
		C28.914,23.236,28.849,23.387,28.795,23.571z"/>
	<path fill-rule="evenodd" clip-rule="evenodd" fill="#020202" d="M26.368,10.099c-0.77,0.65-1.526,1.149-2.098,1.807
		c-0.815,0.938-1.556,1.956-2.216,3.009c-0.807,1.288-1.108,2.764-1.295,4.256c-0.111,0.894-0.219,1.788-0.332,2.681
		c-0.049,0.386-0.655,0.682-1.01,0.473c-0.391,0.253-0.801,0.502-1.191,0.777c-0.225,0.159-0.428,0.098-0.563-0.06
		c-0.244-0.287-0.492-0.571-0.456-1.017c0.148-1.842,0.254-3.688,0.4-5.53c0.129-1.622,0.388-3.227,0.881-4.78
		c0.192-0.607,0.424-1.217,0.743-1.764c0.453-0.775,1.156-1.246,2.098-1.264c0.61-0.012,0.985,0.297,0.946,0.909
		c-0.046,0.694-0.206,1.381-0.332,2.068c-0.072,0.395-0.177,0.783-0.267,1.175c0.064,0.045,0.13,0.09,0.194,0.135
		c0.038-0.096,0.054-0.213,0.118-0.286c0.811-0.916,1.666-1.786,2.775-2.344c0.327-0.165,0.705-0.239,1.068-0.32
		C25.974,9.995,26.136,10.063,26.368,10.099z"/>
	<path fill-rule="evenodd" clip-rule="evenodd" fill="#020202" d="M100.02,19.725c-0.033,0.199-0.034,0.455-0.118,0.68
		c-0.388,1.04-1.767,1.333-2.635,0.56c-0.229-0.204-0.489-0.433-0.592-0.705c-0.234-0.619,0.332-1.577,0.986-1.696
		c0.516-0.094,1.046-0.121,1.57-0.143c0.352-0.015,0.64,0.299,0.725,0.736C99.99,19.329,99.996,19.504,100.02,19.725z"/>
	<path fill-rule="evenodd" clip-rule="evenodd" fill="#020202" d="M60.209,8.31c-0.02,0.859-0.55,1.534-1.348,1.7
		c-0.404,0.084-0.765-0.025-1.021-0.317c-0.319-0.365-0.604-0.766-0.854-1.181c-0.197-0.328-0.042-0.639,0.22-0.875
		c0.567-0.507,1.241-0.783,2.001-0.826c0.406-0.022,0.755,0.242,0.854,0.64C60.131,7.732,60.161,8.023,60.209,8.31z"/>
	<path fill-rule="evenodd" clip-rule="evenodd" fill="#020202" d="M37.717,8.295c-0.013,0.876-0.55,1.558-1.366,1.718
		c-0.39,0.077-0.744-0.028-0.989-0.31c-0.326-0.374-0.618-0.784-0.873-1.21c-0.188-0.313-0.033-0.618,0.217-0.846
		c0.573-0.521,1.259-0.796,2.03-0.834c0.404-0.021,0.743,0.255,0.84,0.658C37.641,7.742,37.671,8.02,37.717,8.295z"/>
</g>
</svg>
