<?xml version="1.0"?>
<svg xmlns="http://www.w3.org/2000/svg" xmlns:xlink="http://www.w3.org/1999/xlink" xmlns:svgjs="http://svgjs.com/svgjs" version="1.1" width="512" height="512" x="0" y="0" viewBox="0 0 510 510" style="enable-background:new 0 0 512 512" xml:space="preserve" class=""><g><g xmlns="http://www.w3.org/2000/svg"><path d="m420.874 329.887c-8.805-8.447-24.626-18.211-51.293-19.564l4.296-55.323h-61.21v-58.18c0-24.526-9.551-47.584-26.894-64.927-11.676-11.677-18.106-27.201-18.106-43.714 0-10.18 0-78.078 0-88.18h-90v88.18c0 16.513-6.431 32.037-18.106 43.714-17.343 17.343-26.894 40.4-26.894 64.927v58.18h-61.21c.755 9.721 14.844 191.154 16.04 206.56 2.58 27.787 27.722 48.44 57.111 48.44h156.117c29.456 0 54.537-20.715 57.111-48.44l2.26-29.1c10.508-1.301 21.438-3.291 32.755-6.125 30.787-7.705 46.156-26.85 45.68-56.905-.231-14.587-6.667-29-17.657-39.543zm-166.044-188.262-32.162 32.162-32.162-32.162c10.787-15 16.781-32.842 17.145-51.625h30.035c.362 18.783 6.356 36.625 17.144 51.625zm-47.163-111.625h30v30h-30zm-45 166.82c0-11.389 3.061-22.307 8.79-31.817l51.21 51.21 51.21-51.21c5.729 9.511 8.79 20.429 8.79 31.817v58.18h-120zm165.29 262.065c-1.161 11.849-13.1 21.115-27.23 21.115h-156.118c-14.131 0-26.069-9.267-27.23-21.115l-13.502-173.885h237.58l-9.278 119.503c-26.059.484-51.371-3.686-75.68-12.513-15.753-5.72-28.014-12.396-36.226-17.541 1.544-4.539 2.394-9.395 2.394-14.449 0-24.814-20.187-45-45-45s-45 20.186-45 45 20.186 45 45 45c8.775 0 16.966-2.534 23.895-6.896 38.083 24.804 84.28 36.606 128.293 36.314zm-150.29-83.885c-8.271 0-15-6.728-15-15s6.729-15 15-15 15 6.728 15 15-6.728 15-15 15zm207.901 22.234c-7.748 1.939-15.449 3.482-23.097 4.65l4.786-61.638c14.44.603 25.723 4.451 32.849 11.288 7.668 7.356 8.391 15.922 8.43 18.371.254 16.072-5.541 22.968-22.968 27.329z" fill="#e1a957" data-original="#000000" style="" class=""/></g></g></svg>
