<?xml version="1.0" encoding="utf-8"?>
<!-- Generator: Adobe Illustrator 16.0.0, SVG Export Plug-In . SVG Version: 6.00 Build 0)  -->
<!DOCTYPE svg PUBLIC "-//W3C//DTD SVG 1.1//EN" "http://www.w3.org/Graphics/SVG/1.1/DTD/svg11.dtd">
<svg version="1.1" id="Layer_1" xmlns="http://www.w3.org/2000/svg" xmlns:xlink="http://www.w3.org/1999/xlink" x="0px" y="0px"
	 width="53.001px" height="37px" viewBox="0 0 53.001 37" enable-background="new 0 0 53.001 37" xml:space="preserve">
<g>
	<path fill="#685336" d="M8.439,10.204C7.846,9.62,7.528,8.88,7.528,8.062V3.622c0.237-0.039,0.396-0.195,0.396-0.429V1.246
		c0-0.234-0.159-0.428-0.396-0.428C7.528,0.389,7.172,0,6.696,0H4.239C3.804,0,3.407,0.351,3.407,0.818
		C3.17,0.857,3.012,1.012,3.012,1.246v1.947c0,0.233,0.158,0.39,0.396,0.429v4.401c0,0.818-0.316,1.558-0.911,2.143l-0.99,0.974
		C0.555,12.074,0,13.358,0,14.722v20.915C0,36.377,0.634,37,1.387,37H9.51c0.753,0,1.387-0.623,1.387-1.363V14.722
		c0-1.324-0.555-2.609-1.506-3.583L8.439,10.204z"/>
	<path fill="#685336" d="M29.511,10.204C28.916,9.62,28.6,8.88,28.6,8.062V3.622c0.237-0.039,0.396-0.195,0.396-0.429V1.246
		c0-0.234-0.159-0.428-0.396-0.428C28.6,0.389,28.243,0,27.768,0h-2.457c-0.436,0-0.832,0.351-0.832,0.818
		c-0.237,0.039-0.396,0.194-0.396,0.428v1.947c0,0.233,0.159,0.39,0.396,0.429v4.401c0,0.818-0.316,1.558-0.911,2.143l-0.991,1.012
		c-0.95,0.935-1.505,2.22-1.505,3.583v20.876c0,0.74,0.634,1.363,1.387,1.363h8.123c0.753,0,1.387-0.623,1.387-1.363V14.722
		c0-1.324-0.555-2.609-1.506-3.583L29.511,10.204z"/>
	<path fill="#685336" d="M51.533,11.178l-0.991-0.974c-0.594-0.584-0.911-1.324-0.911-2.143V3.622
		c0.238-0.039,0.396-0.195,0.396-0.429V1.246c0-0.234-0.158-0.428-0.396-0.428C49.631,0.389,49.274,0,48.799,0h-2.457
		c-0.436,0-0.832,0.351-0.832,0.818c-0.237,0.039-0.396,0.194-0.396,0.428v1.947c0,0.233,0.158,0.39,0.396,0.429v4.401
		c0,0.818-0.316,1.558-0.911,2.143l-0.99,0.974c-0.951,0.935-1.506,2.219-1.506,3.583v20.915c0,0.74,0.634,1.363,1.387,1.363h8.123
		c0.753,0,1.387-0.623,1.387-1.363V14.722C53.039,13.398,52.483,12.113,51.533,11.178z"/>
</g>
</svg>
