<?xml version="1.0"?>
<svg xmlns="http://www.w3.org/2000/svg" xmlns:xlink="http://www.w3.org/1999/xlink" xmlns:svgjs="http://svgjs.com/svgjs" version="1.1" width="512" height="512" x="0" y="0" viewBox="0 0 158.215 158.215" style="enable-background:new 0 0 512 512" xml:space="preserve" class=""><g>
<g xmlns="http://www.w3.org/2000/svg">
	<g>
		<path d="M20.399,128.533c7.162,4.946,15.457,7.504,24.063,7.504c3.459,0,6.971-0.411,10.473-1.244    c14.86-3.544,24.59-11.597,31.819-21.711c0.417-0.237,0.771-0.58,1.013-1.022c5.596-10.004,10.879-18.12,18.125-21.664    c-0.2,0.359-0.427,0.691-0.596,1.087c-1.472,3.549-1.171,7.535,0.901,11.839c2.848,5.916,7.352,8.543,14.607,8.543    c3.438,0,7.652-0.564,13.638-1.867c6.364-1.371,11.681-0.807,20.176,1.756c0.264,0.079,0.527,0.111,0.791,0.111    c0.016,0,0.037,0,0.053,0c1.519-0.037,2.753-1.187,2.753-2.7c0-0.532-0.147-1.023-0.428-1.456    c-1.65-5.357-12.318-37.238-32.441-37.238c-2.896,0-5.849,0.669-8.791,1.999c-2.21,0.999-4.852,3.837-5.653,7.349    c-0.269,1.191-0.227,2.342-0.037,3.47c-4.107,0.554-7.72,2.094-10.953,4.398c0.923-2.236,1.83-4.482,2.727-6.724    c0.279-0.676,0.543-1.303,0.802-1.967c0.185-0.18,0.411-0.312,0.538-0.549c9.829-17.571,23.915-23.965,39.661-17.998    c1.382,0.546,2.953-0.166,3.48-1.566c0.527-1.393-0.174-2.953-1.566-3.483c-12.481-4.74-24.315-2.758-34.098,5.313    c9.561-20.174,16.875-31.746,33.154-33.139c1.477-0.124,2.584-1.437,2.463-2.916c-0.127-1.484-1.403-2.624-2.922-2.463    c-21.716,1.851-30.265,20.321-40.168,41.7c-2.246,4.849-4.324,10.032-6.339,15.053c-0.432,1.081-0.87,2.162-1.308,3.243    c-0.881-11.681-6.924-21.109-17.813-27.095c0.232-0.965,0.385-1.949,0.396-2.969c0.032-3.515-1.308-6.837-3.771-9.342    c-4.931-5.018-13.59-5.107-18.621-0.167c-5.173,5.092-5.242,13.445-0.158,18.613c2.495,2.544,5.833,3.941,9.392,3.941    c3.47,0,6.739-1.339,9.218-3.768c0.443-0.433,0.802-0.92,1.176-1.4c13.827,7.755,18.172,21.774,12.356,39.709    c-7.251,13.88-17.102,25.576-34.811,29.816c-10.715,2.541-21.447,0.611-30.211-5.442c-9.824-6.782-16.421-18.13-18.109-31.14    c-0.195-1.472-1.582-2.516-3.021-2.336c-1.482,0.195-2.526,1.55-2.336,3.026C1.895,108.177,9.33,120.881,20.399,128.533z     M110.269,93.581c1.429-3.454,5.563-4.968,5.59-4.979c0.031-0.01,0.048-0.042,0.079-0.053c4.546,0.349,9.777,2.072,16,5.517    c1.302,0.738,2.947,0.253,3.67-1.039c0.723-1.308,0.253-2.948-1.05-3.681c-6.955-3.86-12.925-5.764-18.146-6.202    c-0.285-0.669-0.406-1.36-0.227-2.13c0.396-1.788,1.909-3.302,2.6-3.623c2.241-1.008,4.451-1.516,6.57-1.516    c13.453,0,22.434,20.037,25.883,29.371c-6.919-1.624-12.003-1.799-17.909-0.527c-5.605,1.207-9.455,1.734-12.503,1.734    c-5.174,0-7.815-1.477-9.74-5.484C109.7,98.121,109.43,95.642,110.269,93.581z M71.188,57.563    c-2.963,2.916-8.068,2.863-10.974-0.105c-3-3.048-2.948-7.989,0.095-10.979c1.466-1.437,3.391-2.22,5.432-2.22    c2.104,0,4.071,0.822,5.547,2.328c1.45,1.474,2.241,3.433,2.226,5.513C73.487,54.167,72.669,56.113,71.188,57.563z" fill="#e1a957" data-original="#000000" style="" class=""/>
	</g>
</g>
<g xmlns="http://www.w3.org/2000/svg">
</g>
<g xmlns="http://www.w3.org/2000/svg">
</g>
<g xmlns="http://www.w3.org/2000/svg">
</g>
<g xmlns="http://www.w3.org/2000/svg">
</g>
<g xmlns="http://www.w3.org/2000/svg">
</g>
<g xmlns="http://www.w3.org/2000/svg">
</g>
<g xmlns="http://www.w3.org/2000/svg">
</g>
<g xmlns="http://www.w3.org/2000/svg">
</g>
<g xmlns="http://www.w3.org/2000/svg">
</g>
<g xmlns="http://www.w3.org/2000/svg">
</g>
<g xmlns="http://www.w3.org/2000/svg">
</g>
<g xmlns="http://www.w3.org/2000/svg">
</g>
<g xmlns="http://www.w3.org/2000/svg">
</g>
<g xmlns="http://www.w3.org/2000/svg">
</g>
<g xmlns="http://www.w3.org/2000/svg">
</g>
</g></svg>
