<?xml version="1.0" encoding="utf-8"?>
<!-- Generator: Adobe Illustrator 16.0.0, SVG Export Plug-In . SVG Version: 6.00 Build 0)  -->
<!DOCTYPE svg PUBLIC "-//W3C//DTD SVG 1.1//EN" "http://www.w3.org/Graphics/SVG/1.1/DTD/svg11.dtd">
<svg version="1.1" id="Layer_1" xmlns="http://www.w3.org/2000/svg" xmlns:xlink="http://www.w3.org/1999/xlink" x="0px" y="0px"
	 width="28px" height="25px" viewBox="0 0 28 25" enable-background="new 0 0 28 25" xml:space="preserve">
<g>
	<path fill="#E1A956" d="M14,25c-0.224,0-0.435-0.104-0.573-0.285C13.103,24.296,5.5,14.376,5.5,8.771C5.5,3.936,9.313,0,14,0
		c4.687,0,8.5,3.936,8.5,8.771c0,5.593-7.603,15.524-7.927,15.944C14.435,24.896,14.224,25,14,25L14,25z M14,1.513
		c-3.879,0-7.035,3.256-7.035,7.258c0,4.245,5.263,11.808,7.034,14.232c1.772-2.427,7.035-9.996,7.035-14.232
		C21.034,4.769,17.879,1.513,14,1.513z M14,12.644c-2.07,0-3.754-1.737-3.754-3.873S11.93,4.897,14,4.897
		c2.069,0,3.753,1.737,3.753,3.873S16.069,12.644,14,12.644z M14,6.41c-1.262,0-2.288,1.059-2.288,2.36s1.026,2.36,2.288,2.36
		s2.288-1.059,2.288-2.36S15.262,6.41,14,6.41z"/>
</g>
</svg>
