<?xml version="1.0" encoding="utf-8"?>
<!-- Generator: Adobe Illustrator 16.0.0, SVG Export Plug-In . SVG Version: 6.00 Build 0)  -->
<!DOCTYPE svg PUBLIC "-//W3C//DTD SVG 1.1//EN" "http://www.w3.org/Graphics/SVG/1.1/DTD/svg11.dtd">
<svg version="1.1" id="Layer_1" xmlns="http://www.w3.org/2000/svg" xmlns:xlink="http://www.w3.org/1999/xlink" x="0px" y="0px"
	 width="28.014px" height="27.01px" viewBox="0 0 28.014 27.01" enable-background="new 0 0 28.014 27.01" xml:space="preserve">
<g>
	<path fill="#E1A957" d="M11.692,17.761c0.71,0.734,1.565,1.188,2.375,1.278c0.828,0.079,1.703-0.191,2.67-1.257
		c0.3-0.331,0.628-0.714,1.181-0.896c0.554-0.183,1.216-0.069,1.922,0.306c1.348,1.01,2.735,2.031,4.061,3.069
		c0.632,0.623,0.794,1.444,0.59,2.089c-0.203,0.646-0.64,1.133-1.043,1.542c-2.25,2.313-4.914,3.433-7.529,3.041
		c-2.524-0.432-4.971-2.179-7.68-4.854c-1.165-1.149-2.072-2.045-3.225-3.184c-2.71-2.675-4.479-5.088-4.916-7.581
		c-0.521-3.084,1.14-5.594,3.08-7.432c0.413-0.398,0.908-0.829,1.563-1.03s1.484-0.041,2.116,0.583
		c1.051,1.308,2.087,2.678,3.108,4.006c0.38,0.697,0.494,1.354,0.311,1.898c-0.187,0.545-0.572,0.869-0.907,1.165
		c-1.079,0.954-1.354,1.816-1.272,2.636c0.092,0.798,0.551,1.645,1.295,2.345 M8.468,16.396c-0.871-0.836-1.559-1.907-1.678-3.133
		c-0.118-1.229,0.399-2.562,1.706-3.717c0.318-0.281,0.492-0.477,0.54-0.617c0.047-0.141,0.062-0.344-0.209-0.846L5.934,4.346
		C5.561,3.979,5.412,3.99,5.128,4.076C4.844,4.164,4.454,4.451,4.091,4.801c-2.332,2.303-3.063,4.252-2.705,6.295
		c0.357,2.044,1.919,4.296,4.549,6.893c1.08,1.065,2.267,2.237,3.225,3.184c2.63,2.597,4.912,4.137,6.982,4.49
		c2.068,0.354,4.045-0.369,6.377-2.671c0.354-0.358,0.646-0.743,0.733-1.023c0.088-0.279,0.101-0.428-0.272-0.796l-3.786-2.856
		c-0.509-0.266-0.715-0.252-0.856-0.205c-0.145,0.048-0.342,0.22-0.627,0.532c-1.17,1.29-2.519,1.802-3.764,1.686
		c-1.242-0.117-2.328-0.796-3.175-1.656"/>
	<path fill="#E1A957" d="M12.342,0.679c0.02,0.337,0.348,0.626,0.688,0.608c7.563,0,13.681,6.039,13.681,13.504
		c-0.005,0.34,0.309,0.651,0.651,0.651c0.345,0,0.656-0.313,0.651-0.651C28.013,6.631,21.297,0,13.029,0
		C12.639-0.002,12.336,0.346,12.342,0.679z M12.342,4.537c0.02,0.337,0.348,0.627,0.688,0.606c5.404,0,9.771,4.313,9.771,9.646
		c-0.004,0.34,0.309,0.651,0.652,0.651s0.656-0.313,0.651-0.651c0-6.029-4.967-10.933-11.075-10.933
		C12.622,3.862,12.336,4.227,12.342,4.537L12.342,4.537z"/>
</g>
</svg>
