<?xml version="1.0" encoding="utf-8"?>
<!-- Generator: Adobe Illustrator 16.0.0, SVG Export Plug-In . SVG Version: 6.00 Build 0)  -->
<!DOCTYPE svg PUBLIC "-//W3C//DTD SVG 1.1//EN" "http://www.w3.org/Graphics/SVG/1.1/DTD/svg11.dtd">
<svg version="1.1" id="Layer_1" xmlns="http://www.w3.org/2000/svg" xmlns:xlink="http://www.w3.org/1999/xlink" x="0px" y="0px"
	 width="28px" height="21px" viewBox="0 0 28 21" enable-background="new 0 0 28 21" xml:space="preserve">
<g>
	<path fill="#E1A957" d="M5.146,21h17.706c2.85,0,5.147-2.232,5.147-5v-11C28,2.234,25.701,0,22.854,0H5.146
		C2.299,0,0,2.234,0,5.001v11C0,18.768,2.299,21,5.146,21z M25.941,16c0,1.668-1.373,3-3.09,3H5.146c-1.715,0-3.088-1.332-3.088-3
		v-11c0-0.601,0.206-1.167,0.515-1.667l9.368,8c0.583,0.5,1.304,0.767,2.059,0.767c0.721,0,1.477-0.233,2.023-0.733l9.369-8
		c0.309,0.467,0.514,1.033,0.514,1.667v10.967h0.035V16z M22.854,2.001c0.31,0,0.617,0.033,0.893,0.133l-9.059,7.7
		c-0.378,0.334-0.961,0.334-1.374,0l-9.059-7.7c0.274-0.066,0.583-0.133,0.892-0.133H22.854z"/>
</g>
</svg>
