<?xml version="1.0" encoding="utf-8"?>
<!-- Generator: Adobe Illustrator 16.0.0, SVG Export Plug-In . SVG Version: 6.00 Build 0)  -->
<!DOCTYPE svg PUBLIC "-//W3C//DTD SVG 1.1//EN" "http://www.w3.org/Graphics/SVG/1.1/DTD/svg11.dtd">
<svg version="1.1" id="Layer_1" xmlns="http://www.w3.org/2000/svg" xmlns:xlink="http://www.w3.org/1999/xlink" x="0px" y="0px"
	 width="16.689px" height="31.334px" viewBox="0 0 16.689 31.334" enable-background="new 0 0 16.689 31.334" xml:space="preserve">
<g>
	<path fill="#E1A956" d="M11.769,19.414c0.036-0.013,0.071-0.026,0.107-0.039c0.049-0.018,0.084-0.029,0.084-0.029
		c0.001,0,0.001-0.001,0.001-0.002c2.927-1.067,4.729-3.489,4.729-6.681c0-3.213-1.601-11.886-1.668-12.254L14.946,0H1.743
		L1.668,0.409C1.6,0.777,0,9.45,0,12.663c0,3.191,1.802,5.613,4.729,6.681c0,0.001,0,0.002,0,0.002s0.035,0.012,0.085,0.029
		c0.036,0.013,0.07,0.026,0.106,0.038c0.669,0.247,2.917,1.212,2.917,3.004v6.087c-2.272,0.028-5.531,0.27-5.531,1.413
		c0,1.232,3.783,1.417,6.039,1.417c2.255,0,6.038-0.185,6.038-1.417c0-1.145-3.259-1.385-5.53-1.413v-6.087
		C8.853,20.625,11.1,19.661,11.769,19.414z M8.319,9.578C5.774,10.596,2.552,9.676,1.3,9.24C1.689,6.098,2.368,2.247,2.593,1h11.505
		c0.209,1.157,0.807,4.556,1.204,7.553c-0.678-0.059-2.612-0.147-4.937,0.413C9.714,9.099,9.029,9.294,8.319,9.578z"/>
</g>
</svg>
