<?xml version="1.0" encoding="utf-8"?>
<!-- Generator: Adobe Illustrator 16.0.0, SVG Export Plug-In . SVG Version: 6.00 Build 0)  -->
<!DOCTYPE svg PUBLIC "-//W3C//DTD SVG 1.1//EN" "http://www.w3.org/Graphics/SVG/1.1/DTD/svg11.dtd">
<svg version="1.1" id="Layer_1" xmlns="http://www.w3.org/2000/svg" xmlns:xlink="http://www.w3.org/1999/xlink" x="0px" y="0px"
	 width="17px" height="24.121px" viewBox="77.99 88.952 17 24.121" enable-background="new 77.99 88.952 17 24.121"
	 xml:space="preserve">
<g>
	<path fill="#E1A957" d="M91.548,101.027c0.938,0,1.668-0.756,1.668-1.669s-0.756-1.669-1.668-1.669s-1.669,0.756-1.669,1.669
		S90.609,101.027,91.548,101.027z"/>
	<path fill="#E1A957" d="M84.639,103.687c-0.938,0-1.668,0.757-1.668,1.694c0,0.939,0.756,1.669,1.668,1.669
		c0.938,0,1.669-0.756,1.669-1.669C86.308,104.469,85.577,103.687,84.639,103.687z M84.091,105.433
		c-0.13,0.313-0.625,0.262-0.574-0.313c0.052-0.391,0.443-0.782,0.6-0.808c0.079-0.026,0.13,0.025,0.104,0.104
		c0,0.079-0.079,0.21-0.079,0.365C84.143,105.016,84.196,105.226,84.091,105.433z"/>
	<path fill="#E1A957" d="M86.412,105.381c0,0.939,0.756,1.669,1.668,1.669s1.669-0.756,1.669-1.669c0-0.912-0.756-1.668-1.669-1.668
		S86.412,104.443,86.412,105.381z"/>
	<path fill="#E1A957" d="M88.081,109.735c-0.939,0-1.668,0.756-1.668,1.669s0.756,1.668,1.668,1.668s1.669-0.755,1.669-1.668
		S89.02,109.735,88.081,109.735z"/>
	<path fill="#E1A957" d="M91.548,103.713c-0.939,0-1.669,0.756-1.669,1.668c0,0.913,0.756,1.669,1.669,1.669
		s1.668-0.756,1.668-1.669C93.217,104.469,92.461,103.713,91.548,103.713z"/>
	<path fill="#E1A957" d="M82.918,100.688c-0.913,0-1.668,0.757-1.668,1.669c0,0.913,0.756,1.695,1.668,1.695
		c0.939,0,1.695-0.756,1.695-1.695C84.613,101.418,83.831,100.688,82.918,100.688z M82.345,102.383
		c-0.131,0.313-0.652,0.261-0.574-0.313c0.052-0.392,0.443-0.757,0.6-0.809c0.078-0.026,0.13,0.026,0.104,0.104
		c0,0.079-0.078,0.209-0.078,0.365C82.396,101.991,82.449,102.201,82.345,102.383z"/>
	<path fill="#E1A957" d="M86.359,100.688c-0.938,0-1.668,0.757-1.668,1.669c0,0.913,0.756,1.695,1.668,1.695
		c0.938,0,1.669-0.756,1.669-1.695C88.028,101.418,87.298,100.688,86.359,100.688z M85.76,102.383
		c-0.13,0.313-0.651,0.261-0.573-0.313c0.052-0.392,0.443-0.757,0.599-0.809c0.079-0.026,0.131,0.026,0.105,0.104
		c-0.026,0.079-0.079,0.209-0.079,0.365C85.786,101.991,85.838,102.201,85.76,102.383z"/>
	<path fill="#E1A957" d="M89.827,104.052c0.939,0,1.669-0.756,1.669-1.669c0-0.912-0.756-1.669-1.669-1.669
		c-0.912,0-1.668,0.757-1.668,1.669C88.159,103.296,88.889,104.052,89.827,104.052z"/>
	<path fill="#E1A957" d="M86.359,106.711c-0.938,0-1.668,0.757-1.668,1.694c0,0.913,0.756,1.669,1.668,1.669
		c0.938,0,1.669-0.756,1.669-1.669C88.054,107.468,87.298,106.711,86.359,106.711z M85.917,108.38
		c-0.131,0.313-0.652,0.26-0.574-0.313c0.052-0.392,0.443-0.757,0.6-0.809c0.078-0.026,0.13,0.026,0.104,0.104
		c0,0.077-0.079,0.208-0.079,0.365C85.968,107.988,86.021,108.197,85.917,108.38z"/>
	<path fill="#E1A957" d="M89.827,106.711c-0.938,0-1.668,0.757-1.668,1.669c0,0.913,0.756,1.668,1.668,1.668
		c0.913,0,1.669-0.755,1.669-1.668C91.496,107.468,90.74,106.711,89.827,106.711z"/>
	<path fill="#E1A957" d="M93.269,100.688c-0.938,0-1.668,0.757-1.668,1.669c0,0.913,0.756,1.67,1.668,1.67s1.668-0.757,1.668-1.67
		C94.938,101.444,94.182,100.688,93.269,100.688z"/>
	<path fill="#E1A957" d="M93.947,90.154c-0.496-0.287-1.278-0.521-2.217,0.026c-0.417,0.261-0.756,0.574-0.99,0.913
		c-0.913-0.078-1.799,0.261-2.503,0.965c-1.225,1.226-1.121,3.129-0.808,4.458c-1.695,0.156-2.79-1.095-3.155-1.59
		c0.26,0,0.625,0.052,0.782,0.208c0.208,0.261,0.913,0.417,1.486,0.026c0.574-0.391,0.547-1.33,0.574-1.617
		c0.026-0.286-0.261-1.147-0.261-1.147s-0.287-0.13-0.547,0.078c-0.261,0.209-0.365-0.208-0.104-0.782
		c0.261-0.573-0.965-1.59-1.382-1.851c-0.417-0.287-1.33-0.938-1.355-0.887c-0.027,0.053-0.496,0.991-0.626,1.174
		c-0.13,0.183,0.209,0.73,0.183,0.991c-0.026,0.261-0.287-0.131-0.443-0.469c-0.157-0.313-0.73-0.417-1.174-0.47
		c-0.729-0.052-2.607,0.183-2.659,0.261c-0.052,0.052,0.13,2.425,0.443,2.999c0.313,0.547,0.887,0.651,0.887,0.756
		c0,0.104-0.625,0.026-0.887,0c-0.26,0-1.199,0.651-1.199,0.651s0.73,1.017,1.538,1.904c0.809,0.886,1.93,0.756,2.164,0.6
		c0.208-0.156,0.339,0,0.365,0.157c0.026,0.104-0.052,0.417-0.078,0.573c0,0.052,0.026,0.078,0.078,0.078
		c0.234,0,0.913,0.026,1.434-0.078c-0.287,0.287-0.443,0.704-0.443,1.147c0,0.938,0.756,1.668,1.668,1.668
		c0.938,0,1.668-0.756,1.668-1.668c0-0.939-0.756-1.669-1.668-1.669c-0.104,0-0.208,0-0.313,0.026
		c0.261-0.365,0.391-0.834,0.339-1.043c-0.078-0.287-0.469-0.651-0.6-0.782c-0.104,0.053-0.13-0.104-0.13-0.26
		c0.495,0.6,1.564,1.59,3.076,1.59c0.131,0,0.287,0,0.444-0.026c0.078,0.261,0.156,0.496,0.208,0.652
		c-0.756,0.156-1.304,0.834-1.304,1.643c0,0.938,0.756,1.669,1.668,1.669c0.913,0,1.669-0.756,1.669-1.669
		c0-0.861-0.652-1.591-1.512-1.669c-0.079-0.182-0.183-0.521-0.287-0.938c0,0,0,0,0-0.026c0-0.026,0-0.026-0.026-0.052
		c-0.287-1.199-0.496-3.05,0.625-4.171c0.547-0.547,1.2-0.783,1.904-0.783l0,0c-0.104,0.261-0.157,0.548-0.13,0.887
		c0.026,1.147,0.73,2.112,1.381,2.425c0.991,0.496,1.513,0.079,1.669-0.13c0.496-0.574,0.392-1.695-0.235-2.555
		c-0.26-0.339-0.964-0.887-1.851-1.121c0.157-0.209,0.391-0.391,0.678-0.574c0.574-0.339,1.121-0.365,1.617-0.079
		c0.548,0.287,0.834,0.809,0.86,0.938c0,0.131,0.104,0.261,0.26,0.261c0.131,0,0.262-0.104,0.262-0.261
		C94.99,91.197,94.547,90.52,93.947,90.154z M84.091,98.289c0.078-0.026,0.156,0.026,0.156,0.104
		c-0.026,0.261,0.078,0.652-0.078,0.913c-0.235,0.365-0.704,0.209-0.652-0.286C83.543,98.732,83.935,98.341,84.091,98.289z
		 M92.748,92.684c0.521,0.704,0.548,1.564,0.261,1.903c-0.261,0.313-0.704,0.183-1.042,0c-0.522-0.261-1.069-1.095-1.095-2.034
		c0-0.261,0.026-0.574,0.156-0.887C91.861,91.849,92.513,92.371,92.748,92.684z"/>
</g>
</svg>
