<?xml version="1.0" encoding="utf-8"?>
<!-- Generator: Adobe Illustrator 16.0.0, SVG Export Plug-In . SVG Version: 6.00 Build 0)  -->
<!DOCTYPE svg PUBLIC "-//W3C//DTD SVG 1.1//EN" "http://www.w3.org/Graphics/SVG/1.1/DTD/svg11.dtd">
<svg version="1.1" id="Layer_1" xmlns="http://www.w3.org/2000/svg" xmlns:xlink="http://www.w3.org/1999/xlink" x="0px" y="0px"
	 width="24px" height="32.268px" viewBox="0 0 24 32.268" enable-background="new 0 0 24 32.268" xml:space="preserve">
<g>
	<path fill="#E1A956" d="M0,13.737c0-2.032,1.629-3.677,3.64-3.677l0,0c2.01,0,3.638,1.645,3.638,3.677l0,0
		c0,2.026-1.628,3.67-3.638,3.67l0,0C1.629,17.407,0,15.763,0,13.737L0,13.737z M0.934,13.737c0.004,1.506,1.212,2.726,2.706,2.727
		l0,0c1.493-0.001,2.702-1.221,2.705-2.727l0,0c-0.003-1.509-1.212-2.731-2.705-2.732l0,0C2.146,11.006,0.938,12.228,0.934,13.737
		L0.934,13.737L0.934,13.737z"/>
	<path fill="#E1A956" d="M8.36,13.737c0-2.032,1.63-3.677,3.64-3.677l0,0c2.011,0,3.641,1.646,3.641,3.677l0,0
		c0,2.026-1.63,3.67-3.641,3.672l0,0C9.99,17.407,8.36,15.765,8.36,13.737L8.36,13.737z M9.294,13.737
		c0.004,1.505,1.213,2.726,2.706,2.727l0,0c1.494-0.001,2.702-1.221,2.706-2.727l0,0c-0.004-1.509-1.211-2.731-2.706-2.732l0,0
		C10.507,11.006,9.298,12.228,9.294,13.737L9.294,13.737L9.294,13.737z"/>
	<path fill="#E1A956" d="M16.723,13.737c0-2.032,1.629-3.675,3.639-3.677l0,0C22.371,10.062,24,11.704,24,13.737l0,0
		c0,2.026-1.629,3.67-3.639,3.672l0,0C18.352,17.407,16.723,15.763,16.723,13.737L16.723,13.737z M17.654,13.737
		c0.004,1.505,1.213,2.726,2.707,2.727l0,0c1.492-0.001,2.703-1.222,2.705-2.727l0,0c-0.004-1.509-1.213-2.731-2.705-2.732l0,0
		C18.867,11.006,17.658,12.226,17.654,13.737L17.654,13.737L17.654,13.737z"/>
	<path fill="#E1A956" d="M4.181,21.163c0.001-2.027,1.629-3.673,3.638-3.673l0,0c2.012,0,3.64,1.646,3.64,3.673l0,0
		c0,2.029-1.628,3.674-3.64,3.674l0,0C5.81,24.837,4.181,23.192,4.181,21.163L4.181,21.163z M5.114,21.163
		c0.004,1.508,1.213,2.729,2.705,2.731l0,0c1.494-0.002,2.704-1.225,2.706-2.731l0,0c-0.002-1.508-1.211-2.729-2.706-2.729l0,0
		C6.327,18.435,5.118,19.655,5.114,21.163L5.114,21.163L5.114,21.163z"/>
	<path fill="#E1A956" d="M12.543,21.163c0-2.027,1.628-3.673,3.639-3.675l0,0c2.01,0.002,3.637,1.646,3.637,3.675l0,0
		c0,2.029-1.627,3.674-3.637,3.674l0,0C14.171,24.837,12.543,23.192,12.543,21.163L12.543,21.163z M13.477,21.163
		c0.004,1.508,1.211,2.729,2.705,2.731l0,0c1.493-0.002,2.701-1.225,2.705-2.731l0,0c-0.004-1.508-1.212-2.729-2.705-2.729l0,0
		C14.688,18.435,13.479,19.655,13.477,21.163L13.477,21.163L13.477,21.163z"/>
	<path fill="#E1A956" d="M8.361,28.591c0-2.025,1.629-3.673,3.64-3.673l0,0c2.01,0,3.64,1.646,3.64,3.673l0,0
		c0,2.031-1.63,3.677-3.64,3.677l0,0C9.99,32.267,8.361,30.622,8.361,28.591L8.361,28.591z M9.295,28.591
		c0.004,1.51,1.211,2.729,2.706,2.731l0,0c1.493-0.003,2.701-1.223,2.702-2.731l0,0c-0.001-1.507-1.209-2.727-2.702-2.729l0,0
		C10.507,25.864,9.299,27.084,9.295,28.591L9.295,28.591L9.295,28.591z"/>
	<path fill="#E1A956" d="M11.921,8.162C11.877,8.149,8.671,8.1,6.513,5.945l0,0C4.379,3.767,4.328,0.53,4.316,0.484l0,0l0.467-0.012
		L4.316,0.484C4.312,0.354,4.363,0.23,4.452,0.138l0,0C4.544,0.047,4.667-0.004,4.797,0l0,0c0.044,0.013,3.25,0.063,5.408,2.216l0,0
		c2.134,2.181,2.184,5.416,2.195,5.462l0,0c0.004,0.128-0.045,0.254-0.136,0.346l0,0c-0.089,0.089-0.206,0.139-0.331,0.139l0,0
		C11.929,8.162,11.926,8.162,11.921,8.162L11.921,8.162z"/>
	<path fill="#E1A956" d="M11.98,8.024c-0.091-0.091-0.142-0.217-0.138-0.346l0,0c0.013-0.046,0.063-3.281,2.195-5.462l0,0
		c2.158-2.151,5.363-2.203,5.411-2.215l0,0c0.128-0.003,0.25,0.046,0.342,0.138l0,0c0.09,0.093,0.14,0.217,0.137,0.346l0,0
		c-0.014,0.045-0.063,3.283-2.194,5.461l0,0c-2.16,2.153-5.365,2.204-5.411,2.218l0,0c-0.003,0-0.006,0-0.01,0l0,0
		C12.187,8.162,12.066,8.112,11.98,8.024L11.98,8.024z"/>
</g>
</svg>
