<?xml version="1.0" encoding="utf-8"?>
<!-- Generator: Adobe Illustrator 16.0.0, SVG Export Plug-In . SVG Version: 6.00 Build 0)  -->
<!DOCTYPE svg PUBLIC "-//W3C//DTD SVG 1.1//EN" "http://www.w3.org/Graphics/SVG/1.1/DTD/svg11.dtd">
<svg version="1.1" id="Layer_1" xmlns="http://www.w3.org/2000/svg" xmlns:xlink="http://www.w3.org/1999/xlink" x="0px" y="0px"
	 width="134px" height="48.335px" viewBox="25.953 9.325 134 48.335" enable-background="new 25.953 9.325 134 48.335"
	 xml:space="preserve">
<g>
	<path d="M81.202,11.424c1.16-0.12,2.269,0.298,3.327,1.258c0.613,0.788,1.313,1.889,2.097,3.303l0.349,0.283l1.622,3.35
		l0.587,1.062l0.225,0.616l0.81,1.676l0.637,1.535c0.17,0.624,0.458,1.341,0.861,2.149l0.875,2.313
		c0.265,0.505,0.495,1.174,0.687,2.007c0.403,0.811,0.778,1.892,1.13,3.241L94.6,34.52l0.973,3.257
		c0.268,0.507,0.496,1.176,0.688,2.01l0.064,0.631l0.688,2.01c0.094,0.949,0.205,1.764,0.33,2.444
		c0.121,0.683,0.436,1.421,0.945,2.225c0.664-0.816,1.252-1.835,1.764-3.063l3.529-7.717l0.344-1.313l0.268-0.508l0.709-2.471
		c0.262-0.558,0.506-1.276,0.738-2.153l0.266-0.508l0.922-5.053l-0.053-2.072l0.223-0.981c-0.006-1.068-0.244-2.376-0.725-3.927
		c-1.24-1.683-2.957-2.841-5.15-3.468c-1.186-0.092-2.322,0.237-3.418,0.988l-0.365-0.444c0.906-0.519,1.686-1.237,2.338-2.157
		l0.299-0.191l2.213-1.824l0.584-0.542c5.832-1.343,9.162,0.981,9.988,6.973c-0.027,0.749-0.154,1.614-0.373,2.597l-0.594,1.982
		l0.047,0.472l-2.186,5.183l-0.111,0.492l-0.523,1.173c-0.158,0.549-0.459,1.219-0.912,2.012l-0.361,1.157l-0.551,0.857
		l-1.039,2.345c-0.381,0.464-0.738,1.141-1.072,2.025l-1.039,2.346l-0.393,0.84c-0.654,0.922-1.102,1.765-1.342,2.536
		c-0.482,0.477-0.893,1.157-1.23,2.047l-0.283,0.347l-0.645,1.507c-0.465,0.688-0.953,1.642-1.467,2.868
		c-0.135,0.761-0.154,1.612-0.055,2.564c-0.283,0.351-0.504,0.799-0.662,1.348l-1.498,2.551l-0.555,0.855l0.051,0.477l-0.281,0.35
		l-0.637,0.063l-0.418-2.516c-0.447-0.972-0.525-1.934-0.939-2.941l-0.339-1.728c-0.063-0.63-0.246-1.357-0.542-2.184l-0.238-0.772
		l-0.702-2.169c-0.287-0.713-0.54-1.597-0.751-2.638c-0.266-0.508-0.495-1.177-0.687-2.01l-0.588-1.061l-0.702-2.167l-0.361-0.441
		c-0.236-1.255-0.767-2.801-1.595-4.635l-0.812-1.675l-0.254-0.935l-1.64-3.509c-0.497-0.696-0.906-1.561-1.225-2.594l-0.365-0.441
		l-0.604-1.22l-0.366-0.44l-0.237-0.774l-2.573-3.256l-1.014-0.537c-1.233,0.448-2.209,1.344-2.923,2.7l-0.474,0.047
		c0.388-1.425,1.211-2.735,2.477-3.932C77.965,14.152,79.305,12.684,81.202,11.424"/>
	<path d="M25.953,50.811c1.516-0.338,1.67-1.046,1.67-4.094v-9.98c0-3.043-0.116-3.651-1.67-4.024v-0.236h6.022v0.236
		c-1.516,0.373-1.71,0.98-1.71,4.024v9.98c0,3.048,0.118,3.756,1.671,4.094v0.238h-5.983V50.811"/>
	<path d="M38.193,50.811c1.516-0.338,1.67-1.046,1.67-4.094V36.334c0-2.503-0.117-3.182-1.67-3.622v-0.236h4.74L54.318,47.6V36.736
		c0-3.043-0.118-3.651-1.671-4.024v-0.236h5.712v0.236c-1.516,0.373-1.71,0.98-1.71,4.024v14.313H53.89L42.234,35.522v11.194
		c0,3.048,0.116,3.756,1.669,4.094v0.238h-5.71L38.193,50.811"/>
	<path d="M63.957,41.744c0-5.58,4.312-9.642,10.178-9.642c6.06,0,10.18,4.062,10.18,9.642c0,5.648-4.274,9.609-10.18,9.609
		C68.112,51.354,63.957,47.393,63.957,41.744 M81.518,41.844c0-4.664-3.421-7.744-7.538-7.744c-4.041,0-7.267,2.941-7.267,7.546
		c0,4.702,3.421,7.743,7.538,7.743C78.292,49.389,81.518,46.483,81.518,41.844z"/>
	<path d="M101.588,50.811c1.518-0.338,1.672-1.046,1.672-4.094v-9.98c0-3.043-0.119-3.651-1.672-4.024v-0.236h6.025v0.236
		c-1.518,0.373-1.711,0.98-1.711,4.024v9.98c0,3.048,0.117,3.756,1.672,4.094v0.238h-5.986V50.811"/>
	<path d="M113.83,50.811c1.514-0.338,1.672-1.046,1.672-4.094V36.334c0-2.503-0.119-3.182-1.672-3.622v-0.236h4.738l11.383,15.123
		V36.736c0-3.043-0.113-3.651-1.67-4.024v-0.236h5.715v0.236c-1.516,0.373-1.711,0.98-1.711,4.024v14.313h-2.758l-11.654-15.526
		v11.194c0,3.048,0.115,3.756,1.668,4.093v0.238h-5.711V50.811"/>
	<path d="M139.59,41.744c0-5.58,4.314-9.642,10.182-9.642c6.059,0,10.182,4.062,10.182,9.642c0,5.648-4.275,9.609-10.182,9.609
		C143.75,51.354,139.59,47.393,139.59,41.744 M157.154,41.844c0-4.664-3.42-7.744-7.539-7.744c-4.039,0-7.264,2.941-7.264,7.546
		c0,4.702,3.418,7.743,7.539,7.743C153.928,49.389,157.154,46.483,157.154,41.844z"/>
	<path d="M29.854,46.717v-9.98c0-2.099,0.078-3.214,0.785-3.848h-3.337c0.69,0.629,0.735,1.735,0.735,3.848v9.98
		c0,2.058-0.04,3.248-0.758,3.919h3.305C29.901,49.99,29.854,48.836,29.854,46.717"/>
	<path d="M42.104,35.128c0.167-0.051,0.354,0,0.46,0.146l11.531,15.362h2.14V36.736c0-2.099,0.078-3.214,0.787-3.848h-3.026
		c0.69,0.629,0.735,1.735,0.735,3.848V47.6c0,0.177-0.114,0.334-0.283,0.392c-0.167,0.053-0.352-0.002-0.46-0.143l-11.26-14.96
		h-3.234c0.743,0.633,0.782,1.66,0.782,3.445v10.383c0,2.058-0.039,3.248-0.755,3.919h3.032c-0.684-0.646-0.732-1.8-0.732-3.919
		V35.522C41.821,35.344,41.935,35.185,42.104,35.128"/>
	<path d="M74.135,32.516c-5.66,0-9.767,3.88-9.767,9.229c0,5.415,4.016,9.197,9.767,9.197c5.752,0,9.767-3.782,9.767-9.197
		C83.901,36.31,79.887,32.516,74.135,32.516 M74.251,49.802c-4.607,0-7.949-3.43-7.949-8.156c0-4.611,3.229-7.958,7.678-7.958
		c4.532,0,7.952,3.508,7.952,8.157C81.932,46.455,78.701,49.802,74.251,49.802z"/>
	<path d="M105.488,46.717v-9.98c0-2.099,0.08-3.214,0.787-3.848h-3.338c0.688,0.629,0.736,1.735,0.736,3.848v9.98
		c0,2.058-0.039,3.248-0.756,3.919h3.303C105.537,49.99,105.488,48.836,105.488,46.717"/>
	<path d="M117.738,35.128c0.168-0.051,0.357,0,0.461,0.146l11.533,15.362h2.139V36.736c0-2.099,0.078-3.214,0.787-3.848h-3.023
		c0.684,0.629,0.732,1.735,0.732,3.848V47.6c0,0.177-0.111,0.334-0.279,0.392c-0.17,0.052-0.355-0.002-0.461-0.143l-11.264-14.96
		h-3.23c0.744,0.633,0.781,1.66,0.781,3.445v10.383c0,2.058-0.037,3.248-0.754,3.919h3.031c-0.684-0.646-0.73-1.8-0.73-3.919V35.522
		C117.461,35.344,117.574,35.185,117.738,35.128"/>
	<path d="M149.771,32.516c-5.658,0-9.768,3.88-9.768,9.229c0,5.415,4.02,9.197,9.768,9.197c5.752,0,9.768-3.782,9.768-9.197
		C159.539,36.31,155.523,32.516,149.771,32.516 M149.891,49.802c-4.609,0-7.953-3.43-7.953-8.156c0-4.611,3.229-7.958,7.68-7.958
		c4.531,0,7.947,3.508,7.947,8.157C157.564,46.455,154.338,49.802,149.891,49.802z"/>
	<path d="M29.656,46.909v-9.979c0-2.101,0.077-3.216,0.786-3.849h-3.336c0.688,0.625,0.734,1.734,0.734,3.849v9.979
		c0,2.054-0.039,3.247-0.755,3.917h3.305C29.703,50.186,29.656,49.028,29.656,46.909"/>
	<path d="M41.908,35.32c0.167-0.053,0.354,0.003,0.46,0.143l11.533,15.363h2.139V36.931c0-2.101,0.079-3.216,0.785-3.849h-3.023
		c0.687,0.625,0.733,1.734,0.733,3.849v10.858c0,0.176-0.114,0.334-0.28,0.394c-0.168,0.054-0.354-0.002-0.46-0.146L42.533,33.082
		h-3.236c0.744,0.631,0.785,1.66,0.785,3.443V46.91c0,2.053-0.039,3.246-0.757,3.917h3.034c-0.685-0.641-0.732-1.799-0.732-3.917
		V35.709C41.627,35.533,41.741,35.377,41.908,35.32"/>
	<path d="M73.938,32.706c-5.658,0-9.766,3.883-9.766,9.229c0,5.418,4.018,9.199,9.766,9.199c5.751,0,9.769-3.781,9.769-9.199
		C83.707,36.505,79.69,32.706,73.938,32.706 M74.057,49.993c-4.607,0-7.951-3.431-7.951-8.161c0-4.608,3.23-7.955,7.677-7.955
		c4.535,0,7.952,3.508,7.952,8.162C81.735,46.65,78.506,49.993,74.057,49.993z"/>
	<path d="M105.293,46.909v-9.979c0-2.101,0.078-3.216,0.787-3.849h-3.336c0.689,0.625,0.73,1.734,0.73,3.849v9.979
		c0,2.054-0.037,3.247-0.758,3.917h3.307C105.34,50.186,105.293,49.028,105.293,46.909"/>
	<path d="M117.547,35.32c0.164-0.053,0.354,0.003,0.461,0.143l11.529,15.363h2.143V36.931c0-2.101,0.08-3.216,0.781-3.849h-3.023
		c0.689,0.625,0.736,1.734,0.736,3.849v10.858c0,0.176-0.113,0.334-0.283,0.394c-0.168,0.054-0.354-0.002-0.459-0.146l-11.26-14.956
		h-3.236c0.742,0.631,0.783,1.659,0.783,3.444v10.385c0,2.054-0.041,3.247-0.754,3.917h3.029c-0.682-0.641-0.73-1.798-0.73-3.917
		v-11.2C117.264,35.533,117.377,35.377,117.547,35.32"/>
	<path d="M149.574,32.706c-5.658,0-9.764,3.883-9.764,9.229c0,5.418,4.014,9.199,9.764,9.199c5.754,0,9.768-3.781,9.768-9.199
		C159.342,36.505,155.328,32.706,149.574,32.706 M149.693,49.993c-4.605,0-7.951-3.431-7.951-8.161c0-4.608,3.232-7.955,7.678-7.955
		c4.531,0,7.953,3.508,7.953,8.162C157.373,46.65,154.143,49.993,149.693,49.993z"/>
</g>
</svg>
