<?xml version="1.0" encoding="utf-8"?>
<!-- Generator: Adobe Illustrator 16.0.0, SVG Export Plug-In . SVG Version: 6.00 Build 0)  -->
<!DOCTYPE svg PUBLIC "-//W3C//DTD SVG 1.1//EN" "http://www.w3.org/Graphics/SVG/1.1/DTD/svg11.dtd">
<svg version="1.1" id="Layer_1" xmlns="http://www.w3.org/2000/svg" xmlns:xlink="http://www.w3.org/1999/xlink" x="0px" y="0px"
	 width="270px" height="91.26px" viewBox="-33.651 -12.137 270 91.26" enable-background="new -33.651 -12.137 270 91.26"
	 xml:space="preserve">
<g>
	<path fill="#FFFFFF" d="M70.663-8.175c2.191-0.226,4.285,0.563,6.282,2.376c1.157,1.488,2.479,3.567,3.96,6.237l0.658,0.534
		l3.063,6.326l1.109,2.005l0.424,1.163l1.53,3.164l1.203,2.898c0.322,1.177,0.864,2.531,1.625,4.057l1.651,4.366
		c0.5,0.955,0.933,2.216,1.296,3.79c0.761,1.53,1.471,3.571,2.135,6.119l0.359,0.572l1.838,6.15c0.503,0.957,0.935,2.22,1.298,3.794
		l0.12,1.191l1.299,3.795c0.178,1.792,0.386,3.33,0.622,4.615c0.231,1.287,0.824,2.683,1.784,4.199
		c1.254-1.541,2.367-3.465,3.331-5.782l6.663-14.569l0.651-2.479l0.505-0.959l1.337-4.665c0.495-1.053,0.955-2.41,1.395-4.065
		l0.503-0.958l1.738-9.541l-0.099-3.912l0.42-1.853c-0.009-2.017-0.461-4.485-1.368-7.414c-2.34-3.177-5.583-5.364-9.725-6.548
		c-2.236-0.174-4.383,0.448-6.451,1.867l-0.692-0.839c1.714-0.979,3.186-2.335,4.417-4.072l0.564-0.36l4.178-3.444l1.102-1.022
		c11.01-2.536,17.299,1.853,18.858,13.165c-0.053,1.413-0.29,3.047-0.706,4.904l-1.12,3.743l0.089,0.891l-4.127,9.785l-0.209,0.928
		l-0.987,2.215c-0.3,1.037-0.869,2.301-1.724,3.799l-0.684,2.184l-1.04,1.619l-1.959,4.427c-0.721,0.877-1.396,2.154-2.027,3.824
		l-1.959,4.43l-0.744,1.586c-1.232,1.74-2.079,3.332-2.531,4.787c-0.912,0.901-1.685,2.186-2.323,3.866l-0.534,0.654l-1.219,2.844
		c-0.876,1.3-1.798,3.1-2.769,5.416c-0.255,1.437-0.291,3.044-0.103,4.842c-0.536,0.661-0.953,1.508-1.251,2.545l-2.829,4.816
		l-1.045,1.615l0.096,0.898l-0.532,0.661l-1.202,0.12l-0.79-4.75c-0.842-1.836-0.992-3.651-1.773-5.555l-0.64-3.262
		c-0.118-1.189-0.463-2.563-1.024-4.122l-0.449-1.458l-1.326-4.095c-0.541-1.347-1.018-3.016-1.418-4.981
		c-0.501-0.958-0.934-2.222-1.296-3.795l-1.11-2.001l-1.325-4.093l-0.681-0.833c-0.446-2.369-1.448-5.287-3.011-8.751l-1.533-3.163
		l-0.479-1.764l-3.096-6.625c-0.938-1.313-1.711-2.947-2.312-4.897l-0.69-0.833l-1.141-2.303l-0.69-0.832l-0.448-1.462l-4.858-6.147
		l-1.914-1.013c-2.328,0.846-4.17,2.538-5.518,5.097l-0.895,0.088c0.732-2.69,2.287-5.163,4.675-7.423
		C64.552-3.023,67.082-5.795,70.663-8.175"/>
	<path fill="#FFFFFF" d="M-33.651,66.19c2.863-0.639,3.154-1.976,3.154-7.73V39.617c0-5.747-0.219-6.894-3.154-7.598v-0.446h11.371
		v0.446c-2.863,0.705-3.229,1.851-3.229,7.598V58.46c0,5.756,0.222,7.092,3.155,7.73v0.449h-11.297V66.19"/>
	<path fill="#FFFFFF" d="M-10.539,66.19c2.863-0.639,3.153-1.976,3.153-7.73V38.856c0-4.726-0.22-6.008-3.153-6.838v-0.446h8.95
		l21.495,28.555v-20.51c0-5.747-0.222-6.894-3.155-7.598v-0.446h10.785v0.446c-2.862,0.705-3.229,1.851-3.229,7.598V66.64h-5.209
		L-2.911,37.324V58.46c0,5.756,0.22,7.092,3.151,7.73v0.449H-10.54L-10.539,66.19"/>
	<path fill="#FFFFFF" d="M38.104,49.072c0-10.535,8.141-18.205,19.217-18.205c11.442,0,19.22,7.669,19.22,18.205
		c0,10.665-8.071,18.143-19.22,18.143C45.95,67.216,38.104,59.737,38.104,49.072 M71.26,49.261c0-8.808-6.459-14.622-14.231-14.622
		c-7.628,0-13.72,5.554-13.72,14.246c0,8.878,6.459,14.62,14.232,14.62C65.17,63.505,71.26,58.02,71.26,49.261z"/>
	<path fill="#FFFFFF" d="M109.153,66.19c2.866-0.639,3.156-1.976,3.156-7.73V39.617c0-5.747-0.224-6.894-3.156-7.598v-0.446h11.376
		v0.446c-2.866,0.705-3.23,1.851-3.23,7.598V58.46c0,5.756,0.223,7.092,3.156,7.73v0.449h-11.302V66.19"/>
	<path fill="#FFFFFF" d="M132.269,66.19c2.857-0.639,3.154-1.976,3.154-7.73V38.856c0-4.726-0.224-6.008-3.154-6.838v-0.446h8.944
		l21.494,28.554V39.617c0-5.747-0.215-6.894-3.154-7.598v-0.446h10.788v0.446c-2.858,0.705-3.23,1.851-3.23,7.598V66.64h-5.204
		l-22.005-29.315V58.46c0,5.755,0.216,7.092,3.147,7.729v0.449H132.27L132.269,66.19"/>
	<path fill="#FFFFFF" d="M180.904,49.072c0-10.535,8.146-18.205,19.222-18.205c11.441,0,19.224,7.669,19.224,18.205
		c0,10.665-8.072,18.143-19.224,18.143C188.76,67.216,180.904,59.737,180.904,49.072 M214.065,49.261
		c0-8.808-6.455-14.622-14.234-14.622c-7.625,0-13.714,5.554-13.714,14.246c0,8.878,6.453,14.62,14.235,14.62
		C207.975,63.505,214.065,58.02,214.065,49.261z"/>
	<path fill="#FFFFFF" d="M-26.285,58.46V39.617c0-3.963,0.147-6.069,1.481-7.265h-6.3c1.304,1.188,1.389,3.276,1.389,7.265V58.46
		c0,3.885-0.075,6.134-1.431,7.399h6.241C-26.195,64.642-26.285,62.462-26.285,58.46"/>
	<path fill="#FFFFFF" d="M-3.156,36.58c0.316-0.097,0.669,0,0.869,0.275l21.771,29.004h4.04V39.617c0-3.963,0.147-6.069,1.485-7.265
		h-5.714c1.304,1.188,1.388,3.276,1.388,7.265v20.51c0,0.334-0.215,0.632-0.534,0.74c-0.314,0.1-0.665-0.004-0.869-0.271
		L-1.979,32.353h-6.106c1.403,1.195,1.477,3.134,1.477,6.504V58.46c0,3.885-0.074,6.134-1.427,7.399h5.725
		c-1.292-1.218-1.381-3.397-1.381-7.399V37.324C-3.689,36.988-3.475,36.688-3.156,36.58"/>
	<path fill="#FFFFFF" d="M57.321,31.647c-10.687,0-18.44,7.326-18.44,17.425c0,10.224,7.582,17.365,18.44,17.365
		c10.86,0,18.439-7.142,18.439-17.365C75.76,38.812,68.181,31.647,57.321,31.647 M57.541,64.285c-8.698,0-15.009-6.476-15.009-15.4
		c0-8.706,6.096-15.025,14.497-15.025c8.557,0,15.014,6.623,15.014,15.401C72.042,57.967,65.942,64.285,57.541,64.285z"/>
	<path fill="#FFFFFF" d="M116.52,58.46V39.617c0-3.963,0.148-6.069,1.484-7.265h-6.301c1.298,1.188,1.389,3.276,1.389,7.265V58.46
		c0,3.885-0.074,6.134-1.426,7.399h6.234C116.608,64.642,116.52,62.462,116.52,58.46"/>
	<path fill="#FFFFFF" d="M139.647,36.58c0.317-0.097,0.675,0,0.868,0.275l21.778,29.004h4.038V39.617
		c0-3.963,0.147-6.069,1.484-7.265h-5.709c1.292,1.188,1.382,3.276,1.382,7.265v20.51c0,0.334-0.208,0.632-0.527,0.74
		c-0.317,0.097-0.668-0.004-0.87-0.271l-21.265-28.244h-6.102c1.405,1.195,1.479,3.134,1.479,6.504V58.46
		c0,3.885-0.073,6.134-1.425,7.399h5.725c-1.294-1.218-1.382-3.397-1.382-7.399V37.324C139.122,36.988,139.337,36.688,139.647,36.58
		"/>
	<path fill="#FFFFFF" d="M200.128,31.647c-10.685,0-18.441,7.326-18.441,17.425c0,10.224,7.588,17.365,18.441,17.365
		c10.861,0,18.441-7.142,18.441-17.365C218.569,38.812,210.989,31.647,200.128,31.647 M200.353,64.285
		c-8.704,0-15.015-6.476-15.015-15.4c0-8.706,6.096-15.025,14.5-15.025c8.555,0,15.005,6.623,15.005,15.401
		C214.843,57.967,208.749,64.285,200.353,64.285z"/>
	<path fill="#FFFFFF" d="M-26.658,58.824V39.983c0-3.966,0.145-6.072,1.484-7.267h-6.298c1.3,1.181,1.386,3.274,1.386,7.267v18.841
		c0,3.878-0.074,6.13-1.426,7.396h6.24C-26.569,65.009-26.658,62.824-26.658,58.824"/>
	<path fill="#FFFFFF" d="M-3.526,36.943c0.316-0.1,0.669,0.005,0.869,0.269L19.119,66.22h4.039V39.983
		c0-3.966,0.149-6.072,1.481-7.267h-5.708c1.297,1.181,1.384,3.274,1.384,7.267v20.502c0,0.332-0.215,0.63-0.529,0.742
		c-0.318,0.103-0.669-0.003-0.87-0.276L-2.346,32.716h-6.11c1.404,1.192,1.482,3.133,1.482,6.5v19.61
		c0,3.876-0.074,6.129-1.429,7.396h5.729c-1.293-1.21-1.381-3.397-1.381-7.396V37.678C-4.056,37.345-3.841,37.05-3.526,36.943"/>
	<path fill="#FFFFFF" d="M56.95,32.006c-10.682,0-18.439,7.332-18.439,17.425c0,10.229,7.585,17.368,18.439,17.368
		c10.859,0,18.443-7.14,18.443-17.368C75.394,39.18,67.809,32.006,56.95,32.006 M57.174,64.646c-8.698,0-15.013-6.477-15.013-15.408
		c0-8.701,6.1-15.02,14.495-15.02c8.561,0,15.014,6.623,15.014,15.409C71.67,58.335,65.575,64.646,57.174,64.646z"/>
	<path fill="#FFFFFF" d="M116.148,58.824V39.983c0-3.966,0.147-6.072,1.485-7.267h-6.297c1.3,1.181,1.38,3.274,1.38,7.267v18.841
		c0,3.878-0.072,6.13-1.432,7.396h6.244C116.237,65.009,116.148,62.824,116.148,58.824"/>
	<path fill="#FFFFFF" d="M139.284,36.943c0.313-0.1,0.668,0.005,0.87,0.269l21.77,29.008h4.047V39.983
		c0-3.966,0.148-6.072,1.475-7.267h-5.708c1.3,1.181,1.389,3.274,1.389,7.267v20.502c0,0.332-0.215,0.63-0.533,0.742
		c-0.317,0.103-0.668-0.003-0.868-0.276l-21.259-28.236h-6.11c1.401,1.192,1.478,3.132,1.478,6.501v19.608
		c0,3.878-0.076,6.13-1.424,7.396h5.721c-1.288-1.21-1.378-3.396-1.378-7.396V37.678C138.75,37.345,138.966,37.05,139.284,36.943"/>
	<path fill="#FFFFFF" d="M199.755,32.006c-10.684,0-18.436,7.332-18.436,17.425c0,10.229,7.581,17.368,18.436,17.368
		c10.863,0,18.443-7.14,18.443-17.368C218.198,39.18,210.618,32.006,199.755,32.006 M199.981,64.646
		c-8.696,0-15.015-6.477-15.015-15.408c0-8.701,6.103-15.02,14.498-15.02c8.555,0,15.015,6.623,15.015,15.409
		C214.479,58.335,208.379,64.646,199.981,64.646z"/>
</g>
</svg>
