<?xml version="1.0" encoding="utf-8"?>
<!-- Generator: Adobe Illustrator 16.0.0, SVG Export Plug-In . SVG Version: 6.00 Build 0)  -->
<!DOCTYPE svg PUBLIC "-//W3C//DTD SVG 1.1//EN" "http://www.w3.org/Graphics/SVG/1.1/DTD/svg11.dtd">
<svg version="1.1" id="Layer_1" xmlns="http://www.w3.org/2000/svg" xmlns:xlink="http://www.w3.org/1999/xlink" x="0px" y="0px"
	 width="208.999px" height="27.007px" viewBox="0 0 208.999 27.007" enable-background="new 0 0 208.999 27.007"
	 xml:space="preserve">
<g>
	<path fill-rule="evenodd" clip-rule="evenodd" fill="#FFFFFF" d="M205.862,22.425c0.471,0.975,0.958,1.836,1.481,2.586
		c0.517,0.756,1.071,1.422,1.655,1.996h-8.88c0.329-0.34,0.584-0.674,0.741-1.006c0.165-0.332,0.239-0.68,0.239-1.028
		c0-0.295-0.029-0.604-0.097-0.93s-0.157-0.613-0.271-0.87l-1.032-2.057h-16.936l-0.854,1.77c-0.112,0.279-0.209,0.59-0.285,0.922
		c-0.074,0.334-0.104,0.659-0.104,0.984c0,0.445,0.083,0.855,0.247,1.231c0.172,0.37,0.412,0.704,0.733,0.983h-8.924
		c0.599-0.604,1.146-1.262,1.646-1.98c0.494-0.719,0.996-1.59,1.49-2.602l10.198-20.429c0.135-0.295,0.224-0.53,0.275-0.688
		c0.053-0.167,0.076-0.311,0.076-0.447c0-0.083-0.03-0.211-0.089-0.363c-0.061-0.159-0.128-0.317-0.219-0.477L196.039,0
		c-0.119,0.234-0.202,0.424-0.254,0.567c-0.054,0.136-0.076,0.249-0.076,0.34c0,0.121,0.03,0.265,0.084,0.447
		c0.059,0.173,0.141,0.37,0.246,0.574L205.862,22.425L205.862,22.425z M184.613,17.062h13.35l-6.835-13.78L184.613,17.062
		L184.613,17.062z M6.843,3.547v18.604c0,1.302,0.165,2.329,0.494,3.086c0.33,0.749,0.861,1.339,1.609,1.77H0
		c0.749-0.431,1.287-1.021,1.625-1.77c0.337-0.757,0.501-1.784,0.501-3.086V4.87c0-1.323-0.164-2.367-0.501-3.124
		C1.287,0.998,0.749,0.416,0,0h11.006c-0.083,0.174-0.15,0.332-0.195,0.468c-0.045,0.128-0.067,0.265-0.067,0.393
		c0,0.121,0.022,0.258,0.067,0.424c0.045,0.16,0.112,0.355,0.195,0.575l8.138,20.253l8.311-20.298
		c0.075-0.205,0.127-0.378,0.165-0.522c0.037-0.136,0.06-0.25,0.06-0.34c0-0.106-0.022-0.227-0.067-0.378
		C27.566,0.43,27.484,0.234,27.371,0h11.231c-0.742,0.416-1.288,0.998-1.625,1.747c-0.337,0.756-0.502,1.8-0.502,3.124v17.281
		c0,1.285,0.15,2.277,0.442,2.973c0.291,0.695,0.785,1.324,1.489,1.883h-8.977c0.704-0.559,1.198-1.188,1.489-1.876
		c0.293-0.68,0.442-1.678,0.442-2.979V4.008l-9.217,21.269c-0.007,0.045-0.037,0.12-0.082,0.227c-0.12,0.311-0.18,0.537-0.18,0.688
		c0,0.084,0.022,0.196,0.067,0.34s0.112,0.303,0.194,0.477h-6.222c0.053-0.189,0.105-0.354,0.15-0.484
		c0.045-0.136,0.066-0.219,0.066-0.248c0-0.159-0.097-0.469-0.284-0.932c-0.015-0.045-0.029-0.076-0.045-0.105L6.843,3.547
		L6.843,3.547z M43.49,25.669c0.674-0.374,1.16-0.899,1.463-1.581c0.305-0.675,0.452-1.581,0.452-2.712V5.63
		c0-1.117-0.155-2.017-0.465-2.705c-0.311-0.688-0.79-1.213-1.45-1.587h24.773c-0.114,0.415-0.195,0.715-0.235,0.899
		c-0.041,0.184-0.061,0.34-0.061,0.457c0,0.231,0.155,0.776,0.465,1.648c0.311,0.873,0.554,1.622,0.722,2.249
		c-1.039-0.613-2.267-1.057-3.676-1.336c-1.41-0.279-3.15-0.422-5.234-0.422H50.167v6.527h11.345c0.573,0,1.134-0.048,1.667-0.149
		c0.533-0.103,1.059-0.259,1.571-0.47l-1.66,2.833c-0.249,0.417-0.579,0.723-0.977,0.921c-0.405,0.197-0.885,0.299-1.451,0.299
		H50.167v7.4h10.415c2.029,0,3.871-0.205,5.523-0.62c1.653-0.415,2.981-1.001,3.979-1.759c-0.195,0.546-0.52,1.328-0.958,2.359
		c-0.445,1.021-0.66,1.709-0.66,2.057c0,0.198,0.013,0.415,0.047,0.66c0.033,0.239,0.081,0.499,0.148,0.777H43.49L43.49,25.669z
		 M82.194,4.731l0.297,16.565c0.027,1.267,0.182,2.213,0.466,2.833c0.283,0.628,0.755,1.138,1.43,1.54h-8.175
		c0.688-0.389,1.174-0.912,1.47-1.574c0.298-0.668,0.445-1.601,0.445-2.799V5.726c0-1.192-0.147-2.125-0.445-2.8
		c-0.296-0.675-0.782-1.199-1.47-1.587l9.679,0.02c-0.067,0.123-0.114,0.225-0.148,0.32c-0.033,0.088-0.054,0.17-0.054,0.238
		c0,0.083,0.021,0.164,0.061,0.259c0.04,0.096,0.128,0.252,0.256,0.477L97.91,21.697L97.829,5.726c0-1.179-0.148-2.119-0.452-2.814
		c-0.304-0.688-0.782-1.212-1.443-1.573h7.966c-0.647,0.388-1.106,0.852-1.376,1.396c-0.27,0.545-0.405,1.485-0.405,2.814v0.259
		v17.605c0,0.532,0.041,0.961,0.129,1.288c0.087,0.327,0.229,0.648,0.425,0.968h-7.845c0.081-0.137,0.142-0.26,0.189-0.381
		c0.047-0.116,0.067-0.225,0.067-0.32c0-0.063-0.027-0.158-0.081-0.28c-0.054-0.115-0.135-0.272-0.256-0.456L82.194,4.731
		L82.194,4.731z M137.343,21.541c0.425,0.879,0.862,1.654,1.335,2.329c0.465,0.683,0.966,1.281,1.49,1.799h-7.998
		c0.297-0.307,0.525-0.605,0.667-0.906c0.148-0.299,0.216-0.613,0.216-0.927c0-0.265-0.027-0.545-0.088-0.838
		c-0.061-0.292-0.142-0.552-0.242-0.782l-0.932-1.854h-15.256l-0.77,1.595c-0.101,0.252-0.189,0.531-0.257,0.83
		c-0.067,0.301-0.094,0.594-0.094,0.887c0,0.401,0.074,0.77,0.223,1.109c0.155,0.336,0.371,0.635,0.661,0.887h-8.04
		c0.54-0.545,1.031-1.137,1.484-1.785c0.444-0.648,0.896-1.431,1.342-2.343l9.187-18.404c0.122-0.267,0.203-0.477,0.249-0.62
		c0.047-0.15,0.067-0.279,0.067-0.402c0-0.075-0.026-0.191-0.081-0.327c-0.054-0.143-0.113-0.286-0.194-0.429l8.18-0.02
		c-0.106,0.21-0.182,0.381-0.228,0.51c-0.048,0.123-0.067,0.225-0.067,0.307c0,0.109,0.026,0.239,0.073,0.403
		c0.054,0.156,0.129,0.333,0.222,0.517L137.343,21.541L137.343,21.541z M118.201,16.71h12.025l-6.158-12.416L118.201,16.71
		L118.201,16.71z M157.68,1.338c2.503,0,4.561,0.19,6.172,0.565c1.619,0.381,2.988,0.988,4.121,1.813
		c1.437,1.049,2.55,2.398,3.34,4.047c0.789,1.649,1.187,3.461,1.187,5.43c0,8.925-6.597,12.476-14.644,12.476h-12.842
		c0.688-0.389,1.174-0.912,1.471-1.581c0.297-0.661,0.445-1.594,0.445-2.792V5.732c0-1.199-0.148-2.132-0.445-2.807
		s-0.783-1.199-1.471-1.587H157.68L157.68,1.338z M151.69,22.194h5.274c3.703,0,6.382-0.701,8.034-2.099s2.481-3.638,2.481-6.726
		c0-3.045-0.836-5.225-2.508-6.554c-1.674-1.322-4.493-1.983-8.459-1.983h-4.823V22.194L151.69,22.194z"/>
</g>
</svg>
