<?xml version="1.0" encoding="utf-8"?>
<!-- Generator: Adobe Illustrator 16.0.0, SVG Export Plug-In . SVG Version: 6.00 Build 0)  -->
<!DOCTYPE svg PUBLIC "-//W3C//DTD SVG 1.1//EN" "http://www.w3.org/Graphics/SVG/1.1/DTD/svg11.dtd">
<svg version="1.1" id="Layer_1" xmlns="http://www.w3.org/2000/svg" xmlns:xlink="http://www.w3.org/1999/xlink" x="0px" y="0px"
	 width="109.009px" height="13.981px" viewBox="0 0 109.009 13.981" enable-background="new 0 0 109.009 13.981"
	 xml:space="preserve">
<g>
	<path fill-rule="evenodd" clip-rule="evenodd" fill="#101010" d="M107.373,11.608c0.246,0.506,0.5,0.951,0.773,1.34
		c0.27,0.391,0.559,0.735,0.863,1.033h-4.632c0.171-0.177,0.305-0.35,0.387-0.521c0.085-0.172,0.124-0.352,0.124-0.533
		c0-0.152-0.015-0.313-0.051-0.48c-0.034-0.168-0.081-0.317-0.141-0.45l-0.538-1.065h-8.833l-0.445,0.916
		c-0.059,0.145-0.109,0.306-0.148,0.478c-0.039,0.173-0.055,0.342-0.055,0.51c0,0.231,0.043,0.442,0.129,0.638
		c0.09,0.191,0.215,0.365,0.383,0.51h-4.654c0.313-0.313,0.598-0.654,0.858-1.026c0.258-0.372,0.52-0.822,0.777-1.347L97.49,1.033
		c0.07-0.153,0.117-0.274,0.144-0.356c0.027-0.086,0.04-0.161,0.04-0.231c0-0.043-0.017-0.11-0.047-0.188
		c-0.031-0.082-0.066-0.164-0.114-0.247L102.25,0c-0.063,0.121-0.105,0.219-0.133,0.293c-0.028,0.071-0.039,0.129-0.039,0.176
		c0,0.063,0.016,0.137,0.043,0.232c0.031,0.089,0.074,0.191,0.129,0.297L107.373,11.608L107.373,11.608z M96.291,8.832h6.962
		l-3.565-7.133L96.291,8.832L96.291,8.832z M3.569,1.836v9.632c0,0.674,0.086,1.205,0.258,1.598
		c0.172,0.387,0.449,0.693,0.839,0.916H0c0.391-0.223,0.671-0.529,0.847-0.916c0.176-0.393,0.262-0.924,0.262-1.598V2.521
		c0-0.685-0.086-1.225-0.262-1.617C0.671,0.516,0.391,0.215,0,0h5.74C5.697,0.09,5.662,0.172,5.639,0.243
		C5.615,0.309,5.604,0.38,5.604,0.446c0,0.063,0.012,0.133,0.035,0.219C5.662,0.748,5.697,0.849,5.74,0.962l4.245,10.486
		l4.334-10.509c0.039-0.106,0.066-0.196,0.086-0.271c0.02-0.07,0.031-0.129,0.031-0.177c0-0.054-0.012-0.117-0.035-0.195
		C14.378,0.223,14.335,0.121,14.276,0h5.857c-0.387,0.215-0.671,0.516-0.847,0.904c-0.176,0.392-0.262,0.932-0.262,1.617v8.947
		c0,0.665,0.078,1.179,0.23,1.539c0.152,0.359,0.41,0.686,0.777,0.975h-4.682c0.367-0.289,0.625-0.615,0.777-0.971
		c0.152-0.354,0.23-0.869,0.23-1.543V2.074l-4.807,11.011c-0.004,0.023-0.02,0.063-0.043,0.117c-0.063,0.16-0.094,0.278-0.094,0.355
		c0,0.044,0.012,0.102,0.035,0.176c0.023,0.075,0.059,0.157,0.102,0.248H8.306c0.027-0.099,0.055-0.185,0.078-0.252
		c0.024-0.07,0.035-0.113,0.035-0.128c0-0.082-0.051-0.243-0.148-0.481c-0.008-0.023-0.016-0.04-0.023-0.055L3.569,1.836
		L3.569,1.836z M22.684,13.288c0.352-0.193,0.605-0.465,0.763-0.818c0.158-0.35,0.236-0.818,0.236-1.404V2.914
		c0-0.578-0.081-1.043-0.243-1.4c-0.162-0.356-0.412-0.627-0.756-0.821h12.921c-0.06,0.215-0.102,0.371-0.123,0.465
		C35.46,1.253,35.45,1.334,35.45,1.395c0,0.119,0.081,0.402,0.243,0.853c0.162,0.452,0.289,0.84,0.376,1.165
		c-0.542-0.318-1.182-0.547-1.917-0.692c-0.735-0.144-1.643-0.218-2.729-0.218h-5.256v3.379h5.917c0.299,0,0.591-0.025,0.869-0.078
		c0.278-0.052,0.553-0.134,0.82-0.243l-0.866,1.467c-0.13,0.215-0.302,0.374-0.51,0.477c-0.211,0.102-0.461,0.155-0.756,0.155
		h-5.474v3.831h5.432c1.059,0,2.019-0.105,2.881-0.32c0.862-0.216,1.555-0.519,2.076-0.91c-0.102,0.281-0.271,0.688-0.5,1.221
		c-0.232,0.528-0.345,0.885-0.345,1.064c0,0.104,0.007,0.215,0.025,0.342c0.017,0.125,0.042,0.258,0.077,0.402H22.684L22.684,13.288
		z M42.871,2.449l0.155,8.576c0.014,0.655,0.095,1.146,0.243,1.467c0.148,0.324,0.394,0.589,0.746,0.797H39.75
		c0.359-0.201,0.612-0.473,0.767-0.814c0.155-0.346,0.232-0.829,0.232-1.449V2.963c0-0.617-0.078-1.1-0.232-1.45
		c-0.155-0.349-0.408-0.621-0.767-0.821l5.048,0.011c-0.035,0.063-0.06,0.117-0.078,0.166c-0.017,0.046-0.028,0.088-0.028,0.124
		c0,0.042,0.011,0.084,0.032,0.134c0.021,0.049,0.067,0.13,0.133,0.247l6.209,9.858l-0.042-8.268c0-0.609-0.078-1.097-0.236-1.457
		c-0.158-0.356-0.408-0.627-0.753-0.814h4.155c-0.338,0.201-0.577,0.441-0.718,0.723c-0.141,0.282-0.211,0.769-0.211,1.456v0.134
		v9.114c0,0.275,0.021,0.498,0.067,0.667c0.045,0.169,0.12,0.336,0.222,0.501h-4.092c0.042-0.07,0.074-0.134,0.099-0.197
		c0.024-0.06,0.035-0.116,0.035-0.166c0-0.032-0.014-0.081-0.042-0.145c-0.028-0.061-0.07-0.141-0.134-0.236L42.871,2.449
		L42.871,2.449z M71.634,11.151c0.222,0.455,0.45,0.856,0.697,1.205c0.242,0.354,0.503,0.664,0.777,0.932h-4.172
		c0.154-0.158,0.273-0.313,0.348-0.469c0.077-0.155,0.112-0.317,0.112-0.48c0-0.137-0.014-0.282-0.046-0.434
		c-0.031-0.15-0.074-0.285-0.126-0.405l-0.485-0.96h-7.958l-0.401,0.826c-0.053,0.13-0.099,0.275-0.134,0.43
		c-0.035,0.155-0.049,0.308-0.049,0.459c0,0.208,0.039,0.398,0.116,0.575c0.08,0.173,0.193,0.328,0.345,0.458h-4.193
		c0.281-0.281,0.538-0.589,0.774-0.924c0.231-0.336,0.467-0.74,0.699-1.213l4.792-9.528c0.063-0.138,0.105-0.248,0.13-0.321
		c0.023-0.078,0.035-0.145,0.035-0.208c0-0.039-0.014-0.099-0.043-0.169c-0.027-0.074-0.059-0.148-0.102-0.222l4.268-0.011
		C66.962,0.802,66.923,0.89,66.9,0.957c-0.025,0.063-0.035,0.117-0.035,0.159c0,0.057,0.014,0.124,0.038,0.208
		c0.028,0.082,0.067,0.173,0.116,0.268L71.634,11.151L71.634,11.151z M61.651,8.649h6.272l-3.212-6.426L61.651,8.649L61.651,8.649z
		 M82.242,0.692c1.306,0,2.379,0.099,3.22,0.293c0.844,0.197,1.558,0.512,2.149,0.938c0.749,0.544,1.33,1.242,1.742,2.096
		c0.41,0.854,0.618,1.792,0.618,2.812c0,4.62-3.44,6.458-7.638,6.458h-6.697c0.357-0.201,0.611-0.473,0.766-0.818
		c0.155-0.342,0.232-0.825,0.232-1.445V2.968c0-0.621-0.077-1.104-0.232-1.454c-0.154-0.349-0.408-0.621-0.766-0.821H82.242
		L82.242,0.692z M79.119,11.489h2.75c1.932,0,3.329-0.363,4.191-1.086c0.861-0.723,1.294-1.884,1.294-3.482
		c0-1.576-0.437-2.705-1.309-3.393c-0.872-0.684-2.343-1.026-4.412-1.026h-2.515V11.489L79.119,11.489z"/>
</g>
</svg>
