<?xml version="1.0" encoding="utf-8"?>
<!-- Generator: Adobe Illustrator 16.0.0, SVG Export Plug-In . SVG Version: 6.00 Build 0)  -->
<!DOCTYPE svg PUBLIC "-//W3C//DTD SVG 1.1//EN" "http://www.w3.org/Graphics/SVG/1.1/DTD/svg11.dtd">
<svg version="1.1" id="Isolation_Mode" xmlns="http://www.w3.org/2000/svg" xmlns:xlink="http://www.w3.org/1999/xlink" x="0px"
	 y="0px" width="255px" height="300.69px" viewBox="0 0 255 300.69" enable-background="new 0 0 255 300.69" xml:space="preserve">
<g>
	<g>
		<path fill="#2A2A2A" d="M170.446,123.691v11.039h7.412c-1.296-3.037-2.136-6.745-2.492-11.039H170.446z M180.942,130.891
			c0.088,0.143,0.229,0.24,0.401,0.278c0.037,0.007,0.082,0.015,0.134,0.015c0.296,0,0.543-0.204,0.604-0.494
			c3.562-16.574,0.033-30.965-0.006-31.108c-0.036-0.139-0.121-0.258-0.26-0.355c-0.072-0.018-0.105-0.025-0.133-0.036
			c-0.094-0.036-0.19-0.074-0.29-0.074c-0.027,0-0.052,0.003-0.072,0.011c-0.333,0.086-0.535,0.423-0.453,0.753
			c0.147,0.597,3.422,14.599,0,30.556C180.827,130.594,180.857,130.753,180.942,130.891z M54.75,161.389
			c0.309,0.16,0.686,0.014,0.828-0.275c7.651-15.484,2.338-40.117,1.081-45.332l-0.625,0.061l-0.583,0.234
			c1.235,5.138,6.485,29.351-0.991,44.478C54.313,160.86,54.439,161.241,54.75,161.389z M55.436,167.302v19.06
			c1.299-0.414,2.432-0.768,3.54-1.094c-0.042-0.136-0.069-0.278-0.069-0.435v-24.067C57.511,164.343,56.067,166.472,55.436,167.302
			z M72.112,117.602c0.716-0.341,2.172-0.903,4.377-1.148v-1.765c-2.507,0.39-3.905,1.025-3.924,1.037
			c-0.136,0.067-0.287,0.107-0.453,0.117V117.602z M74.173,109.943c0-0.159,0.036-0.315,0.105-0.452
			c-0.798,0.219-1.501,0.438-2.166,0.681v3.266c0.469-0.186,1.15-0.417,2.061-0.645V109.943z M94.28,93.677v15.884l2.679-2.276
			c-0.193-0.327-0.283-0.649-0.283-0.979V93.677H94.28z M78.341,112.186v-3.36c0-0.065,0.012-0.121,0.024-0.178
			c-0.773,0.102-1.559,0.242-2.348,0.413c0.275,0.204,0.438,0.522,0.438,0.883v2.427C77.054,112.29,77.683,112.227,78.341,112.186z
			 M174.603,119.967l-4.042-3.49H126.18c-0.68,0-1.235-0.551-1.235-1.232c0-0.68,0.556-1.232,1.235-1.232H167.7l-3.289-2.836
			h-27.013c-0.686,0-1.232-0.554-1.232-1.232c0-0.68,0.547-1.231,1.232-1.231h24.149l-2.801-2.415
			c-0.051,0.035-0.12,0.069-0.214,0.069h-15.595c-0.68,0-1.232-0.554-1.232-1.232c0-0.68,0.553-1.232,1.232-1.232h13.033
			l-3.108-2.679h-42.964L87.74,119.967H174.603z M72.264,124.179c-0.055,0.026-0.106,0.045-0.151,0.055v10.496h19.706v-11.039
			h-9.161c-0.779,0-1.48-0.489-1.746-1.219c-0.266-0.735-0.051-1.563,0.544-2.064l8.874-7.511c-0.16-0.315-0.238-0.604-0.238-0.908
			v-1.755c-0.599-0.294-1.248-0.565-1.997-0.814c-0.147-0.05-0.302-0.091-0.462-0.13c-0.091-0.024-0.178-0.048-0.269-0.076
			c-0.599-0.169-1.088-0.294-1.55-0.39c-0.244-0.05-0.495-0.08-0.749-0.118l-0.16-0.022c-0.547-0.084-1.045-0.142-1.517-0.178
			c-0.329-0.026-0.661-0.041-0.993-0.051c-0.616-0.02-1.229-0.038-1.861-0.008c0.058,0.11,0.091,0.237,0.091,0.377v3.306h0.411
			c0.169,0,0.345,0.003,0.522,0.009c0.305,0.012,0.589,0.145,0.791,0.368c0.206,0.225,0.314,0.515,0.3,0.82
			c-0.013,0.297-0.13,0.571-0.333,0.775c-0.061,0.065-0.139,0.086-0.187,0.101l-0.101,0.045c-0.12,0.078-0.277,0.173-0.489,0.173
			h-0.051c-0.368-0.015-0.701-0.022-1.019-0.022c-0.556,0-1.12,0.02-1.748,0.056c0.03,0.071,0.054,0.153,0.054,0.243v1.644
			c0.13-0.006,0.272-0.003,0.42-0.003c0.103,0,0.206,0.003,0.312,0.005c0.317,0.007,0.595,0.134,0.807,0.356
			c0.208,0.223,0.32,0.513,0.311,0.823c-0.021,0.619-0.525,1.107-1.145,1.107l-0.193-0.004c-0.133,0-0.251,0.004-0.375,0.008
			l-0.269,0.003c-0.899,0.009-1.706,0.069-2.398,0.175l-0.26,0.038c-0.646,0.112-1.241,0.245-1.725,0.391l-0.124,0.041
			c-0.456,0.149-0.821,0.287-1.063,0.398l-0.07,0.036c-0.175,0.083-0.313,0.16-0.332,0.171c-0.16,0.105-0.356,0.166-0.559,0.18
			v1.631c1.081-0.497,2.894-1.209,4.618-1.291l0.069-0.003c0.182,0,0.33,0.084,0.45,0.163l0.076,0.036
			c0.084,0.032,0.16,0.048,0.227,0.113c0.227,0.207,0.365,0.48,0.374,0.771c0.03,0.63-0.456,1.169-1.084,1.198
			c-0.127,0.008-0.257,0.023-0.387,0.041v3.096c0,0.631-0.511,1.142-1.136,1.142c-0.635,0-1.147-0.511-1.147-1.142v-2.508
			C73.224,123.668,72.48,124.057,72.264,124.179z M44.118,190.681c2.353-1.082,5.038-2.155,7.98-3.188v-20.25
			c-16.19-20.265,0.429-59.7,1.145-61.372c0.136-0.315,0.335-0.564,0.604-0.737c0.076-0.053,0.164-0.068,0.233-0.08
			c0.026-0.007,0.066-0.011,0.087-0.018l0.094-0.042c0.143-0.059,0.306-0.126,0.52-0.126h0.069c0.704,0.038,1.317,0.507,1.517,1.167
			c3.211,10.202,5.129,19.856,5.709,28.695h7.5v-25.436c0-0.522,0.311-0.988,0.804-1.184c0.876-0.347,1.778-0.66,2.772-0.954
			c0.169-0.047,0.335-0.088,0.498-0.13c0.115-0.026,0.224-0.053,0.342-0.08c0.649-0.18,1.29-0.352,1.927-0.482
			c0.199-0.04,0.399-0.069,0.593-0.097l0.419-0.069c0.563-0.095,1.146-0.195,1.713-0.255c0.257-0.03,0.511-0.044,0.765-0.059
			l0.316-0.022c0.532-0.038,1.066-0.074,1.593-0.077c0.042-0.004,0.084-0.007,0.133-0.007c0.133-0.017,0.269-0.014,0.398,0.003
			c0.045,0.007,0.091,0.015,0.136,0.015c1.48,0.018,2.86,0.148,4.105,0.38c0.066,0.008,0.136,0.026,0.199,0.047
			c0.048,0.011,0.1,0.02,0.145,0.032c1.368,0.281,2.567,0.637,3.658,1.08V91.584c0-1.155,0.937-2.093,2.093-2.093h6.588
			c1.157,0,2.094,0.938,2.094,2.093v12.401l7.146-6.045c0.335-0.286,0.767-0.442,1.202-0.442h44.342c0.449,0,0.885,0.16,1.217,0.455
			l20.419,17.602c0.58-13.123,4.494-26.084,4.53-26.212c0.17-0.542,0.713-0.924,1.317-0.927c0.619,0.021,1.13,0.452,1.257,1.056
			c5.953,28.759,3.374,40.645,1.175,45.26h16.341c1.99-10.352,5.015-18.466,5.142-18.804c0.205-0.551,0.694-0.888,1.452-1.003
			c0.701,0.026,1.275,0.459,1.469,1.082c11.568,36.802,1.432,51.873-0.855,54.653v14.934c2.045,0.597,3.945,1.211,6.129,1.96
			c4.688-11.034,7.146-23.063,7.315-35.762c0.32-24.779-9.028-48.193-26.317-65.938c-17.299-17.746-40.467-27.697-65.25-28.02
			l-1.224-0.006c-50.473,0-92.071,41.07-92.73,91.557C34.754,164.317,37.835,178.21,44.118,190.681z M190.705,272.714
			l-11.723-27.059c-5.383,2.956-11.101,5.479-17.019,7.496l9.192,19.563H190.705z M144.78,257.479l2.586,8.25
			c0.205-0.486,0.646-0.866,1.205-0.966l11.479-2.075c0.096-0.017,0.193-0.023,0.296-0.023h0.048l0.082,0.034
			c0.311,0.017,0.609,0.122,0.852,0.319c0.033,0.025,0.058,0.047,0.075,0.067c0.29,0.278,0.462,0.577,0.522,0.905
			c0.16,0.875-0.423,1.718-1.305,1.875l-11.475,2.075c-0.42,0.079-0.798-0.013-1.16-0.249l1.573,5.021h15.743l-3.999-19.338
			C155.878,255.186,150.32,256.567,144.78,257.479z M157.805,259.25l-9.502,1.753c-0.069,0.016-0.143,0.02-0.212,0.02
			c-0.55,0-1.018-0.389-1.117-0.93c-0.118-0.618,0.293-1.216,0.915-1.331l9.5-1.759c0.214-0.046,0.44,0.021,0.583,0.095l0.072,0.041
			c0.018,0.005,0.033,0.007,0.048,0.007c0.043,0.014,0.109,0.027,0.179,0.076c0.241,0.183,0.398,0.422,0.447,0.697
			C158.832,258.537,158.425,259.132,157.805,259.25z M127.246,254.746c57.092,0,103.541-46.448,103.541-103.54
			c0-57.09-46.449-103.535-103.541-103.535c-57.088,0-103.532,46.445-103.532,103.535
			C23.714,208.298,70.158,254.746,127.246,254.746z M117.834,230.807c-0.051,0.229-0.293,0.401-0.537,0.343l-1.232-0.282
			l-2.305,9.924l1.22,0.278c0.118,0.027,0.221,0.102,0.29,0.203c0.066,0.106,0.082,0.231,0.052,0.348l-0.384,1.676
			c-0.027,0.114-0.097,0.22-0.205,0.283c-0.076,0.045-0.154,0.07-0.242,0.07c-0.03,0-0.063-0.006-0.097-0.013l-5.132-1.194
			c-0.241-0.057-0.393-0.303-0.341-0.547l0.381-1.669c0.023-0.12,0.096-0.221,0.208-0.287c0.075-0.044,0.163-0.063,0.254-0.063
			l0.042,0.002l1.175,0.27l1.746-7.509l-6.216,9.173c-0.094,0.15-0.278,0.245-0.478,0.189c-0.185-0.035-0.323-0.189-0.351-0.373
			l-1.697-11.1l-1.758,7.586l1.108,0.256c0.114,0.03,0.224,0.102,0.287,0.207c0.063,0.103,0.084,0.229,0.054,0.346l-0.384,1.664
			c-0.057,0.232-0.274,0.348-0.468,0.348l-0.045-0.003l-4.921-1.134c-0.118-0.029-0.227-0.1-0.29-0.204
			c-0.063-0.106-0.081-0.233-0.058-0.347l0.387-1.666c0.055-0.234,0.306-0.4,0.541-0.34l1.229,0.286l2.305-9.929l-1.224-0.28
			c-0.118-0.026-0.224-0.101-0.29-0.204c-0.066-0.107-0.081-0.232-0.055-0.348l0.387-1.668c0.027-0.113,0.1-0.214,0.206-0.284
			c0.1-0.053,0.214-0.082,0.332-0.053l4.452,1.03c0.182,0.044,0.317,0.192,0.345,0.376l1.443,9.436l5.319-7.862
			c0.091-0.123,0.232-0.195,0.396-0.195l0.094,0.008l4.498,1.043c0.114,0.023,0.22,0.099,0.283,0.2
			c0.066,0.104,0.085,0.232,0.058,0.346L117.834,230.807z M125.742,197.966h19.021c0.74,0,1.332,0.595,1.332,1.329
			c0,0.736-0.592,1.329-1.332,1.329h-19.021c-0.734,0-1.329-0.593-1.329-1.329C124.413,198.561,125.008,197.966,125.742,197.966z
			 M125.676,192.458c0-0.737,0.595-1.329,1.326-1.329h7.497c0.728,0,1.325,0.592,1.325,1.329c0,0.735-0.598,1.329-1.325,1.329
			h-7.497C126.271,193.787,125.676,193.193,125.676,192.458z M148.356,207.542c0.737,0,1.336,0.595,1.336,1.329
			c0,0.736-0.599,1.329-1.336,1.329h-32.501c-0.736,0-1.332-0.593-1.332-1.329c0-0.734,0.596-1.329,1.332-1.329H148.356z
			 M149.447,216.4c0,0.735-0.595,1.328-1.323,1.328H131.33c-0.731,0-1.326-0.592-1.326-1.328c0-0.734,0.595-1.331,1.326-1.331
			h16.794C148.853,215.07,149.447,215.667,149.447,216.4z M131.128,243.048c-1.242,0.869-2.677,1.311-4.274,1.311h-0.1
			c-2.277-0.023-4.15-0.802-5.573-2.305c-1.407-1.486-2.114-3.42-2.084-5.742c0.024-2.286,0.782-4.189,2.235-5.649
			c1.435-1.433,3.289-2.157,5.513-2.157h0.108c1.254,0.021,2.404,0.351,3.413,0.97c0.137,0.085,0.27,0.179,0.411,0.278l0.006-0.512
			c0-0.123,0.049-0.239,0.136-0.32c0.079-0.079,0.193-0.132,0.314-0.132l1.722,0.022c0.121,0,0.235,0.052,0.326,0.141
			c0.075,0.077,0.121,0.195,0.121,0.32l-0.061,4.848c-0.003,0.251-0.208,0.451-0.456,0.451l-1.713-0.021
			c-0.175,0-0.338-0.101-0.414-0.267c-0.097-0.214-0.189-0.438-0.286-0.664l-0.091-0.209c-0.293-0.57-0.692-1.065-1.169-1.45
			c-0.671-0.541-1.423-0.812-2.296-0.826h-0.088c-1.374,0-2.455,0.444-3.319,1.358c-0.891,0.943-1.354,2.242-1.371,3.865
			c-0.019,1.603,0.404,2.918,1.266,3.9c0.864,0.977,1.966,1.459,3.377,1.475h0.078c0.919,0,1.779-0.303,2.553-0.9
			c0.813-0.626,1.365-1.452,1.67-2.524c0.03-0.122,0.118-0.227,0.239-0.284c0.108-0.057,0.269-0.061,0.383-0.004l1.729,0.717
			c0.214,0.084,0.332,0.317,0.271,0.539C133.267,240.885,132.405,242.153,131.128,243.048z M155.319,240.251
			c-0.072,0.109-0.185,0.182-0.302,0.203l-5.147,1.074c-0.169,0.031-0.254,0.006-0.348-0.063c-0.094-0.058-0.169-0.165-0.193-0.286
			l-0.354-1.679c-0.023-0.116,0-0.237,0.066-0.34c0.07-0.108,0.173-0.181,0.297-0.202l1.133-0.238l-1.577-7.543l-1.785,10.941
			c-0.027,0.186-0.172,0.332-0.354,0.371l-0.085,0.008c-0.162,0-0.313-0.076-0.393-0.201l-6.204-9.354l1.592,7.625l1.118-0.23
			c0.039-0.008,0.069-0.008,0.094-0.008c0.1,0,0.189,0.024,0.253,0.07c0.094,0.06,0.173,0.168,0.196,0.286l0.348,1.678
			c0.052,0.245-0.108,0.491-0.356,0.538l-4.908,1.027c-0.024,0.007-0.058,0.012-0.094,0.012c-0.214,0-0.407-0.152-0.447-0.365
			l-0.353-1.674c-0.046-0.246,0.111-0.486,0.353-0.537l1.235-0.26l-2.09-9.97l-1.229,0.252c-0.247,0.05-0.489-0.106-0.537-0.352
			l-0.354-1.672c-0.052-0.249,0.108-0.491,0.354-0.541l4.461-0.938c0.03-0.007,0.066-0.01,0.094-0.01
			c0.154,0,0.293,0.077,0.374,0.202l5.28,7.961l1.525-9.376c0.03-0.19,0.175-0.336,0.359-0.371l4.521-0.944
			c0.033-0.006,0.07-0.006,0.088-0.006c0.1,0,0.19,0.022,0.263,0.074c0.085,0.055,0.166,0.163,0.188,0.283l0.348,1.674
			c0.054,0.244-0.104,0.487-0.351,0.535l-1.227,0.262l2.084,9.974l1.229-0.253c0.036-0.012,0.069-0.014,0.1-0.014
			c0.209,0,0.398,0.153,0.441,0.359l0.351,1.678C155.403,240.025,155.383,240.146,155.319,240.251z M165.097,236.354l-5.397,2.172
			c-0.069,0.02-0.121,0.027-0.166,0.027c-0.063,0-0.124-0.012-0.185-0.033c-0.108-0.046-0.199-0.132-0.245-0.247l-0.637-1.592
			c-0.094-0.233,0.018-0.501,0.254-0.597l1.371-0.553l-3.797-9.448l-1.378,0.549c-0.142,0.063-0.244,0.047-0.347-0.004
			c-0.103-0.041-0.193-0.131-0.245-0.245l-0.641-1.592c-0.087-0.234,0.024-0.501,0.254-0.592l5.404-2.18
			c0.097-0.027,0.235-0.045,0.351,0.011c0.105,0.039,0.189,0.128,0.238,0.24l0.644,1.599c0.09,0.234-0.021,0.501-0.251,0.597
			l-1.377,0.551l3.793,9.444l1.375-0.557c0.136-0.048,0.235-0.039,0.347,0.005c0.109,0.05,0.203,0.138,0.248,0.247l0.641,1.6
			C165.438,235.993,165.326,236.259,165.097,236.354z M127.672,54.652l1.272,0.008c25.623,0.331,49.585,10.622,67.476,28.976
			c17.882,18.353,27.547,42.574,27.215,68.199c-0.462,35.657-18.416,65.426-49.265,81.672c-0.206,0.111-0.433,0.174-0.674,0.182
			l-0.069,0.008c-0.215,0-0.429-0.049-0.632-0.135c-0.443-0.196-0.77-0.576-0.899-1.045c-0.101-0.357-2.604-9.033-12.246-24.813
			c-7.932-12.983-23.925-24.709-27.348-27.132c-3.612,2.465-20.63,14.529-30.042,29.366c-9.095,14.351-12.225,25.803-12.248,25.915
			c-0.127,0.467-0.457,0.844-0.895,1.044c-0.202,0.087-0.417,0.133-0.641,0.133c-0.26,0-0.51-0.061-0.733-0.174
			c-5.938-3.098-11.642-6.634-16.951-10.526l-0.016,0.025l-0.188-0.162c-0.026-0.025-0.057-0.054-0.09-0.08
			c-12.922-9.515-22.797-20.869-29.339-33.745c-6.566-12.915-9.793-27.392-9.587-43.028C32.453,97.128,75.472,54.652,127.672,54.652
			z M158.633,133.231h-2.677v4.902h2.677V133.231z M153.938,140.159h-2.682v4.86h2.682V140.159z M153.938,133.231h-2.682v4.902
			h2.682V133.231z M140.787,182.851c6.969,5.579,16.115,13.946,21.77,23.196c7.639,12.499,10.895,20.649,11.994,23.76
			c5.419-2.99,10.539-6.529,15.227-10.517C172.053,195.56,151.854,186.323,140.787,182.851z M110.588,145.019h2.673v-4.86h-2.673
			V145.019z M158.633,140.159h-2.677v4.86h2.677V140.159z M111.262,184.198c-15.124,3.196-36.276,10.137-54.36,25.175
			c3.966,4.452,8.418,8.608,13.232,12.365C83.813,200.461,99.774,189.628,111.262,184.198z M192.154,217.162
			c4.045-3.706,7.733-7.796,10.971-12.161c-17.888-12.703-37.757-18.675-51.832-21.47
			C162.472,188.628,178.134,198.507,192.154,217.162z M110.588,138.134h2.673v-4.902h-2.673V138.134z M133.671,145.019h2.673v-4.86
			h-2.673V145.019z M105.888,169.491h2.674v-4.867h-2.674V169.491z M141.204,176.434c8.805,0.219,17.423,0.763,25.62,1.618v-54.361
			H95.437v54.572c8.836-0.991,18.248-1.61,27.992-1.838v-16.141c0-4.482,3.983-8.131,8.886-8.131s8.89,3.649,8.89,8.131V176.434z
			 M117.934,157.692h-2.132v13.071c0,0.701-0.574,1.269-1.275,1.269h-9.907c-0.697,0-1.269-0.568-1.269-1.269v-13.071h-2.132v-0.19
			c0-2.397,1.944-4.35,4.353-4.35h8.016c2.398,0,4.347,1.953,4.347,4.35V157.692z M118.176,148.061H100.88
			c-0.68,0-1.232-0.554-1.232-1.235c0-0.68,0.553-1.231,1.232-1.231h2.471v-12.363h-2.132v-0.189c0-2.401,1.944-4.353,4.353-4.353
			h8.016c2.398,0,4.347,1.951,4.347,4.353v0.189h-2.132v12.363h2.374c0.677,0,1.229,0.551,1.229,1.231
			C119.405,147.506,118.853,148.061,118.176,148.061z M141.02,133.231h-2.138v13.056c0,0.702-0.568,1.27-1.27,1.27h-9.907
			c-0.7,0-1.271-0.568-1.271-1.27v-13.056h-2.136v-0.189c0-2.401,1.948-4.353,4.347-4.353h8.025c2.396,0,4.35,1.951,4.35,4.353
			V133.231z M163.867,157.692h-2.142v13.071c0,0.701-0.57,1.269-1.271,1.269h-9.913c-0.698,0-1.272-0.568-1.272-1.269v-13.071
			h-2.126v-0.19c0-2.397,1.948-4.35,4.35-4.35h8.017c2.407,0,4.358,1.953,4.358,4.35V157.692z M146.228,145.594h2.488v-12.363
			h-2.135v-0.189c0-2.401,1.951-4.353,4.35-4.353h8.028c2.393,0,4.35,1.951,4.35,4.353v0.189h-2.133v12.363h2.501
			c0.68,0,1.229,0.551,1.229,1.231c0,0.681-0.55,1.235-1.229,1.235h-17.449c-0.683,0-1.235-0.554-1.235-1.235
			C144.992,146.146,145.545,145.594,146.228,145.594z M133.671,138.134h2.673v-4.902h-2.673V138.134z M63.103,184.125
			c8.75-2.326,18.422-4.164,28.749-5.464c-0.019-0.084-0.033-0.173-0.033-0.271v-39.473H63.103V184.125z M66.301,170.454h2.634
			v-21.026h-2.64v-0.189c0-2.762,2.238-5.013,4.993-5.013h9.297c2.764,0,5.008,2.25,5.008,5.013v0.189h-2.646v21.026h2.64
			c0.68,0,1.235,0.55,1.235,1.231c0,0.681-0.556,1.232-1.235,1.232H66.301c-0.683,0-1.235-0.551-1.235-1.232
			C65.065,171.003,65.618,170.454,66.301,170.454z M66.141,174.117h9.412c0.628,0,1.142,0.512,1.142,1.139
			c0,0.626-0.514,1.14-1.142,1.14h-9.412c-0.631,0-1.139-0.514-1.139-1.14C65.002,174.629,65.51,174.117,66.141,174.117z
			 M128.974,145.019h2.674v-4.86h-2.674V145.019z M105.888,138.134h2.674v-4.902h-2.674V138.134z M194.049,235.618
			c-4.598,3.648-9.484,6.919-14.526,9.727l17.701,27.369h6.551c-0.157-2.327-0.006-4.399,0.463-6.324
			c0.797-3.268,2.192-6.283,4.152-8.971L194.049,235.618z M184.51,251.979c-0.405,0-0.785-0.221-0.987-0.566
			c-0.312-0.549-0.121-1.243,0.419-1.562l11.106-6.392c0.173-0.097,0.375-0.152,0.571-0.152c0.069,0,0.121,0.018,0.16,0.037
			c0.103,0.021,0.154,0.035,0.212,0.058c0.289,0.104,0.495,0.26,0.615,0.479c0.317,0.541,0.121,1.236-0.422,1.555l-11.107,6.392
			C184.908,251.929,184.712,251.979,184.51,251.979z M200.993,251.993l-11.07,6.39c-0.254,0.141-0.532,0.216-0.807,0.216
			c-0.58,0-1.115-0.307-1.404-0.805c-0.444-0.775-0.182-1.763,0.592-2.211l11.07-6.387c0.221-0.124,0.456-0.185,0.74-0.192
			c-0.021-0.005,0.015-0.019,0.069-0.019c0.054,0,0.1,0.014,0.13,0.026c0.175,0.014,0.354,0.056,0.531,0.142l0.072,0.032
			c0.036,0.015,0.082,0.039,0.121,0.06c0.241,0.156,0.42,0.328,0.547,0.541C202.028,250.562,201.766,251.55,200.993,251.993z
			 M105.888,162.599h2.674v-4.907h-2.674V162.599z M105.888,145.019h2.674v-4.86h-2.674V145.019z M128.974,138.134h2.674v-4.902
			h-2.674V138.134z M207.157,165.22c0.061,0.017,0.121,0.027,0.19,0.027c0.275,0,0.514-0.172,0.599-0.432
			c6.243-19.278,0.26-38.647,0-39.458c-0.046-0.135-0.139-0.246-0.293-0.335c0-0.004-0.027-0.007-0.055-0.014l-0.055-0.017
			c-0.087-0.027-0.184-0.06-0.277-0.06c-0.036,0-0.072,0.007-0.109,0.021c-0.156,0.047-0.28,0.155-0.355,0.3
			c-0.079,0.151-0.094,0.33-0.046,0.488c0.069,0.186,6.198,19.557,0,38.695C206.653,164.758,206.831,165.11,207.157,165.22z
			 M110.588,169.491h2.673v-4.867h-2.673V169.491z M80.407,160.871h-3.329v8.417l3.329-0.063V160.871z M80.407,149.428h-3.329v9.16
			h3.329V149.428z M74.798,149.428h-3.319v9.16h3.319V149.428z M74.798,160.871h-3.319v8.527l3.319-0.066V160.871z M182.999,160.871
			h-3.331v8.556h3.331V160.871z M188.6,149.428h-3.316v9.16h3.316V149.428z M170.446,178.389c0,0.02,0,0.038,0,0.057
			c9.717,1.139,18.894,2.722,27.297,4.708v-44.237h-27.297V178.389z M195.831,175.256c0,0.626-0.514,1.14-1.139,1.14h-9.419
			c-0.634,0-1.142-0.514-1.142-1.14c0-0.627,0.508-1.139,1.142-1.139h9.419C195.317,174.117,195.831,174.629,195.831,175.256z
			 M174.174,170.454h2.957v-21.026h-2.655v-0.189c0-2.762,2.256-5.013,5.02-5.013h9.285c2.762,0,5.009,2.25,5.009,5.013v0.189
			h-2.652v21.026h2.957c0.68,0,1.235,0.55,1.235,1.231c0,0.681-0.556,1.232-1.235,1.232h-19.92c-0.68,0-1.232-0.551-1.232-1.232
			C172.941,171.003,173.494,170.454,174.174,170.454z M182.999,149.428h-3.331v9.16h3.331V149.428z M110.588,162.599h2.673v-4.907
			h-2.673V162.599z M188.6,160.871h-3.316v8.556h3.316V160.871z M46.111,194.394c2.517,4.435,5.446,8.662,8.699,12.578
			c18.35-15.282,39.805-22.438,55.439-25.783C73.955,183.528,53.494,191.096,46.111,194.394z M226.29,55.392
			c-3.794-0.402-7.346-1.592-10.551-3.542c-1.19-0.727-2.381-1.597-3.528-2.599l-16.948,18.503
			c5.041,4.122,9.747,8.736,13.991,13.721l17.036-20.452V55.392z M213.981,72.902c-0.215,0.248-0.532,0.393-0.864,0.393
			c-0.269,0-0.531-0.095-0.743-0.275l-9.439-8.163c-0.229-0.199-0.365-0.483-0.387-0.787c-0.023-0.299,0.076-0.593,0.275-0.823
			c0.19-0.222,0.459-0.354,0.764-0.375l0.019-0.012l0.072-0.008c0.272,0,0.544,0.095,0.752,0.275l9.434,8.163
			c0.235,0.2,0.371,0.483,0.398,0.787C214.28,72.378,214.181,72.669,213.981,72.902z M218.657,66.576
			c-0.309,0.369-0.762,0.575-1.238,0.575c-0.378,0-0.746-0.133-1.039-0.377l-9.727-8.187c-0.683-0.573-0.773-1.595-0.196-2.273
			c0.133-0.169,0.314-0.305,0.534-0.408c0.061-0.03,0.118-0.045,0.17-0.058l0.054-0.012c0.133-0.041,0.266-0.082,0.408-0.084
			c-0.013-0.003,0.024-0.014,0.072-0.014h0.039l0.066,0.023c0.375,0.033,0.688,0.152,0.931,0.354l9.727,8.185
			C219.137,64.875,219.23,65.896,218.657,66.576z M127.246,43.491c6.341,0,12.811,0.59,19.232,1.75l0.371-15.229h-17.559
			l-2.159,13.479H127.246z M143.805,41.155l-11.922-0.435c-0.302-0.011-0.583-0.136-0.794-0.359
			c-0.206-0.225-0.312-0.515-0.303-0.82c0.021-0.619,0.486-1.06,1.16-1.096h0.018l11.883,0.434c0.3,0.012,0.587,0.139,0.789,0.361
			c0.208,0.227,0.317,0.515,0.308,0.82C144.92,40.674,144.418,41.155,143.805,41.155z M131.925,32.288h11.88
			c0.892,0,1.613,0.723,1.613,1.614s-0.722,1.615-1.613,1.615h-11.88c-0.888,0-1.615-0.724-1.615-1.615
			S131.037,32.288,131.925,32.288z M203.763,30.012h-4.824L181.401,58.15c4.67,2.729,9.144,5.81,13.306,9.164l13.583-22.346
			c-1.908-2.655-3.271-5.627-4.053-8.835C203.787,34.286,203.63,32.285,203.763,30.012z M208.336,284.373
			c-0.607-0.731-1.188-1.462-1.68-2.267c-1-1.657-1.755-3.548-2.311-5.786H50.573c-0.56,2.238-1.312,4.129-2.314,5.786
			c-0.492,0.805-1.072,1.535-1.679,2.267H208.336z M226.29,68.977l-16.562,13.05c6.838,8.146,12.408,17.173,16.562,26.854V68.977z
			 M147.378,45.411c5.869,1.108,11.623,2.702,17.114,4.727l4.072-20.125h-16.088L147.378,45.411z M46.577,18.144
			c0.586,0.703,1.181,1.456,1.682,2.278c1.046,1.725,1.822,3.685,2.365,5.983h143.409l0.055-0.128l0.241,0.128h9.962
			c0.544-2.298,1.323-4.259,2.365-5.983c0.501-0.825,1.103-1.575,1.686-2.278H46.577z M45.873,46.018l13.275,21.793
			c4.431-3.619,9.261-6.947,14.365-9.898l-17.045-27.9h-5.313c0.133,2.265-0.024,4.27-0.475,6.125
			c-0.879,3.605-2.513,6.909-4.839,9.829C45.852,45.984,45.861,46.004,45.873,46.018z M67.6,50.827c0.069,0,0.127,0.018,0.169,0.032
			l0.058,0.02c0.052,0.014,0.097,0.022,0.148,0.039c0.283,0.103,0.489,0.265,0.619,0.482c0.311,0.545,0.12,1.241-0.423,1.559
			l-11.106,6.39c-0.173,0.101-0.372,0.154-0.565,0.154c-0.414,0-0.785-0.221-0.993-0.569c-0.309-0.543-0.124-1.243,0.423-1.56
			l11.106-6.39C67.213,50.878,67.406,50.827,67.6,50.827z M51.552,50.57l11.073-6.389c0.211-0.122,0.456-0.184,0.73-0.193
			c-0.012-0.003,0.024-0.018,0.073-0.018c0.057,0,0.097,0.015,0.13,0.027c0.187,0.018,0.365,0.066,0.537,0.141
			c0.085,0.036,0.136,0.063,0.188,0.092c0.248,0.157,0.426,0.334,0.547,0.547c0.438,0.77,0.178,1.756-0.596,2.205L53.165,53.37
			c-0.251,0.139-0.529,0.213-0.81,0.213c-0.571,0-1.109-0.306-1.396-0.805C50.516,52.003,50.781,51.017,51.552,50.57z
			 M192.518,30.012h-18.097l-9.197,20.407c5.344,2.019,10.587,4.511,15.613,7.411L192.518,30.012z M171.881,38.075
			c0.1-0.26,0.278-0.486,0.541-0.684c0.051-0.038,0.093-0.069,0.15-0.105c0.266-0.154,0.508-0.231,0.755-0.242l0.07-0.008
			c0.193,0,0.387,0.032,0.57,0.104l10.732,4.082c0.404,0.152,0.725,0.453,0.9,0.85c0.175,0.396,0.187,0.834,0.036,1.237
			c-0.233,0.622-0.843,1.039-1.514,1.039c-0.193,0-0.384-0.033-0.567-0.104l-10.735-4.082c-0.408-0.153-0.729-0.452-0.903-0.851
			C171.739,38.918,171.727,38.48,171.881,38.075z M179.84,50.363l-10.034-4.869c-0.274-0.128-0.483-0.358-0.583-0.645
			c-0.103-0.287-0.085-0.599,0.052-0.876c0.105-0.229,0.302-0.401,0.573-0.524c0.076-0.032,0.136-0.042,0.196-0.054
			c0.019-0.004,0.03-0.012,0.052-0.02c0.166-0.056,0.472-0.042,0.704,0.069l10.034,4.868c0.271,0.13,0.477,0.361,0.58,0.645
			c0.1,0.291,0.084,0.603-0.052,0.877c-0.196,0.398-0.586,0.642-1.027,0.642C180.157,50.476,179.991,50.44,179.84,50.363z
			 M229.899,117.932c0,0.156-0.036,0.296-0.075,0.418c3.413,10.628,5.146,21.683,5.146,32.856c0,11.464-1.833,22.81-5.439,33.728
			v62.067c1.863,0.039,3.69,0.275,5.425,0.693c0.142,0.019,1.915,0.231,4.419,1.133V53.686c-2.688,0.971-4.658,1.19-4.682,1.19
			c-1.456,0.364-3.036,0.58-4.794,0.646v10.43l0.078,0.079l-0.078,0.079V117.932z M4.936,4.934v31.57
			c1.637,6.845,5.944,10.368,9.273,12.113c0.048,0.017,0.1,0.048,0.163,0.086l0.057,0.033c3.055,1.551,5.712,1.922,6.208,1.981
			c1.195,0.284,2.419,0.459,3.881,0.559l0.16,0.009c0.212,0.015,0.423,0.03,0.632,0.039c0.256,0.006,0.51,0.011,0.764,0.011
			c1.045,0,2.057-0.071,2.993-0.206c0.085-0.01,0.173-0.033,0.257-0.051c0.079-0.018,0.157-0.038,0.235-0.05
			c1.042-0.177,2.1-0.447,3.154-0.805c0.308-0.1,0.616-0.204,0.915-0.323c1.35-0.526,2.422-1.042,3.38-1.625
			c4.856-2.95,8.264-7.615,9.608-13.13c1.054-4.306,0.365-8.764-1.934-12.549c-2.299-3.79-5.941-6.457-10.248-7.503
			c-0.879-0.215-1.804-0.323-2.837-0.341h-0.136c-0.574,0-1.163,0.041-1.761,0.124c-0.136,0.012-0.278,0.009-0.399,0.035
			c-0.742,0.124-1.491,0.322-2.237,0.587c-0.127,0.05-0.254,0.107-0.378,0.164c-0.094,0.043-0.188,0.089-0.281,0.125
			c-0.438,0.192-0.951,0.417-1.426,0.695c-0.193,0.113-0.383,0.243-0.564,0.369l-0.163,0.108c-0.447,0.301-0.827,0.582-1.166,0.866
			c-0.227,0.192-0.447,0.394-0.661,0.605c-0.323,0.317-0.646,0.669-0.982,1.08l-0.105,0.133c-0.15,0.184-0.299,0.365-0.435,0.562
			c-0.266,0.372-0.525,0.807-0.821,1.362c-0.052,0.089-0.098,0.177-0.151,0.265c-0.075,0.139-0.157,0.276-0.224,0.419
			c-0.362,0.811-0.628,1.554-0.81,2.292c-1.284,5.283,1.97,10.632,7.252,11.919c0.499,0.127,1.042,0.193,1.662,0.205h0.066
			c0.313,0,0.643-0.025,1.003-0.068c0.081-0.006,0.169-0.01,0.26-0.02c0.44-0.079,0.875-0.192,1.292-0.343
			c0.079-0.032,0.154-0.065,0.229-0.103l0.137-0.063c0.241-0.098,0.559-0.24,0.849-0.406c0.114-0.068,0.229-0.146,0.335-0.221
			l0.085-0.056c0.253-0.175,0.479-0.335,0.68-0.508c0.133-0.112,0.263-0.235,0.383-0.353c0.188-0.188,0.378-0.393,0.577-0.627
			l0.072-0.1c0.085-0.101,0.166-0.201,0.239-0.305c0.187-0.267,0.344-0.551,0.477-0.797c0.027-0.056,0.055-0.107,0.088-0.16
			c0.042-0.077,0.085-0.149,0.124-0.235c0.211-0.47,0.368-0.905,0.471-1.331c0.351-1.441,0.121-2.936-0.652-4.207
			c-0.767-1.27-1.987-2.161-3.431-2.518c-0.396-0.095-0.87-0.1-1.335-0.053c-0.173,0.017-0.351,0.05-0.538,0.095
			c-0.281,0.066-0.567,0.169-0.864,0.319l-0.081,0.041c-0.133,0.066-0.263,0.125-0.375,0.203c-0.235,0.162-0.459,0.364-0.73,0.666
			c-0.039,0.045-0.085,0.089-0.127,0.13c-0.066,0.063-0.13,0.125-0.185,0.204c-0.32,0.455-0.528,0.896-0.644,1.359
			c-0.172,0.728-0.057,1.481,0.333,2.119c0.393,0.644,1.006,1.097,1.733,1.271c1.121,0.273,1.807,1.407,1.534,2.526
			c-0.057,0.247-0.166,0.482-0.326,0.703c-0.036,0.048-0.075,0.089-0.114,0.128l-0.052,0.05c-0.1,0.108-0.217,0.231-0.377,0.336
			c-0.058,0.042-0.121,0.074-0.185,0.104l-0.058,0.032c-0.172,0.077-0.302,0.127-0.438,0.16c-0.094,0.02-0.193,0.038-0.293,0.045
			c-0.03,0-0.052,0.008-0.066,0.012c-0.151,0.03-0.399,0.015-0.607-0.03c-3.752-0.912-6.057-4.701-5.147-8.448
			c0.121-0.479,0.293-0.956,0.526-1.465c0.042-0.102,0.096-0.19,0.15-0.283l0.079-0.148c0.147-0.267,0.319-0.58,0.534-0.882
			c0.105-0.151,0.224-0.29,0.342-0.437c0.227-0.275,0.426-0.496,0.637-0.693c0.136-0.134,0.272-0.263,0.42-0.382
			c0.221-0.193,0.472-0.378,0.752-0.568l0.094-0.063c0.121-0.079,0.229-0.157,0.359-0.227c0.263-0.153,0.563-0.301,0.945-0.461
			c0.052-0.021,0.104-0.045,0.154-0.068c0.069-0.035,0.148-0.071,0.227-0.098c0.48-0.175,0.967-0.3,1.438-0.38
			c0.049-0.006,0.094-0.006,0.137-0.011l0.078-0.009c0.317-0.041,0.704-0.09,1.117-0.09c0.03,0,0.063,0.003,0.1,0.011
			c0.698,0.013,1.29,0.089,1.837,0.222c2.537,0.623,4.67,2.186,6.026,4.406c1.347,2.225,1.752,4.842,1.136,7.369
			c-0.167,0.681-0.408,1.359-0.74,2.075c-0.061,0.146-0.136,0.284-0.215,0.417c-0.042,0.069-0.081,0.137-0.114,0.207
			c-0.206,0.379-0.456,0.821-0.743,1.237c-0.143,0.201-0.302,0.391-0.456,0.58l-0.046,0.056c-0.296,0.361-0.583,0.678-0.885,0.971
			c-0.193,0.189-0.396,0.376-0.598,0.554c-0.314,0.266-0.649,0.518-1.063,0.789l-0.121,0.08c-0.172,0.121-0.344,0.237-0.528,0.347
			c-0.45,0.261-0.925,0.47-1.323,0.64c-0.081,0.032-0.154,0.065-0.224,0.103c-0.114,0.053-0.22,0.105-0.341,0.146
			c-0.683,0.243-1.362,0.424-2.027,0.533c-0.13,0.021-0.263,0.012-0.393,0.033c-0.468,0.066-0.976,0.128-1.501,0.128
			c-0.036,0-0.085-0.011-0.124-0.019c-0.018-0.003-0.039-0.006-0.061-0.006c-0.945-0.014-1.791-0.119-2.582-0.311
			c-7.519-1.839-12.148-9.453-10.318-16.973c0.238-0.991,0.589-1.984,1.075-3.037c0.097-0.207,0.205-0.398,0.314-0.593
			c0.058-0.103,0.114-0.203,0.169-0.305c0.401-0.752,0.737-1.313,1.091-1.817c0.196-0.278,0.416-0.543,0.625-0.799l0.097-0.12
			c0.447-0.543,0.87-1.015,1.305-1.436c0.302-0.297,0.586-0.56,0.87-0.802c0.468-0.393,0.981-0.775,1.562-1.165l0.193-0.131
			c0.238-0.16,0.483-0.329,0.743-0.48c0.547-0.317,1.156-0.61,1.972-0.955c0.106-0.045,0.203-0.093,0.303-0.139
			c0.16-0.077,0.317-0.151,0.489-0.211c0.993-0.361,1.996-0.628,2.979-0.789c0.15-0.027,0.316-0.02,0.477-0.042
			c0.716-0.098,1.48-0.189,2.274-0.189c0.079,0,0.163,0.006,0.248,0.012c0.154,0.01,0.32,0.012,0.486,0.029
			c0.069,0.006,0.145,0.01,0.218,0.013c1.163,0.068,2.172,0.21,3.099,0.438c2.241,0.547,4.446,1.535,6.555,2.933h170.956
			c2.108-1.398,4.316-2.386,6.558-2.933c0.931-0.228,1.931-0.365,3.072-0.43l0.182-0.015c0.184-0.008,0.368-0.02,0.553-0.03
			c0.081-0.007,0.16-0.015,0.241-0.015c0.768,0,1.544,0.103,2.166,0.184c0.087,0.011,0.169,0.014,0.254,0.023
			c0.114,0.003,0.235,0.009,0.347,0.033c0.976,0.157,1.964,0.423,2.954,0.778c0.179,0.063,0.354,0.148,0.526,0.228
			c0.103,0.048,0.211,0.1,0.316,0.144c0.535,0.228,1.238,0.535,1.921,0.93c0.267,0.154,0.514,0.325,0.756,0.491l0.199,0.136
			c0.606,0.408,1.1,0.776,1.543,1.152c0.336,0.279,0.649,0.577,0.879,0.802c0.45,0.434,0.87,0.903,1.299,1.432l0.121,0.144
			c0.199,0.248,0.414,0.507,0.607,0.779c0.348,0.501,0.688,1.063,1.09,1.81c0.055,0.113,0.121,0.217,0.179,0.325
			c0.108,0.19,0.215,0.379,0.308,0.581c0.483,1.045,0.831,2.039,1.075,3.034c1.831,7.523-2.8,15.136-10.317,16.976
			c-0.804,0.195-1.641,0.297-2.57,0.308c-0.024,0-0.046,0.003-0.067,0.006c-0.039,0.006-0.078,0.014-0.114,0.014
			c-0.544,0-1.072-0.065-1.534-0.124c-0.13-0.017-0.254-0.012-0.375-0.038c-0.652-0.104-1.332-0.282-2.018-0.53
			c-0.13-0.044-0.248-0.1-0.371-0.156c-0.073-0.032-0.143-0.073-0.215-0.1c-0.522-0.224-0.939-0.424-1.305-0.634
			c-0.185-0.11-0.356-0.225-0.538-0.343l-0.124-0.085c-0.41-0.273-0.746-0.525-1.051-0.787c-0.185-0.159-0.381-0.333-0.604-0.551
			c-0.293-0.282-0.586-0.6-0.885-0.976l-0.061-0.062c-0.15-0.184-0.299-0.369-0.438-0.566c-0.242-0.343-0.472-0.722-0.746-1.245
			c-0.039-0.068-0.079-0.14-0.121-0.207c-0.075-0.133-0.151-0.266-0.214-0.409c-0.333-0.713-0.571-1.393-0.737-2.074
			c-0.616-2.528-0.212-5.148,1.139-7.373c1.354-2.22,3.488-3.783,6.02-4.406c0.571-0.142,1.166-0.211,1.815-0.219
			c0.063-0.014,0.103-0.017,0.139-0.017c0.411,0,0.798,0.047,1.127,0.09c0.072,0.023,0.136,0.012,0.196,0.023
			c0.48,0.075,0.967,0.205,1.441,0.38c0.081,0.024,0.15,0.059,0.224,0.091c0.039,0.022,0.093,0.047,0.139,0.066
			c0.368,0.149,0.686,0.305,0.967,0.47c0.12,0.065,0.232,0.14,0.344,0.22l0.1,0.07c0.227,0.151,0.499,0.34,0.762,0.568
			c0.142,0.122,0.28,0.248,0.416,0.382c0.2,0.193,0.408,0.418,0.629,0.693l0.045,0.051c0.103,0.125,0.209,0.252,0.303,0.391
			c0.172,0.243,0.341,0.524,0.531,0.879l0.075,0.133c0.055,0.097,0.106,0.19,0.154,0.295c0.229,0.501,0.401,0.979,0.52,1.462
			c0.912,3.75-1.393,7.539-5.138,8.451c-0.215,0.045-0.462,0.058-0.604,0.03c-0.024-0.004-0.045-0.012-0.063-0.012
			c-0.108-0.007-0.202-0.025-0.299-0.045c-0.142-0.033-0.281-0.086-0.435-0.163c-0.109-0.052-0.179-0.088-0.251-0.133
			c-0.124-0.084-0.245-0.187-0.372-0.336c-0.021-0.019-0.039-0.032-0.051-0.053c-0.046-0.036-0.082-0.072-0.115-0.119
			c-0.166-0.236-0.274-0.465-0.332-0.708c-0.274-1.119,0.414-2.253,1.537-2.526c0.729-0.174,1.342-0.627,1.734-1.271
			c0.39-0.64,0.504-1.396,0.326-2.123c-0.112-0.459-0.317-0.9-0.638-1.347c-0.054-0.086-0.13-0.151-0.202-0.222
			c-0.042-0.038-0.078-0.079-0.121-0.119c-0.178-0.203-0.426-0.464-0.716-0.657c-0.13-0.09-0.269-0.155-0.42-0.227l-0.051-0.025
			c-0.287-0.145-0.574-0.252-0.858-0.319c-0.19-0.045-0.362-0.074-0.537-0.095c-0.469-0.042-0.937-0.039-1.329,0.053
			c-1.447,0.356-2.667,1.248-3.435,2.518c-0.773,1.271-1.003,2.766-0.652,4.211c0.108,0.427,0.266,0.864,0.475,1.331
			c0.039,0.082,0.081,0.16,0.126,0.239c0.03,0.048,0.061,0.101,0.088,0.152c0.176,0.333,0.326,0.583,0.478,0.797
			c0.097,0.138,0.205,0.268,0.317,0.397c0.196,0.245,0.383,0.447,0.567,0.629c0.124,0.125,0.254,0.243,0.39,0.355
			c0.199,0.169,0.426,0.335,0.677,0.503c0.157,0.109,0.284,0.198,0.417,0.276c0.238,0.136,0.504,0.263,0.84,0.403
			c0.054,0.021,0.105,0.045,0.147,0.068c0.079,0.036,0.151,0.069,0.229,0.101c0.447,0.153,0.882,0.269,1.299,0.343
			c0.063,0.007,0.151,0.007,0.227,0.017c0.336,0.046,0.665,0.071,0.979,0.071h0.127c0.593-0.008,1.127-0.074,1.649-0.198
			c5.28-1.287,8.533-6.636,7.249-11.922c-0.184-0.75-0.449-1.501-0.813-2.294c-0.066-0.146-0.142-0.284-0.223-0.421
			c-0.049-0.08-0.094-0.162-0.14-0.245c-0.305-0.571-0.562-0.997-0.83-1.375c-0.143-0.207-0.303-0.405-0.463-0.598l-0.075-0.094
			c-0.338-0.418-0.664-0.773-0.987-1.084c-0.229-0.224-0.441-0.42-0.656-0.603c-0.347-0.293-0.73-0.58-1.169-0.87l-0.196-0.131
			c-0.169-0.118-0.347-0.234-0.528-0.343c-0.504-0.289-1.033-0.525-1.438-0.696c-0.094-0.038-0.185-0.08-0.272-0.124
			c-0.126-0.056-0.25-0.113-0.38-0.164c-0.743-0.266-1.495-0.463-2.229-0.587c-0.066-0.012-0.133-0.015-0.199-0.022
			c-0.069-0.003-0.136-0.006-0.205-0.012c-0.602-0.083-1.193-0.124-1.759-0.124h-0.139c-1.033,0.018-1.957,0.126-2.836,0.341
			c-4.308,1.046-7.944,3.713-10.246,7.503c-2.299,3.785-2.987,8.24-1.933,12.546c1.335,5.515,4.754,10.184,9.608,13.133
			c0.963,0.586,2.026,1.099,3.364,1.617c0.314,0.127,0.632,0.239,0.952,0.344c1.021,0.341,2.041,0.604,3.032,0.783
			c0.097,0.013,0.19,0.036,0.287,0.059c0.094,0.023,0.196,0.044,0.299,0.061c1.172,0.169,2.426,0.245,3.691,0.202
			c0.157-0.003,0.313-0.017,0.474-0.028l0.251-0.017c1.411-0.088,2.634-0.26,3.736-0.53c2.247-0.29,13.363-2.339,16.063-14.7
			l-0.003-31.132H4.936z M234.285,251.813c-1.19-0.287-2.423-0.465-3.894-0.563c-0.257-0.017-0.514-0.034-0.768-0.046
			c-1.299-0.037-2.604,0.019-3.775,0.192c-0.075,0.014-0.15,0.03-0.227,0.046c-0.081,0.021-0.166,0.04-0.251,0.053
			c-1.026,0.176-2.09,0.449-3.159,0.809c-0.311,0.099-0.622,0.205-0.93,0.325c-1.306,0.506-2.408,1.034-3.371,1.624
			c-4.854,2.95-8.271,7.614-9.608,13.13c-1.055,4.31-0.369,8.769,1.93,12.549c2.305,3.79,5.941,6.453,10.249,7.501
			c0.867,0.213,1.794,0.325,2.846,0.342h0.187c0.532,0,1.075-0.039,1.665-0.115c0.139-0.016,0.299-0.014,0.449-0.035
			c0.71-0.119,1.459-0.316,2.218-0.588c0.133-0.045,0.263-0.111,0.393-0.17c0.091-0.047,0.181-0.09,0.271-0.125
			c0.401-0.174,0.925-0.403,1.426-0.688c0.208-0.121,0.401-0.26,0.604-0.393l0.13-0.086c0.438-0.299,0.818-0.58,1.147-0.857
			c0.221-0.188,0.441-0.391,0.68-0.625c0.32-0.309,0.634-0.656,0.97-1.059c0.188-0.232,0.384-0.467,0.553-0.713
			c0.26-0.367,0.511-0.786,0.815-1.358c0.045-0.083,0.091-0.163,0.139-0.246c0.085-0.144,0.163-0.287,0.235-0.438
			c0.366-0.807,0.632-1.554,0.81-2.289c1.287-5.279-1.966-10.629-7.249-11.92c-0.507-0.123-1.045-0.187-1.644-0.193h-0.069
			c-0.356,0-0.719,0.023-1.069,0.078c-0.072,0.01-0.127,0.008-0.189,0.01c-0.427,0.072-0.867,0.191-1.309,0.348
			c-0.072,0.027-0.145,0.061-0.221,0.092c-0.042,0.023-0.093,0.047-0.145,0.065c-0.345,0.146-0.613,0.278-0.854,0.415
			c-0.127,0.076-0.245,0.154-0.369,0.242c-0.293,0.189-0.522,0.361-0.728,0.536c-0.13,0.108-0.254,0.22-0.378,0.341
			c-0.184,0.184-0.377,0.392-0.58,0.644l-0.054,0.06c-0.082,0.104-0.176,0.213-0.257,0.328c-0.196,0.277-0.362,0.578-0.483,0.809
			c-0.03,0.055-0.055,0.103-0.085,0.154c-0.042,0.075-0.084,0.152-0.123,0.227c-0.212,0.469-0.366,0.904-0.475,1.338
			c-0.725,2.975,1.108,5.991,4.087,6.718c0.393,0.092,0.86,0.092,1.332,0.053c0.172-0.017,0.348-0.05,0.537-0.095
			c0.29-0.066,0.568-0.168,0.861-0.319l0.063-0.026c0.145-0.071,0.277-0.14,0.404-0.219c0.239-0.167,0.463-0.375,0.716-0.666
			c0.049-0.04,0.091-0.086,0.13-0.128c0.07-0.064,0.137-0.134,0.19-0.208c0.317-0.439,0.525-0.891,0.641-1.354
			c0.182-0.725,0.061-1.48-0.329-2.12c-0.393-0.638-1.012-1.091-1.734-1.267c-1.123-0.273-1.812-1.404-1.537-2.525
			c0.094-0.397,0.317-0.744,0.683-1.061l0.036-0.036c0.033-0.033,0.061-0.058,0.103-0.089c0.32-0.229,0.695-0.354,1.112-0.378
			c-0.01-0.007,0.039-0.032,0.105-0.032c0.163,0,0.32,0.016,0.483,0.057c3.745,0.914,6.05,4.703,5.141,8.447
			c-0.121,0.482-0.29,0.96-0.522,1.46c-0.045,0.093-0.094,0.186-0.142,0.267c-0.033,0.06-0.061,0.109-0.088,0.166
			c-0.202,0.365-0.362,0.637-0.531,0.881c-0.1,0.141-0.206,0.271-0.312,0.396l-0.036,0.04c-0.218,0.271-0.429,0.5-0.638,0.699
			c-0.127,0.127-0.266,0.253-0.413,0.375c-0.23,0.202-0.49,0.394-0.762,0.573l-0.094,0.063c-0.111,0.08-0.227,0.158-0.344,0.222
			c-0.29,0.171-0.604,0.321-0.97,0.47l-0.115,0.055c-0.084,0.039-0.163,0.075-0.244,0.104c-0.475,0.174-0.958,0.305-1.444,0.385
			c-0.084,0.015-0.145,0.007-0.208,0.018c-0.303,0.047-0.701,0.092-1.115,0.092c-0.036,0-0.078-0.004-0.111-0.01
			c-0.677-0.014-1.269-0.085-1.84-0.229c-2.531-0.619-4.666-2.181-6.02-4.4c-1.351-2.224-1.755-4.84-1.139-7.369
			c0.166-0.686,0.407-1.363,0.737-2.076c0.063-0.133,0.133-0.26,0.208-0.383c0.036-0.08,0.081-0.154,0.124-0.23
			c0.188-0.354,0.44-0.812,0.746-1.245c0.142-0.2,0.29-0.385,0.44-0.573l0.055-0.057c0.299-0.368,0.586-0.686,0.888-0.982
			c0.193-0.186,0.396-0.371,0.607-0.549c0.305-0.26,0.646-0.515,1.045-0.785l0.136-0.091c0.176-0.114,0.348-0.233,0.532-0.335
			c0.423-0.25,0.87-0.451,1.286-0.629c0.076-0.034,0.146-0.068,0.218-0.1c0.13-0.057,0.254-0.115,0.387-0.161
			c0.68-0.251,1.359-0.433,2.009-0.539c0.136-0.024,0.284-0.019,0.429-0.034c0.52-0.065,0.991-0.125,1.483-0.125
			c0.036,0,0.084,0.006,0.127,0.014c0.021,0.005,0.036,0.008,0.061,0.008c0.924,0.012,1.767,0.113,2.57,0.311
			c7.518,1.838,12.148,9.452,10.317,16.975c-1.872,7.656-8.678,13-16.552,13c-1.356,0-2.716-0.164-4.036-0.486
			c-2.247-0.545-4.452-1.533-6.569-2.941H41.991c-2.108,1.408-4.319,2.396-6.566,2.941c-1.323,0.322-2.679,0.486-4.038,0.486
			c-7.875,0-14.68-5.342-16.55-12.997c-1.83-7.522,2.8-15.14,10.318-16.978c0.797-0.197,1.643-0.303,2.582-0.313
			c0.024,0,0.043-0.005,0.061-0.007c0.039-0.007,0.085-0.014,0.124-0.014c0.486,0,0.945,0.057,1.459,0.123
			c0.142,0.02,0.299,0.011,0.438,0.038c0.671,0.106,1.348,0.288,2.012,0.534c0.127,0.044,0.242,0.098,0.369,0.154
			c0.069,0.036,0.147,0.069,0.221,0.105c0.368,0.151,0.846,0.359,1.305,0.627c0.178,0.102,0.347,0.217,0.514,0.332l0.15,0.098
			c0.408,0.277,0.74,0.526,1.045,0.786c0.212,0.177,0.411,0.362,0.607,0.552c0.302,0.297,0.589,0.614,0.885,0.979l0.036,0.041
			c0.157,0.19,0.317,0.384,0.466,0.589c0.299,0.434,0.553,0.891,0.743,1.242c0.039,0.067,0.075,0.139,0.117,0.203
			c0.076,0.138,0.151,0.271,0.212,0.416c0.332,0.713,0.573,1.391,0.74,2.073c0.616,2.528,0.211,5.148-1.14,7.372
			c-1.353,2.22-3.491,3.781-6.022,4.4c-0.55,0.136-1.145,0.211-1.81,0.222c-0.066,0.011-0.103,0.013-0.127,0.013
			c-0.371,0-0.73-0.041-1.065-0.088c-0.082-0.006-0.182-0.011-0.272-0.027c-0.462-0.07-0.942-0.201-1.423-0.371
			c-0.087-0.027-0.169-0.065-0.244-0.107c-0.058-0.021-0.108-0.047-0.169-0.071c-0.275-0.116-0.604-0.261-0.919-0.448
			c-0.124-0.068-0.238-0.146-0.354-0.227l-0.114-0.072c-0.284-0.198-0.525-0.372-0.737-0.552c-0.15-0.125-0.293-0.26-0.429-0.394
			c-0.199-0.192-0.396-0.408-0.625-0.682c-0.14-0.17-0.248-0.304-0.348-0.443c-0.172-0.246-0.332-0.513-0.522-0.872l-0.085-0.142
			c-0.054-0.099-0.114-0.193-0.153-0.299c-0.236-0.505-0.408-0.978-0.522-1.458c-0.913-3.749,1.389-7.54,5.135-8.454
			c0.205-0.052,0.468-0.07,0.625-0.037c0.015,0.004,0.033,0.013,0.051,0.013c0.098,0.007,0.2,0.028,0.3,0.047
			c0.145,0.038,0.287,0.092,0.423,0.161c0.105,0.044,0.184,0.086,0.257,0.137c0.157,0.105,0.277,0.235,0.368,0.335
			c0.021,0.02,0.036,0.033,0.055,0.047c0.042,0.04,0.081,0.083,0.117,0.132c0.16,0.229,0.27,0.46,0.326,0.705
			c0.272,1.121-0.413,2.252-1.534,2.525c-0.728,0.176-1.341,0.629-1.733,1.273c-0.39,0.641-0.505,1.392-0.329,2.121
			c0.114,0.461,0.319,0.901,0.64,1.352c0.055,0.072,0.118,0.141,0.185,0.202c0.042,0.047,0.088,0.088,0.127,0.134
			c0.185,0.201,0.432,0.461,0.725,0.66c0.124,0.082,0.263,0.152,0.405,0.22l0.057,0.033c0.3,0.144,0.583,0.245,0.861,0.312
			c0.185,0.045,0.368,0.081,0.541,0.095c0.465,0.039,0.939,0.039,1.335-0.053c2.978-0.727,4.809-3.743,4.083-6.721
			c-0.103-0.437-0.266-0.881-0.471-1.335c-0.039-0.078-0.085-0.158-0.124-0.234c-0.033-0.05-0.066-0.105-0.088-0.154
			c-0.126-0.227-0.29-0.527-0.485-0.801c-0.088-0.119-0.185-0.239-0.278-0.354l-0.033-0.044c-0.19-0.227-0.381-0.435-0.577-0.628
			c-0.121-0.119-0.251-0.237-0.384-0.353c-0.19-0.158-0.404-0.318-0.677-0.498l-0.093-0.064c-0.109-0.076-0.218-0.151-0.333-0.215
			c-0.232-0.131-0.489-0.254-0.815-0.391c-0.058-0.021-0.108-0.051-0.157-0.076c-0.081-0.036-0.16-0.072-0.241-0.103
			c-0.453-0.161-0.876-0.272-1.29-0.338c-0.084-0.014-0.169-0.014-0.254-0.021c-0.371-0.05-0.709-0.073-1.029-0.073h-0.058
			c-0.599,0.007-1.133,0.07-1.641,0.193c-5.282,1.291-8.536,6.641-7.252,11.923c0.188,0.751,0.45,1.503,0.815,2.294
			c0.066,0.15,0.146,0.287,0.229,0.426c0.049,0.082,0.088,0.165,0.136,0.244c0.306,0.572,0.557,0.994,0.825,1.372
			c0.145,0.21,0.308,0.403,0.465,0.595l0.075,0.094c0.336,0.412,0.659,0.768,0.994,1.091c0.205,0.204,0.423,0.409,0.649,0.599
			c0.342,0.289,0.728,0.573,1.178,0.874l0.088,0.062c0.205,0.139,0.408,0.279,0.625,0.404c0.408,0.236,0.87,0.465,1.456,0.709
			c0.094,0.036,0.182,0.075,0.275,0.124c0.114,0.053,0.232,0.112,0.354,0.153c0.761,0.271,1.516,0.473,2.24,0.592
			c0.121,0.021,0.251,0.016,0.375,0.027c0.592,0.08,1.172,0.123,1.725,0.123h0.196c1.03-0.017,1.958-0.125,2.837-0.342
			c4.307-1.048,7.949-3.711,10.248-7.501c2.299-3.78,2.987-8.239,1.939-12.546c-1.351-5.519-4.758-10.183-9.614-13.133
			c-0.967-0.59-2.036-1.102-3.368-1.619c-0.311-0.125-0.628-0.231-0.948-0.333c-1.024-0.346-2.036-0.605-3.018-0.779
			c-0.094-0.02-0.182-0.039-0.274-0.058c-0.106-0.025-0.218-0.051-0.333-0.067c-1.159-0.174-2.41-0.239-3.676-0.202
			c-0.248,0.006-0.495,0.025-0.737,0.042c-1.41,0.091-2.634,0.259-3.739,0.526c-1.03,0.139-3.679,0.599-6.633,2.124
			c-3.371,1.753-7.705,5.275-9.346,12.183v29.681h245.123v-29.32C247.188,253.376,234.409,251.828,234.285,251.813z M243.559,51.739
			v199.038c2.588,1.502,4.775,3.404,6.5,5.658V46.084C248.337,48.324,246.153,50.224,243.559,51.739z M255,298.222
			c0,1.359-1.108,2.469-2.474,2.469H2.471c-1.362,0-2.471-1.109-2.471-2.469V2.468C0,1.104,1.108,0,2.471,0h250.056
			C253.892,0,255,1.104,255,2.468V298.222z M11.342,250.789V51.75c-2.537-1.48-4.69-3.344-6.406-5.549v210.125
			C6.651,254.133,8.802,252.27,11.342,250.789z M39.18,51.851c-3.105,1.888-6.53,3.067-10.18,3.5v7.208l15.768,19.461
			c4.217-5.023,8.896-9.673,13.906-13.82L41.526,50.218C40.708,50.852,39.938,51.388,39.18,51.851z M62.918,30.012l11.101,27.604
			c5.279-3.008,10.747-5.563,16.266-7.58l-8.682-20.024H62.918z M15.525,53.693v195.164c2.704-0.973,4.679-1.203,4.694-1.203
			c1.516-0.377,3.138-0.604,4.797-0.667v-61.918c-3.634-10.958-5.482-22.351-5.482-33.862c0-11.91,1.966-23.669,5.851-34.955V55.534
			c-1.87-0.042-3.694-0.276-5.422-0.698C19.784,54.829,17.93,54.557,15.525,53.693z M29,107.131
			c3.999-8.886,9.171-17.179,15.387-24.657L29,70.27V107.131z M39.808,81.639c0.061-0.017,0.105-0.029,0.166-0.041
			c0.254-0.089,0.535-0.004,0.768,0.138c0.531,0.341,0.688,1.048,0.354,1.577l-5.527,8.678c-0.212,0.333-0.568,0.53-0.961,0.53
			c-0.218,0-0.429-0.059-0.61-0.18c-0.531-0.335-0.694-1.045-0.354-1.572l5.527-8.684C39.313,81.875,39.523,81.728,39.808,81.639z
			 M30.218,84.694l3.975-6.754c0.124-0.206,0.302-0.381,0.544-0.532c0.045-0.032,0.094-0.053,0.142-0.074l0.043-0.02
			c0.175-0.074,0.347-0.124,0.531-0.139c0.03-0.014,0.075-0.026,0.13-0.026l0.108,0.02c0.26,0.011,0.502,0.077,0.71,0.2
			c0.771,0.453,1.027,1.445,0.574,2.214l-3.972,6.752c-0.287,0.489-0.825,0.794-1.39,0.794c-0.293,0-0.574-0.079-0.822-0.224
			C30.027,86.455,29.771,85.463,30.218,84.694z M215.739,250.676c3.114-1.888,6.536-3.063,10.182-3.501v-7.051l-17.361-18.386
			c-4.247,4.892-8.956,9.423-13.998,13.476l17.695,18.027C213.413,252.237,214.552,251.403,215.739,250.676z M143.82,257.644
			c-5.491,0.85-11.07,1.278-16.574,1.278c-0.13,0-0.266,0.017-0.401-0.011l2.22,13.803h14.979L143.82,257.644z M61.021,272.714
			H79.64l9.935-20.602c-5.328-1.998-10.608-4.48-15.688-7.397L61.021,272.714z M83.101,263.083
			c-0.238,0.625-0.846,1.041-1.513,1.041c-0.193,0-0.39-0.031-0.571-0.104l-10.737-4.082c-0.405-0.154-0.726-0.453-0.903-0.849
			c-0.179-0.393-0.188-0.834-0.033-1.233c0.097-0.264,0.274-0.492,0.537-0.687c0.052-0.04,0.094-0.075,0.157-0.108
			c0.242-0.148,0.492-0.231,0.746-0.24l0.006-0.004l0.063-0.004c0.196,0,0.393,0.031,0.571,0.104l10.741,4.085
			c0.401,0.151,0.722,0.45,0.894,0.847C83.237,262.245,83.252,262.681,83.101,263.083z M74.378,250.747
			c0.021-0.005,0.039-0.012,0.061-0.018c0.051-0.019,0.114-0.046,0.199-0.046c0.178,0,0.348,0.038,0.501,0.116l10.034,4.867
			c0.272,0.129,0.478,0.359,0.583,0.644c0.097,0.29,0.082,0.603-0.048,0.878c-0.199,0.396-0.592,0.642-1.03,0.642
			c-0.175,0-0.345-0.036-0.501-0.114l-10.037-4.868c-0.27-0.128-0.475-0.359-0.577-0.644c-0.1-0.289-0.082-0.604,0.051-0.877
			c0.115-0.234,0.312-0.408,0.58-0.524C74.263,250.776,74.326,250.759,74.378,250.747z M201.926,167.681v16.498
			c0.692,0.183,1.351,0.362,2.003,0.542v-14.135C203.228,169.754,202.566,168.801,201.926,167.681z M72.72,223.646
			c4.767,3.509,9.811,6.704,14.997,9.493c1.229-3.787,4.745-13.354,12.063-24.896c6.754-10.654,16.821-19.65,24.346-25.489
			C114.246,185.44,91.377,194.538,72.72,223.646z M156.516,169.491h2.676v-4.867h-2.676V169.491z M156.516,162.599h2.676v-4.907
			h-2.676V162.599z M151.81,162.599h2.682v-4.907h-2.682V162.599z M28.626,247.12c3.778,0.4,7.327,1.6,10.554,3.556
			c0.876,0.536,1.745,1.157,2.728,1.946l17.504-17.825c-5.048-4.108-9.757-8.705-14.013-13.678l-16.772,18.8V247.12z
			 M41.001,228.261c0.184-0.219,0.456-0.351,0.764-0.373l0.013-0.011l0.078-0.006c0.275,0,0.541,0.095,0.752,0.269l9.431,8.164
			c0.477,0.414,0.525,1.137,0.117,1.611c-0.22,0.253-0.534,0.394-0.863,0.394c-0.272,0-0.535-0.097-0.746-0.273l-9.434-8.165
			C40.642,229.452,40.584,228.736,41.001,228.261z M36.322,234.587c0.247-0.296,0.589-0.475,1.021-0.535
			c0.052-0.015,0.082-0.021,0.109-0.025c0.018-0.006,0.054-0.016,0.103-0.016c0.38,0,0.749,0.133,1.039,0.377l9.735,8.184
			c0.683,0.579,0.772,1.599,0.199,2.278c-0.312,0.366-0.765,0.575-1.238,0.575c-0.375,0-0.746-0.133-1.036-0.379l-9.735-8.188
			C35.839,236.284,35.748,235.264,36.322,234.587z M28.626,232.346l16.26-11.834c-6.664-7.9-12.125-16.65-16.26-26.025V232.346z
			 M111.174,265.643h11.88c0.74,0,1.368,0.505,1.559,1.194l1.271-7.941c-5.832-0.073-11.726-0.632-17.507-1.66l-0.429,15.479h15.722
			l0.728-4.568c-0.283,0.436-0.782,0.729-1.344,0.729h-11.88c-0.891,0-1.616-0.726-1.616-1.615
			C109.558,266.368,110.283,265.643,111.174,265.643z M111.201,260.007h0.015l11.877,0.435c0.629,0.022,1.118,0.548,1.1,1.181
			c-0.021,0.611-0.522,1.098-1.139,1.098l-11.922-0.433c-0.305-0.014-0.586-0.14-0.795-0.366c-0.205-0.225-0.313-0.512-0.305-0.814
			C110.057,260.456,110.507,260.036,111.201,260.007z M107.471,257.071c-5.936-1.105-11.701-2.674-17.153-4.674l-4.755,20.316
			h16.773L107.471,257.071z M51.141,272.714h3.341l18.821-28.334c-4.658-2.705-9.135-5.775-13.317-9.122L45.84,256.554
			c2.338,2.924,3.966,6.238,4.842,9.842C51.149,268.319,51.304,270.392,51.141,272.714z M205.013,202.427
			c2.317-3.378,4.449-7.086,6.353-11.021c-10.841-3.63-29.1-8.248-55.427-10.102C169.443,184.354,188.131,190.442,205.013,202.427z
			 M151.81,169.491h2.682v-4.867h-2.682V169.491z M108.432,45.169c5.654-1.003,11.433-1.551,17.178-1.637l-2.172-13.52h-15.235
			L108.432,45.169z M225.921,194.385c-4.243,9.657-9.913,18.663-16.86,26.778l16.86,11.626V194.385z M215.187,222.493
			c-0.215,0-0.423-0.06-0.61-0.178c-0.528-0.338-0.688-1.043-0.351-1.575l5.524-8.681c0.146-0.211,0.356-0.364,0.641-0.45
			c0.063-0.018,0.103-0.029,0.154-0.041c0.296-0.086,0.55-0.007,0.785,0.145c0.525,0.337,0.683,1.042,0.348,1.572l-5.528,8.681
			C215.936,222.295,215.576,222.493,215.187,222.493z M225.103,219.356l-3.972,6.752c-0.287,0.492-0.825,0.795-1.393,0.795
			c-0.29,0-0.571-0.074-0.818-0.22c-0.765-0.456-1.024-1.447-0.571-2.212l3.969-6.752c0.121-0.207,0.3-0.38,0.544-0.536
			c0.055-0.032,0.108-0.059,0.163-0.082c0.188-0.083,0.356-0.13,0.544-0.148c0.036-0.015,0.081-0.035,0.145-0.035h0.036l0.079,0.027
			c0.254,0.012,0.498,0.08,0.707,0.201C225.296,217.598,225.553,218.592,225.103,219.356z M107.567,45.326l-4.978-15.314H87.414
			l3.547,19.78C96.259,47.891,101.844,46.389,107.567,45.326z M103.623,43.042l-9.506,1.753c-0.066,0.015-0.139,0.02-0.206,0.02
			c-0.553,0-1.021-0.388-1.117-0.932c-0.118-0.618,0.296-1.213,0.909-1.329l9.506-1.756c0.221-0.039,0.429,0.017,0.564,0.086
			c0.033,0.011,0.058,0.026,0.085,0.04c0.015,0.006,0.03,0.01,0.055,0.014c0.042,0.015,0.108,0.031,0.175,0.082
			c0.244,0.178,0.398,0.419,0.45,0.693C104.649,42.328,104.242,42.926,103.623,43.042z M89.453,37.82
			c-0.16-0.879,0.426-1.715,1.302-1.877l11.479-2.074c0.097-0.018,0.196-0.027,0.287-0.027h0.048l0.085,0.04
			c0.32,0.014,0.613,0.121,0.857,0.314c0.033,0.024,0.055,0.047,0.069,0.066c0.3,0.286,0.475,0.58,0.532,0.912
			c0.16,0.875-0.426,1.713-1.302,1.873l-11.479,2.075c-0.1,0.018-0.196,0.027-0.293,0.027C90.26,39.149,89.596,38.59,89.453,37.82z"
			/>
	</g>
</g>
</svg>
