<?xml version="1.0" encoding="utf-8"?>
<!-- Generator: Adobe Illustrator 16.0.0, SVG Export Plug-In . SVG Version: 6.00 Build 0)  -->
<!DOCTYPE svg PUBLIC "-//W3C//DTD SVG 1.1//EN" "http://www.w3.org/Graphics/SVG/1.1/DTD/svg11.dtd">
<svg version="1.1" id="Layer_1" xmlns="http://www.w3.org/2000/svg" xmlns:xlink="http://www.w3.org/1999/xlink" x="0px" y="0px"
	 width="17px" height="34.946px" viewBox="423.949 195.328 17 34.946" enable-background="new 423.949 195.328 17 34.946"
	 xml:space="preserve">
<g>
	<g>
		<g>
			<g>
				<path fill="#E1A957" d="M439.601,217.088c-0.162-0.174-0.435-0.183-0.608-0.022c-0.175,0.162-0.185,0.434-0.022,0.608
					c1.055,1.134,0.842,2.21,0.621,2.751c-0.365,0.896-1.165,1.477-1.697,1.501c-1.104,0.054-2.252-0.363-3.304-0.865
					c-0.01-0.005-0.02-0.01-0.03-0.014c-0.467-0.224-0.915-0.465-1.331-0.689c-1.195-0.643-2.061-1.107-2.684-0.823
					c-0.187,0.085-0.43,0.277-0.528,0.708c-0.082,0.363-0.006,0.696,0.221,0.962c0.645,0.758,2.402,0.771,4.066,0.672
					c1.057,0.499,2.218,0.914,3.398,0.914c0.077,0,0.154-0.002,0.231-0.005c0.944-0.044,1.999-0.919,2.455-2.036
					C440.896,219.507,440.608,218.172,439.601,217.088z M430.893,220.649c-0.033-0.039-0.064-0.09-0.036-0.214
					c0.021-0.092,0.045-0.116,0.045-0.116c0.199-0.114,1.13,0.373,1.805,0.735C431.505,221.025,431.049,220.833,430.893,220.649z
					 M430.788,222.555c-0.521-0.083-1.059-0.168-1.529-0.32c-2.834-0.912-4.261-2.702-4.126-5.177
					c0.094-1.71,2.229-4.23,4.491-6.897c3.814-4.498,8.136-9.596,6.249-14.25c-0.09-0.22-0.34-0.326-0.561-0.237
					c-0.221,0.09-0.326,0.34-0.237,0.561c1.691,4.17-2.452,9.058-6.107,13.37c-2.461,2.902-4.586,5.409-4.694,7.407
					c-0.157,2.867,1.52,5.013,4.722,6.043c0.533,0.171,1.104,0.263,1.657,0.351c0.893,0.142,1.736,0.277,2.028,0.706
					c0.141,0.207,0.165,0.506,0.074,0.915c-0.351,1.589-0.604,3.132-0.734,4.462c-0.022,0.236,0.15,0.447,0.387,0.47
					c0.015,0.001,0.028,0.002,0.042,0.002c0.22,0,0.406-0.166,0.428-0.388c0.127-1.297,0.376-2.805,0.718-4.361
					c0.144-0.653,0.077-1.171-0.204-1.585C432.892,222.891,431.87,222.728,430.788,222.555z"/>
				<path fill="#E1A957" d="M432.449,230.273c-0.022,0-0.047-0.001-0.07-0.003c-0.199-0.019-0.378-0.114-0.505-0.268
					c-0.126-0.153-0.185-0.347-0.165-0.545c0.131-1.342,0.387-2.897,0.739-4.499c0.07-0.316,0.061-0.542-0.027-0.671
					c-0.216-0.317-1.067-0.453-1.818-0.573c-0.563-0.09-1.146-0.183-1.703-0.362c-3.351-1.079-5.104-3.337-4.939-6.359
					c0.115-2.104,2.271-4.647,4.769-7.593c3.598-4.244,7.676-9.054,6.056-13.049c-0.153-0.38,0.03-0.815,0.41-0.969
					c0.09-0.036,0.184-0.055,0.28-0.055c0.304,0,0.574,0.182,0.689,0.464c1.958,4.83-2.429,10.005-6.3,14.571
					c-2.228,2.626-4.33,5.107-4.418,6.712c-0.127,2.316,1.226,3.998,3.909,4.861c0.446,0.144,0.97,0.227,1.477,0.308
					c1.156,0.184,2.242,0.357,2.818,1.205c0.332,0.488,0.414,1.086,0.251,1.829c-0.341,1.548-0.587,3.043-0.712,4.324
					C433.152,229.984,432.834,230.273,432.449,230.273z M435.475,195.955c-0.016,0-0.03,0.003-0.045,0.009
					c-0.059,0.024-0.088,0.092-0.063,0.152c1.763,4.346-2.446,9.311-6.159,13.69c-2.424,2.859-4.518,5.328-4.621,7.221
					c-0.147,2.711,1.452,4.745,4.506,5.728c0.511,0.164,1.069,0.253,1.609,0.339c0.962,0.153,1.87,0.298,2.238,0.839
					c0.192,0.282,0.232,0.661,0.122,1.16c-0.348,1.577-0.6,3.107-0.729,4.425c-0.004,0.042,0.015,0.071,0.026,0.085
					c0.011,0.014,0.036,0.038,0.078,0.042c0.003,0,0.008,0,0.012,0c0.061,0,0.11-0.045,0.116-0.105
					c0.127-1.306,0.377-2.826,0.724-4.398c0.124-0.564,0.072-1.003-0.158-1.341c-0.423-0.623-1.38-0.775-2.393-0.937
					c-0.535-0.085-1.083-0.173-1.575-0.332c-2.985-0.961-4.487-2.86-4.344-5.493c0.1-1.815,2.269-4.375,4.565-7.083
					c3.756-4.43,8.014-9.451,6.197-13.929C435.561,195.974,435.511,195.955,435.475,195.955z M437.702,223.106
					c-1.027,0-2.129-0.289-3.46-0.909c-0.462,0.026-0.858,0.039-1.213,0.039c-1.588,0-2.552-0.263-3.031-0.826
					c-0.289-0.339-0.391-0.778-0.287-1.235c0.099-0.435,0.349-0.763,0.704-0.925c0.165-0.075,0.35-0.113,0.547-0.113
					c0.656,0,1.433,0.417,2.415,0.946c0.396,0.213,0.846,0.455,1.313,0.679c0.014,0.006,0.027,0.013,0.041,0.02
					c1.195,0.571,2.139,0.836,2.968,0.836c0.061,0,0.12-0.001,0.18-0.004c0.371-0.017,1.091-0.493,1.423-1.306
					c0.192-0.472,0.375-1.413-0.561-2.419c-0.279-0.301-0.263-0.772,0.038-1.052c0.139-0.129,0.319-0.199,0.507-0.199
					c0.206,0,0.405,0.086,0.545,0.237c1.095,1.177,1.404,2.633,0.849,3.994c-0.507,1.243-1.655,2.181-2.73,2.231
					C437.865,223.104,437.783,223.106,437.702,223.106z M434.365,221.561l0.072,0.034c1.277,0.603,2.314,0.883,3.265,0.883
					c0.072,0,0.145-0.001,0.218-0.005c0.815-0.038,1.772-0.847,2.178-1.841c0.459-1.126,0.194-2.34-0.728-3.33
					c-0.029-0.032-0.065-0.037-0.085-0.037c-0.021,0-0.052,0.005-0.081,0.032c-0.046,0.043-0.048,0.117-0.005,0.165
					c1.174,1.261,0.932,2.473,0.683,3.083c-0.418,1.023-1.332,1.666-1.974,1.696c-0.069,0.003-0.14,0.005-0.21,0.005
					c-1.219,0-2.435-0.514-3.244-0.9l-0.03-0.015c-0.481-0.231-0.939-0.478-1.344-0.695c-0.905-0.487-1.62-0.871-2.118-0.871
					c-0.108,0-0.202,0.019-0.286,0.057c-0.179,0.081-0.297,0.247-0.353,0.493c-0.061,0.267-0.01,0.499,0.153,0.689
					c0.342,0.402,1.2,0.605,2.553,0.605c0.361,0,0.772-0.014,1.256-0.042L434.365,221.561z M434.016,221.401l-1.317-0.033
					c-1.119-0.028-1.769-0.192-2.045-0.516c-0.113-0.132-0.147-0.292-0.104-0.486c0.027-0.121,0.071-0.212,0.132-0.271l0.028-0.028
					l0.036-0.02c0.067-0.039,0.146-0.059,0.237-0.059c0.333,0,0.938,0.29,1.871,0.79L434.016,221.401z"/>
			</g>
		</g>
	</g>
</g>
</svg>
