<?xml version="1.0" encoding="utf-8"?>
<!-- Generator: Adobe Illustrator 16.0.0, SVG Export Plug-In . SVG Version: 6.00 Build 0)  -->
<!DOCTYPE svg PUBLIC "-//W3C//DTD SVG 1.1//EN" "http://www.w3.org/Graphics/SVG/1.1/DTD/svg11.dtd">
<svg version="1.1" id="Layer_1" xmlns="http://www.w3.org/2000/svg" xmlns:xlink="http://www.w3.org/1999/xlink" x="0px" y="0px"
	 width="186px" height="35.303px" viewBox="0 0 186 35.303" enable-background="new 0 0 186 35.303" xml:space="preserve">
<path fill="#FFFFFF" d="M157.139,22.524l2.094-12.784l2.096,12.784H157.139z M154.999,35.303l0.026-0.179l0.02,0.179l1.1-6.711
	h6.166l0.215,1.258l0.895,5.453l0.018-0.145l0.022,0.145h8.185l-7.492-34.477h-9.744l-7.541,34.477H154.999z M175.338,5.871
	c0.373,0,0.801,0.214,0.801,0.615V9.19c0,0.381-0.42,0.587-0.801,0.587c-0.4,0-0.803-0.206-0.803-0.587V6.487
	C174.535,6.096,174.945,5.871,175.338,5.871z M179.18,8.333l1.187-1.688l-0.019,1.688H179.18z M175.338,11.193
	c0.984,0,2.068-0.476,2.328-1.526h2.561V11.1h1.592V9.666h0.617V8.314h-0.617V4.501h-1.369l-2.725,3.708V6.439
	c0-1.406-1.26-2.03-2.387-2.03c-1.117,0-2.387,0.625-2.387,2.03V9.17C172.951,10.57,174.221,11.193,175.338,11.193z M177.691,0
	c4.309,0,7.801,3.493,7.801,7.801c0,4.309-3.492,7.8-7.801,7.8s-7.799-3.492-7.799-7.8S173.384,0,177.691,0z M106.092,21.468h2.667
	c1.886,0.14,2.528,1.519,2.755,3.633c0.166,1.513,0.119,6.42,0.129,10.201h8.248c-0.188-4.407-0.261-10.835-0.422-12.777
	c-0.136-2.392-1.748-3.954-4.001-4.458l0.003-0.091c3.399-1.561,4.273-4.184,4.273-7.862c0.002-6.848-3.313-9.515-9.93-9.515
	L98.002,0.598v34.478h8.09V21.468L106.092,21.468z M106.092,6.805c3.955-0.09,5.653,0.094,5.653,4.182
	c0,2.118-0.552,4.278-2.897,4.278h-2.756V6.805z M137.004,24.533l0.001-0.997h-2.825v-6.205h10.987c0,3.163-0.006,5.588-0.006,8.75
	c0,7.089-4.124,10.057-11.08,10.057c-7.458,0-10.937-3.523-10.937-11.078V10.987C123.146,3.495,126.596,0,133.991,0
	c6.503,0,10.512,2.617,10.948,8.806c0.018,0.251,0.031,1.616,0.037,1.881l-7.951,2.619V9.544c0-1.604-1.313-2.917-2.916-2.917l0,0
	c-1.605,0-2.918,1.313-2.918,2.917v17.05c0,1.605,1.313,2.917,2.918,2.917l0,0c1.604,0,2.916-1.311,2.916-2.917v-2.061H137.004z
	 M45.642,10.689c-0.004-0.173-0.011-1.449-0.02-1.614C45.279,2.692,41.204,0,34.611,0c-7.396,0-10.847,3.495-10.847,10.986
	l0.002,14.156c0,7.033,2.894,10.996,10.34,10.996c8.275,0,11.675-4.145,11.675-10.073l0.001-4.229h-8.085v4.758
	c0,1.605-1.312,2.917-2.916,2.917H34.78c-0.901,0-1.711-0.414-2.246-1.061c-0.509-0.53-0.726-1.326-0.726-2.34
	c0.018-5.521,0.056-11.045,0.056-16.565c0-1.604,1.312-2.917,2.916-2.917h0.001c1.604,0,2.916,1.313,2.916,2.917v3.762
	L45.642,10.689z M94.275,35.303v-6.894H83.293V20.96h10.114v-6.893H83.293V7.724h10.436V0.826H75.204v34.477H94.275z M57.501,35.303
	V20.96h5.608v14.342h8.095V0.826h-8.095v13.241h-5.608V0.826h-8.086v34.477H57.501z M0,7.724h6.341v27.579h8.093V7.724h6.527V0.826
	H0V7.724z"/>
</svg>
