<?xml version="1.0" encoding="utf-8"?>
<!-- Generator: Adobe Illustrator 16.0.0, SVG Export Plug-In . SVG Version: 6.00 Build 0)  -->
<!DOCTYPE svg PUBLIC "-//W3C//DTD SVG 1.1//EN" "http://www.w3.org/Graphics/SVG/1.1/DTD/svg11.dtd">
<svg version="1.1" id="Layer_1" xmlns="http://www.w3.org/2000/svg" xmlns:xlink="http://www.w3.org/1999/xlink" x="0px" y="0px"
	 width="150px" height="29.224px" viewBox="0 0 150 29.224" enable-background="new 0 0 150 29.224" xml:space="preserve">
<path fill-rule="evenodd" clip-rule="evenodd" fill="#1A1A18" d="M127.071,18.214l1.693-10.337l1.694,10.337H127.071z
	 M125.342,28.548l0.021-0.145l0.017,0.145l0.888-5.427h4.987l0.174,1.017l0.723,4.41l0.014-0.117l0.019,0.117h6.618l-6.059-27.88
	h-7.88l-6.099,27.88H125.342z M141.789,4.748c0.301,0,0.647,0.173,0.647,0.498v2.186c0,0.308-0.34,0.475-0.647,0.475
	c-0.324,0-0.649-0.167-0.649-0.475V5.246C141.14,4.929,141.471,4.748,141.789,4.748z M144.896,6.738l0.959-1.365l-0.016,1.365
	H144.896z M141.789,9.051c0.796,0,1.672-0.385,1.882-1.235h2.07v1.16h1.288v-1.16h0.498V6.723h-0.498V3.64h-1.108l-2.203,2.999
	V5.207c0-1.137-1.018-1.643-1.929-1.643c-0.904,0-1.931,0.505-1.931,1.643v2.209C139.858,8.547,140.885,9.051,141.789,9.051z
	 M143.691,0C147.176,0,150,2.825,150,6.308c0,3.484-2.824,6.308-6.309,6.308c-3.483,0-6.307-2.823-6.307-6.308
	C137.385,2.825,140.208,0,143.691,0z M85.792,17.36h2.157c1.523,0.113,2.044,1.228,2.228,2.938c0.134,1.224,0.096,5.192,0.104,8.25
	h6.669c-0.152-3.563-0.21-8.762-0.341-10.332c-0.109-1.934-1.413-3.198-3.235-3.605l0.003-0.074
	c2.748-1.262,3.455-3.383,3.455-6.358c0.002-5.538-2.678-7.694-8.029-7.694L79.25,0.483v27.88h6.542V17.36z M85.792,5.503
	c3.198-0.073,4.571,0.076,4.571,3.382c0,1.712-0.445,3.459-2.343,3.459h-2.229V5.503z M110.789,19.839l0.001-0.806h-2.284v-5.018
	h8.885c0,2.558-0.005,4.519-0.005,7.076c0,5.732-3.335,8.132-8.96,8.132c-6.031,0-8.843-2.849-8.843-8.958V8.885
	c0-6.059,2.789-8.885,8.771-8.885c5.259,0,8.5,2.116,8.854,7.121c0.014,0.203,0.024,1.307,0.029,1.521l-6.43,2.118V7.718
	c0-1.297-1.061-2.359-2.357-2.359l0,0c-1.299,0-2.359,1.062-2.359,2.359v13.787c0,1.298,1.061,2.359,2.359,2.359l0,0
	c1.297,0,2.357-1.061,2.357-2.359v-1.667H110.789z M36.909,8.644c-0.003-0.14-0.008-1.171-0.016-1.306
	C36.616,2.177,33.32,0,27.988,0c-5.98,0-8.771,2.826-8.771,8.885l0.002,11.447c0,5.688,2.34,8.892,8.362,8.892
	c6.691,0,9.441-3.352,9.441-8.146l0.001-3.42h-6.538v3.847c0,1.298-1.061,2.359-2.358,2.359h0c-0.729,0-1.384-0.334-1.816-0.858
	c-0.412-0.428-0.587-1.072-0.587-1.892c0.015-4.464,0.045-8.932,0.045-13.396c0-1.297,1.061-2.359,2.358-2.359h0
	c1.297,0,2.358,1.062,2.358,2.359v3.042L36.909,8.644z M76.237,28.548v-5.575h-8.881V16.95h8.179v-5.573h-8.179v-5.13h8.439V0.668
	H60.814v27.88H76.237z M46.499,28.548V16.95h4.535v11.598h6.546V0.668h-6.546v10.708h-4.535V0.668h-6.539v27.88H46.499z M0,6.246
	h5.128v22.302h6.545V6.246h5.278V0.668H0V6.246z"/>
</svg>
