<?xml version="1.0"?>
<svg xmlns="http://www.w3.org/2000/svg" xmlns:xlink="http://www.w3.org/1999/xlink" xmlns:svgjs="http://svgjs.com/svgjs" version="1.1" width="512" height="512" x="0" y="0" viewBox="0 0 60 60" style="enable-background:new 0 0 512 512" xml:space="preserve" class=""><g><g xmlns="http://www.w3.org/2000/svg" id="Page-1" fill="none" fill-rule="evenodd"><g id="027---Wine-Barrel" fill="rgb(0,0,0)" fill-rule="nonzero" transform="translate(-1)"><path id="Shape" d="m23.14 53c-.769328-1.277566-1.4508998-2.6059629-2.04-3.976-.1342724-.3385912-.4420272-.5773948-.8033575-.6233686-.3613302-.0459737-.7190795.1081547-.9338623.402334-.2147829.2941793-.2526241.6818753-.0987802 1.0120346.7002043 1.6266915 1.522902 3.1978736 2.461 4.7v.005.007c.9510605 1.561239 2.0258416 3.0436611 3.214 4.433.5705032.6656642 1.405333 1.04613 2.282 1.04h22.563c.8727227.0047308 1.7035954-.3736032 2.273-1.035 1.191477-1.3928544 2.2689535-2.8793171 3.222-4.445.006-.011.008-.022.014-.032 1.3959859-2.2552011 2.5484522-4.6523176 3.438-7.151v-.005c.5945422-1.6704821 1.0667882-3.3819979 1.413-5.121 1.1330009-5.412678 1.1330009-11.001322 0-16.414-.3462118-1.7390021-.8184578-3.4505179-1.413-5.121v-.005c-.8949264-2.5139567-2.0554933-4.9252676-3.462-7.193-.9498937-1.562418-2.0226128-3.0467697-3.208-4.439-.5722951-.66258581-1.4054819-1.04210401-2.281-1.039h-18.82c-.5522847 0-1 .44771525-1 1s.4477153 1 1 1h18.82c.287621-.00495431.563445.114193.757.327.74.874 1.426 1.769 2.048 2.673h-24.705c-.398161-.000591-.7587359.2350788-.918.6-.288.667-.565 1.354-.82 2.051-.1815441.5158576.0849695 1.0818711.598257 1.2705596.5132874.1886885 1.0829465-.0699413 1.278743-.5805596.167-.454.342-.9.524-1.345h4.952c-.1.609-.206 1.233-.3 1.882-.0800813.5464857.2980143 1.0544187.8445 1.1344999.5464857.0800813 1.0544187-.2980142 1.1345-.8444999.11-.751.227-1.478.35-2.172h5.955c.271 1.531.514 3.207.725 5h-7.144c-.5522847 0-1 .4477153-1 1s.4477153 1 1 1h22.014c.345 1.038.628 2.031.858 3h-21.932c-.5522847 0-1 .4477153-1 1s.4477153 1 1 1h6.8c.2631627 4.6628553.2668351 9.3367369.011 14h-8.618c-.171-3.129-.225-6.256-.163-9.31.0111606-.5519456-.4270609-1.0085196-.979-1.02-.5485029-.0020189-.9999902.4308959-1.021.979-.062 3.068.009 6.209.178 9.351h-6.258c-.5522847 0-1 .4477153-1 1s.4477153 1 1 1h31.982c-.23.969-.513 1.962-.858 3h-33.374c-.5522847 0-1 .4477153-1 1s.4477153 1 1 1h1.08c.4389503 1.696914.9775511 3.3664765 1.613 5zm27.4 4.666c-.1902421.2158713-.4652892.3378709-.753.334h-22.566c-.2877659.0041407-.5629208-.1179068-.753-.334-.7285174-.8527377-1.4124314-1.7425935-2.049-2.666h28.167c-.6365686.9234065-1.3204826 1.8132623-2.049 2.666zm-6.329-37.666c-.206-1.785-.442-3.459-.708-5h4.957c.673883 1.6288927 1.2436952 3.2989168 1.706 5zm8.016 0c-.44157-1.6963846-.9808022-3.3658342-1.615-5h3.248c.9584178 1.5981639 1.7880403 3.2701157 2.481 5zm-7.427 21c.2560003-4.6631558.2560003-9.3368442 0-14h6.758c.5880006 4.6481446.5880006 9.3518554 0 14zm8.764 0c.566998-4.6494442.566998-9.3505558 0-14h4.786c.8650071 4.6265825.8650071 9.3734175 0 14zm.3 12h-3.252c.6354489-1.6335235 1.1740497-3.303086 1.613-5h4.116c-.6929597 1.7298843-1.5225822 3.4018361-2.481 5zm-5.4 0h-4.956c.267-1.548.5-3.223.708-5h5.949c-.4620328 1.7006747-1.0304865 3.3706325-1.702 5zm-6.256-5c-.209 1.786-.452 3.46-.725 5h-5.96c-.271-1.531-.514-3.207-.725-5zm-15.368 0h5.949c.206 1.785.442 3.459.708 5h-4.955c-.6719547-1.6292016-1.2404179-3.2991875-1.702-5z" fill="#896f4b" data-original="#000000" style="" class=""/><path id="Shape" d="m12 21.69c-1.5367073-2.3246916-4.47173006-3.2853441-7.08556529-2.3191526-2.61383523.9661914-4.21838151 3.6048735-3.87360453 6.3701563.34477698 2.7652829 2.54811346 4.9291961 5.31916982 5.2239963-.62919147 1.7315587-.42627688 3.6563606.55015569 5.2186527.97643258 1.5622921 2.61767398 2.5881398 4.44984431 2.7813473-.908352 2.4913135-.0735826 5.2834497 2.0531457 6.8673604s5.0409803 1.5839107 7.1677086 0 2.9614977-4.3760469 2.0531457-6.8673604c1.8321703-.1932075 3.4734117-1.2190552 4.4498443-2.7813473s1.1793472-3.487094.5501557-5.2186527c2.7722788-.2918993 4.9783608-2.4547057 5.3251184-5.2206583.3467577-2.7659526-1.2571569-5.4064048-3.8715854-6.3736164s-5.550641-.006386-7.087533 2.3192747c-.9094303-1.3684734-2.3398881-2.3045234-3.958-2.59.1104737-1.5573099.3703346-3.1004012.776-4.608.3362438.0857064.6820078.1283809 1.029.127 1.2768071-.0776 2.519967-.4405016 3.638-1.062 1.7641954-.7307018 3.2224833-2.0473638 4.129-3.728 0-.005.032-.066.033-.071.2918144-.74776908.4453082-1.54234497.453-2.345.0163709-.38916563.0594725-.77674575.129-1.16.0429859-.191957.1039206-.37944836.182-.56.2723201-.57323009.6178718-1.10870069 1.028-1.593.287-.362.575-.719.908-1.112.4495522-.39981266.620567-1.02738986.436-1.6-.231-.566-.749-.836-1.605-.8l-.56.023c-1.7685871-.01580733-3.5321261.191154-5.249.616l-.237.071c-2.5355753.83046828-4.6577556 2.59883257-5.932 4.943-.9854903 1.68576159-1.3134848 3.67616467-.921 5.589.1436911.5547997.4056808 1.0719565.768 1.516-.132.431-.249.857-.35 1.272-.5770724-1.1426678-1.3997163-2.1435683-2.409-2.931-.1824148-1.1339944-.6875432-2.19146591-1.455-3.046-.8442705-1.2112149-2.0804387-2.09419215-3.5-2.5l-.061-.013c-.61759185-.10169075-1.24853235-.09016982-1.862.034-.2727272.04737367-.54836574.0761069-.825.086-.12933778.00037073-.25836399-.01269946-.385-.039-.43512549-.10373915-.85519904-.26269498-1.25-.473-.305-.149-.6-.3-.939-.478-.44258887-.32195821-1.03656533-.34215341-1.5-.051-.49131002.35844376-.6707468 1.00822869-.433 1.568l.1.4c.27312952 1.30760036.70990163 2.57558339 1.3 3.774l.092.165c1.03508777 1.7652821 2.70515771 3.0687165 4.669 3.644.65440904.1909975 1.3322964.2896177 2.014.293.8213789.0141825 1.6346954-.163891 2.375-.52.3809817-.1919105.7207048-.4565548 1-.779 1.3358893 1.4816417 2.1472616 3.361608 2.309 5.35-1.6099996.2905522-3.0318425 1.2252053-3.937 2.588zm-.269-8.946c-.9340054.3865428-1.97705177.418549-2.933.09-1.46496178-.4271583-2.71152815-1.3975843-3.485-2.713l-.068-.121c-.37552306-.73844809-.66508309-1.51754239-.863-2.322.48324406.23096577.99307609.40158149 1.518.508.23078602.04311032.4652358.06354095.7.061.3721346-.00894979.7431199-.04504566 1.11-.108.38809059-.0853061.78809162-.10222662 1.182-.05l.228-.973-.22.976c.96842289.32132233 1.8031977.95426028 2.374 1.8.083.1.211.264.349.457-.8542864-.2356041-1.73682944-.35302982-2.623-.349-.55228475 0-1 .4477153-1 1s.44771525 1 1 1c1.0108403-.0144279 2.012812.190265 2.937.6-.0639339.0544382-.1329127.1026564-.206.144zm-8.731 12.256c0-2.209139 1.790861-4 4-4s4 1.790861 4 4c-.0036184.8145827-.2581687 1.6082625-.729 2.273-1.0166974.3065069-1.93276157.8796945-2.653 1.66-.20399135.0380513-.41059348.0604499-.618.067-2.209139 0-4-1.790861-4-4zm9 12c-1.518523.00106-2.90669686-.8578261-3.58351091-2.2171774-.67681406-1.3593512-.52553865-2.9847213.39051091-4.1958226.02710991-.0270463.05249327-.0557695.076-.086.56338141-.7082688 1.352002-1.2026121 2.235-1.401.5808142-.1300034 1.1831858-.1300034 1.764 0 .8828592.1981245 1.6714611.6921034 2.235 1.4.023431.0293623.0484693.0574052.075.084.5246554.6961657.8082936 1.5442719.808 2.416-.0035144.806414-.2533327 1.5925041-.716 2.253-1.0291791.3101279-1.9561485.8910379-2.684 1.682-.1981285.0363986-.3986732.0581243-.6.065zm5 8c-2.209139 0-4-1.790861-4-4s1.790861-4 4-4 4 1.790861 4 4-1.790861 4-4 4zm5-8c-.2013268-.0068757-.4018715-.0286014-.6-.065-.7278515-.7909621-1.6548209-1.3718721-2.684-1.682-.4626673-.6604959-.7124856-1.446586-.716-2.253-.0004392-.8706699.2828632-1.7177685.807-2.413.0271099-.0270463.0524933-.0557695.076-.086.5633814-.7082688 1.352002-1.2026121 2.235-1.401.5808142-.1300034 1.1831858-.1300034 1.764 0 .8828592.1981245 1.6714611.6921034 2.235 1.4.023431.0293623.0484693.0574052.075.084.917737 1.2109619 1.0701331 2.8373337.3933383 4.1977082s-2.0659083 2.2198357-3.5853383 2.2182918zm5-16c2.209139 0 4 1.790861 4 4s-1.790861 4-4 4c-.2074065-.0065501-.4140087-.0289487-.618-.067-.7206765-.7797771-1.6365863-1.352868-2.653-1.66-.4708313-.6647375-.7253816-1.4584173-.729-2.273 0-2.209139 1.790861-4 4-4zm-8.033-13.813c1.0233392-1.88501084 2.727706-3.30823765 4.765-3.979l.189-.057c1.351865-.34186868 2.7405822-.51650784 4.135-.52l-.185.232c-.5190544.61872939-.9535288 1.30373276-1.292 2.037 0 .006-.038.094-.041.1-.1122565.27160917-.1999407.55273407-.262.84-.0900019.47609327-.1461426.95796756-.168 1.442-.0005256.56137877-.0962146 1.11860638-.283 1.648l-.025.056c-.7302011 1.2540863-1.855574 2.230699-3.2 2.777-.9452777.5686897-2.0355718.8501232-3.138.81.8210328-2.4703746 2.5998254-4.50750095 4.937-5.654.4993742-.22257052.7274312-.80493118.5119982-1.30742579-.2154329-.50249461-.7944852-.73882584-1.2999982-.53057421-2.4360284 1.1169663-4.3834353 3.08072004-5.48 5.526-.043771-1.19545701.2456727-2.37954481.836-3.42zm-1.967 13.813c2.209139 0 4 1.790861 4 4-.0036184.8145827-.2581687 1.6082625-.729 2.273-1.016466.3064929-1.9324528.8792867-2.653 1.659-.4096925.0659968-.8273075.0659968-1.237 0-.7204576-.7793371-1.6360154-1.3520785-2.652-1.659-.4708313-.6647375-.7253816-1.4584173-.729-2.273 0-1.060866.4214274-2.0782816 1.1715729-2.8284271s1.7675611-1.1715729 2.8284271-1.1715729z" fill="#896f4b" data-original="#000000" style="" class=""/><circle id="Oval" cx="16" cy="42" r="1" fill="#896f4b" data-original="#000000" style="" class=""/><circle id="Oval" cx="11" cy="34" r="1" fill="#896f4b" data-original="#000000" style="" class=""/><circle id="Oval" cx="21" cy="34" r="1" fill="#896f4b" data-original="#000000" style="" class=""/><circle id="Oval" cx="16" cy="26" r="1" fill="#896f4b" data-original="#000000" style="" class=""/><circle id="Oval" cx="26" cy="26" r="1" fill="#896f4b" data-original="#000000" style="" class=""/><circle id="Oval" cx="6" cy="26" r="1" fill="#896f4b" data-original="#000000" style="" class=""/></g></g></g></svg>
