<?xml version="1.0"?>
<svg xmlns="http://www.w3.org/2000/svg" xmlns:xlink="http://www.w3.org/1999/xlink" xmlns:svgjs="http://svgjs.com/svgjs" version="1.1" width="512" height="512" x="0" y="0" viewBox="-9 0 511 511.99964" style="enable-background:new 0 0 512 512" xml:space="preserve" class=""><g><path xmlns="http://www.w3.org/2000/svg" d="m411.0625 99.113281-25.183594 151.390625c-6.359375 38.246094-28.007812 72.253906-59.964844 94.207032-38.75 26.617187-88.121093 32.445312-132 15.574218-19.816406-7.613281-38.308593-18.292968-54.8125-31.644531-36.546874-29.566406-56.1875-75.234375-52.511718-122.101563 3.035156-38.652343 21.664062-74.40625 51.601562-99.035156l118.519532-97.503906zm0 0" fill="#00000000" data-original="#c9f3ff" style="" class=""/><path xmlns="http://www.w3.org/2000/svg" d="m325.914062 344.710938c31.957032-21.953126 53.605469-55.960938 59.964844-94.207032l6.085938-36.574218-1.421875-1.375s-57.183594 46.828124-152.300781-4.375c-95.117188-51.207032-151.210938-2.074219-151.210938-2.074219l-.4375.402343v.03125c-3.679688 46.867188 15.960938 92.535157 52.511719 122.101563 16.5 13.351563 34.996093 24.027344 54.808593 31.644531 43.878907 16.871094 93.25 11.042969 132-15.574218zm0 0" fill="#e1a957" data-original="#ff5d5d" style="" class=""/><path xmlns="http://www.w3.org/2000/svg" d="m287.929688 501.996094-86.101563-36.296875c-38.835937-16.371094-73.253906-41.6875-100.445313-73.890625-49.59375-58.726563-81.097656-130.570313-90.695312-206.832032-1.804688-14.328124 9.363281-26.988281 23.804688-26.988281 11.242187 0 20.976562 7.804688 23.417968 18.777344 14.242188 63.941406 46.40625 122.503906 92.726563 168.828125l38.027343 38.023438c8.609376 8.613281 22.570313 8.613281 31.179688 0 8.613281-8.609376 8.613281-22.570313 0-31.179688l-64.1875-64.191406c-11.386719-11.386719-11.386719-29.851563 0-41.238282 11.386719-11.386718 29.851562-11.386718 41.242188 0l14.425781 14.425782c30.609375 30.609375 67.320312 54.429687 107.746093 69.910156 52.664063 20.171875 98.785157 54.398438 133.351563 98.957031l30.648437 39.507813v32.1875zm0 0" fill="#e1a957" data-original="#fccf9d" style="" class=""/><path xmlns="http://www.w3.org/2000/svg" d="m490.96875 463.679688-30.644531-39.507813c-28.933594-37.300781-65.699219-67.578125-107.554688-88.800781 22.59375-22.472656 37.71875-51.621094 42.976563-83.226563l25.179687-151.386719c.6875-4.113281-1.253906-8.21875-4.863281-10.300781l-154.351562-89.117187c-3.613282-2.085938-8.136719-1.710938-11.355469.9375l-118.515625 97.503906c-31.863282 26.214844-51.988282 64.839844-55.21875 105.976562-.027344.347657-.039063.691407-.066406 1.035157-3.476563-10.542969-6.453126-21.285157-8.882813-32.203125-3.488281-15.664063-17.132813-26.601563-33.179687-26.601563-9.75 0-19.042969 4.195313-25.492188 11.507813s-9.453125 17.054687-8.234375 26.730468c9.863281 78.367188 42.015625 151.6875 92.976563 212.035157 5.96875 7.070312 12.320312 13.816406 18.972656 20.25l-19.574219 33.90625-53.554687-30.921875c-4.785157-2.761719-10.902344-1.121094-13.660157 3.660156-2.761719 4.785156-1.125 10.898438 3.660157 13.660156l124.429687 71.839844c1.574219.910156 3.292969 1.339844 4.988281 1.339844 3.457032 0 6.820313-1.792969 8.671875-5 2.761719-4.78125 1.121094-10.898438-3.660156-13.660156l-53.554687-30.917969 17.453124-30.230469c21.078126 17.578125 44.742188 32.066406 70.03125 42.726562l86.097657 36.296876c1.269531.535156 2.585937.789062 3.882812.789062 3.898438 0 7.609375-2.296875 9.21875-6.117188 2.144531-5.089843-.242187-10.953124-5.328125-13.101562l-86.101562-36.292969c-37.207032-15.6875-70.644532-40.28125-96.691406-71.128906-48.460938-57.386719-79.035157-127.109375-88.414063-201.628906-.511719-4.042969.695313-7.949219 3.390625-11.003907 2.691406-3.054687 6.417969-4.738281 10.492188-4.738281 6.605468 0 12.222656 4.503907 13.65625 10.953125 9.859374 44.261719 27.992187 85.890625 53.292968 122.921875 1.351563 2.046875 2.765625 4.058594 4.21875 6.046875 11.328125 15.855469 23.984375 30.832032 37.90625 44.753906l38.023438 38.027344c6.054687 6.054688 14.105468 9.386719 22.664062 9.386719s16.609375-3.332031 22.664063-9.386719c12.492187-12.496094 12.492187-32.828125 0-45.324218l-64.1875-64.1875c-3.621094-3.621094-5.613281-8.433594-5.613281-13.550782 0-5.117187 1.992187-9.929687 5.613281-13.546875 7.46875-7.472656 19.625-7.472656 27.097656 0l14.425781 14.425781c31.804688 31.808594 69.234375 56.09375 111.242188 72.179688 50.960937 19.519531 95.578125 52.625 129.023437 95.746094l30.648438 39.507812c3.382812 4.363282 9.667969 5.15625 14.03125 1.769532 4.363281-3.386719 5.15625-9.667969 1.769531-14.03125zm-346.421875-348.453126 113.164063-93.101562 25.394531 14.660156-53.71875 44.191406c-4.261719 3.511719-4.875 9.8125-1.367188 14.078126 1.976563 2.402343 4.839844 3.644531 7.730469 3.644531 2.234375 0 4.484375-.746094 6.347656-2.277344l59.507813-48.957031 98.453125 56.84375-16.839844 101.242187c-7.574219 5.414063-58.617188 37.761719-140.234375-6.175781-51.859375-27.921875-92.917969-26.933594-118.230469-21.1875-9.882812 2.242188-18.210937 5.367188-24.890625 8.492188 6.734375-27.808594 22.402344-53.125 44.683594-71.453126zm59.707031 264.851563c-3.21875 0-6.246094-1.253906-8.519531-3.53125l-7.921875-7.917969c.835938.332032 1.667969.667969 2.511719.992188 7.339843 2.824218 14.933593 5.074218 22.625 6.734375-.0625.0625-.113281.132812-.175781.195312-2.273438 2.273438-5.300782 3.527344-8.519532 3.527344zm14.140625-125.714844-14.425781-14.425781c-15.269531-15.269531-40.113281-15.269531-55.382812 0-7.394532 7.394531-11.472657 17.230469-11.472657 27.691406 0 10.460938 4.074219 20.292969 11.472657 27.691406l59.058593 59.058594c-3.425781-1.007812-6.816406-2.144531-10.144531-3.425781-18.863281-7.253906-36.394531-17.375-52.109375-30.085937-8.929687-7.222657-16.757813-15.488282-23.410156-24.519532-1.324219-1.855468-2.628907-3.726562-3.914063-5.605468-15.269531-23.160157-23.074218-50.804688-21.769531-79.128907 11.609375-8.105469 60.492187-35.925781 137.207031 5.371094 35.898438 19.324219 66.746094 25.097656 90.792969 25.097656 10.628906 0 19.933594-1.125 27.75-2.710937 10.894531-2.207032 19.9375-5.460938 26.992187-8.664063l-3.023437 18.15625c-4.976563 29.921875-20.128906 57.316407-42.765625 77.429688-3.503906-1.488281-7.039062-2.917969-10.601562-4.285157-39.371094-15.078124-74.445313-37.835937-104.253907-67.644531zm0 0" fill="#896f4b" data-original="#000000" style="" class=""/><path xmlns="http://www.w3.org/2000/svg" d="m208.722656 120.929688c2.628906 0 5.210938-1.070313 7.070313-2.929688s2.929687-4.441406 2.929687-7.070312c0-2.628907-1.070312-5.210938-2.929687-7.070313-1.863281-1.859375-4.429688-2.929687-7.070313-2.929687-2.628906 0-5.210937 1.070312-7.070312 2.929687s-2.929688 4.441406-2.929688 7.070313c0 2.628906 1.070313 5.210937 2.929688 7.070312s4.441406 2.929688 7.070312 2.929688zm0 0" fill="#896f4b" data-original="#000000" style="" class=""/></g></svg>
