<?xml version="1.0"?>
<svg xmlns="http://www.w3.org/2000/svg" xmlns:xlink="http://www.w3.org/1999/xlink" xmlns:svgjs="http://svgjs.com/svgjs" version="1.1" width="512" height="512" x="0" y="0" viewBox="0 0 56 58" style="enable-background:new 0 0 512 512" xml:space="preserve" class=""><g><g xmlns="http://www.w3.org/2000/svg" id="Page-1" fill="none" fill-rule="evenodd"><g id="020----Wine-Tasting" fill="rgb(0,0,0)" fill-rule="nonzero"><path id="Shape" d="m7.293 47.161c-.74.042-1.549.087-2.376.087-1.69984551.0836421-3.39274757-.2699496-4.917-1.027v10.967l6.418.07c.3504127-3.7670354 1.84734372-7.3360763 4.289-10.226-.648.037-1.2.058-1.6.058-.544 0-1.161.035-1.814.071z" fill="#896f4b" data-original="#000000" style="" class=""/><path id="Shape" d="m24.663 36.984c-2.11-1.055-1.387-2.588-1-3.411.2571857-.4549133.4092392-.9616443.445-1.483.0041921-.0579757-.0036382-.1161923-.023-.171-.5536924-.1303195-1.1340035-.088096-1.663.121-.4402602.1466585-.9235688-.0288257-1.1671725-.4237877-.2436036-.3949621-.1834899-.9056168.1451725-1.2332123.8114568-.7514377 1.4598636-1.6615898 1.905-2.674-.18-.153-.449-.336-.71-.513-.906-.616-2.034-1.382-2.151-2.623-.0342549-.8380192.3181749-1.6453637.956-2.19.7302928-.5688197 1.169981-1.4328069 1.2-2.358-.1204163-.4795659-.4694335-.8689837-.933-1.041-.273-.137-.647-.293-1.088-.478-2.761-1.16-8.5-3.575-9.451-9.252-.6628985-3.36979573-2.62900742-6.3417791-5.471-8.27-.694-.084-3.198-.073-5.657-.011v42.616c1.41 1.883 4.6 1.719 7.182 1.576.693-.04 1.347-.075 1.928-.075 3.325 0 12.846-1.1 15.446-2.832.9725115-.6102269 1.5281196-1.7079763 1.444-2.853-.0225549-.9771881-.5219459-1.8814705-1.337-2.421z" fill="#896f4b" data-original="#000000" style="" class=""/><path id="Shape" d="m55.871 39.928c-.1955221-.9686539-.5746797-1.8909201-1.117-2.717l-1.816-2.911c-1.0919416.1913963-2.2130752.1325872-3.279-.172-2.4271107-.7735238-5.0477463.4013478-6.085 2.728-.6946168 1.5171084-1.9260015 2.723559-3.457 3.387-.8500259.4016283-1.7769154.6145025-2.717.624-.7092003-.0189957-1.4138489-.1196598-2.1-.3-.231-.052-.451-.1-.668-.14l1.511 5.13c.2536524.9545883.6878085 1.8517535 1.279 2.643 1.3489589 1.7081787 3.3242513 2.8068833 5.487 3.052 3.5299205.3709626 6.614529 2.5469973 8.148 5.748h2.78l-.4-.886c-1.4458878-3.3089445-1.039976-7.1350821 1.068-10.067 1.2531425-1.7758776 1.7449171-3.9787829 1.366-6.119zm-12.671 9.706c-.0367476-.0000325-.0734669-.0020354-.11-.006-1.7276104-.1892915-3.3069819-1.0639981-4.384-2.428-.4617766-.6312743-.8009808-1.3436031-1-2.1-.1003917-.342975-.0101824-.7134552.2366468-.9718844.2468293-.2584292.6127792-.3655458.9600001-.281.3472208.0845457.6229615.3479094.7233531.6908844.1319581.5117733.3552033.9955276.659 1.428.7415181.9377764 1.8269615 1.5404405 3.015 1.674.5277449.0580729.9181094.5184436.8891298 1.0485826-.0289795.5301389-.4671994.945216-.9981298.9454174z" fill="#896f4b" data-original="#000000" style="" class=""/><path id="Shape" d="m39.3 38.415c1.1351183-.4886137 2.0390818-1.3947252 2.525-2.531 1.468046-3.1059867 4.9796083-4.6799305 8.275-3.709.5430292.1383088 1.0998228.2154549 1.66.23l-6.6-10.587-2.46 1.1c-1.1299755-1.5810036-2.0449748-3.305076-2.721-5.127-.5099958-1.3571834-.7399479-2.8035688-.676-4.252.097-1.488 1.108-3.539 2.743-3.539h.023c.5952242.0310777 1.152689.3011561 1.546.749.5778708.6013043.9004258 1.4030327.9 2.237.0139247.469826-.1821864.9214313-.535 1.232-.210963.1432935-.4901142.1348221-.692-.021-.09-.072-.3-.24-.091-.918.1050361-.3415459.0198809-.7131834-.2233885-.9749203s-.6076946-.3738091-.956-.294c-.3483055.079809-.6275754.3393744-.7326115.6809203-.454847 1.0775848-.1473246 2.3259795.756 3.069.8844854.7086829 2.1287006.7545844 3.063.113.8873223-.6636197 1.4095531-1.7069694 1.409-2.815.020007-1.3734508-.502458-2.6993764-1.454-3.69-.7615077-.83635678-1.8285499-1.32966996-2.959-1.368h-.049c-2.7 0-4.564 2.8-4.739 5.408-.0819837 1.7187427.1850529 3.4362814.785 5.049.6895403 1.8749248 1.6153395 3.6542738 2.755 5.295l-3.078 1.378c-.0978951-.9980027-.2680076-1.987596-.509-2.961-.3950136-1.6747289-1.1257581-3.2518851-2.148-4.636-1.6-2.089-4.729-3.386-6.981-1.845-.9247036.6582255-1.5425503 1.6636701-1.712 2.786-.2424667 1.3518132.0583188 2.7446978.837 3.876.6134846.9221131 1.6260979 1.5006963 2.732 1.561 1.1379875.029664 2.1555424-.7046454 2.486-1.794.3406843-1.1203689-.0988961-2.3311501-1.079-2.972-.2748651-.2439651-.6614023-.3174991-1.0066481-.1915025s-.5935575.4312171-.6466712.7948773.0975308.7271496.3923193.9466252c.548.448.466.7.431.813-.0801266.2393902-.3045567.4005608-.557.4h-.005c-.4652629-.0643449-.8782216-.3312305-1.128-.729-.4628916-.6946107-.638527-1.5416034-.49-2.363.0793913-.590425.3933732-1.123942.871-1.48 1.364-.933 3.352.221 4.266 1.412.857713 1.169617 1.4699891 2.5006373 1.8 3.913.2694297 1.0928111.443087 2.2070282.519 3.33l-4.827 2.164 3 10.177c.5813614.0459919 1.1579652.1396399 1.724.28 1.16704.3930416 2.4405007.3225126 3.557-.197z" fill="#896f4b" data-original="#000000" style="" class=""/></g></g></g></svg>
